<svg width="95" height="23" viewBox="0 0 95 23" fill="none" xmlns="http://www.w3.org/2000/svg">
<path d="M46.4766 12.8418C46.3535 13.8945 45.9639 14.708 45.3076 15.2822C44.6559 15.8519 43.7878 16.1367 42.7031 16.1367C41.5273 16.1367 40.584 15.7152 39.873 14.8721C39.1667 14.029 38.8135 12.901 38.8135 11.4883V10.5312C38.8135 9.60612 38.9775 8.79264 39.3057 8.09082C39.6383 7.389 40.1077 6.85124 40.7139 6.47754C41.32 6.09928 42.0218 5.91016 42.8193 5.91016C43.8766 5.91016 44.7243 6.20638 45.3623 6.79883C46.0003 7.38672 46.3717 8.20247 46.4766 9.24609H45.1572C45.0433 8.45312 44.7949 7.87891 44.4121 7.52344C44.0339 7.16797 43.5029 6.99023 42.8193 6.99023C41.9808 6.99023 41.3223 7.30013 40.8438 7.91992C40.3698 8.53971 40.1328 9.42155 40.1328 10.5654V11.5293C40.1328 12.6094 40.3584 13.4684 40.8096 14.1064C41.2607 14.7445 41.8919 15.0635 42.7031 15.0635C43.4323 15.0635 43.9906 14.8994 44.3779 14.5713C44.7699 14.2386 45.0296 13.6621 45.1572 12.8418H46.4766ZM54.126 16H52.8613V9.64941H49.457V16H48.1855V8.60352H54.126V16ZM60.7227 16C60.6497 15.8542 60.5905 15.5944 60.5449 15.2207C59.957 15.8314 59.2552 16.1367 58.4395 16.1367C57.7103 16.1367 57.111 15.9316 56.6416 15.5215C56.1768 15.1068 55.9443 14.5827 55.9443 13.9492C55.9443 13.179 56.236 12.582 56.8193 12.1582C57.4072 11.7298 58.2321 11.5156 59.2939 11.5156H60.5244V10.9346C60.5244 10.4925 60.3923 10.1416 60.1279 9.88184C59.8636 9.61751 59.474 9.48535 58.959 9.48535C58.5078 9.48535 58.1296 9.59928 57.8242 9.82715C57.5189 10.055 57.3662 10.3307 57.3662 10.6543H56.0947C56.0947 10.2852 56.2246 9.92969 56.4844 9.58789C56.7487 9.24154 57.1042 8.9681 57.5508 8.76758C58.002 8.56706 58.4964 8.4668 59.0342 8.4668C59.8864 8.4668 60.554 8.68099 61.0371 9.10938C61.5202 9.5332 61.7708 10.1188 61.7891 10.8662V14.2705C61.7891 14.9495 61.8757 15.4896 62.0488 15.8906V16H60.7227ZM58.624 15.0361C59.0205 15.0361 59.3965 14.9336 59.752 14.7285C60.1074 14.5234 60.3649 14.2568 60.5244 13.9287V12.4111H59.5332C57.9837 12.4111 57.209 12.8646 57.209 13.7715C57.209 14.168 57.3411 14.4779 57.6055 14.7012C57.8698 14.9245 58.2093 15.0361 58.624 15.0361ZM69.835 8.60352V16H68.5635V9.64941H66.0479L65.8975 12.418C65.8154 13.6895 65.6012 14.5986 65.2549 15.1455C64.9131 15.6924 64.3685 15.9772 63.6211 16H63.1152V14.8857L63.4775 14.8584C63.8877 14.8128 64.1816 14.5758 64.3594 14.1475C64.5371 13.7191 64.651 12.9261 64.7012 11.7686L64.8379 8.60352H69.835ZM73.2461 11.1533H75.167C76.0055 11.1624 76.6686 11.3812 77.1562 11.8096C77.6439 12.238 77.8877 12.819 77.8877 13.5527C77.8877 14.291 77.637 14.8835 77.1357 15.3301C76.6344 15.7767 75.96 16 75.1123 16H71.9814V8.60352H73.2461V11.1533ZM73.2461 12.1855V14.9678H75.126C75.5999 14.9678 75.9668 14.847 76.2266 14.6055C76.4863 14.3594 76.6162 14.0244 76.6162 13.6006C76.6162 13.1904 76.4886 12.8555 76.2334 12.5957C75.9827 12.3314 75.6296 12.1947 75.1738 12.1855H73.2461ZM85.5098 16H84.2451V12.8418H80.8477V16H79.5762V8.60352H80.8477V11.8096H84.2451V8.60352H85.5098V16ZM92.332 8.60352H93.5967V16H92.332V10.6064L88.9209 16H87.6562V8.60352H88.9209V14.0039L92.332 8.60352Z" fill="#414141"/>
<path d="M28 12.6475C28 11.7213 27.4932 10.8869 26.6773 10.4697C25.8454 10.0442 24.7681 9.82849 23.4756 9.82849H9.42501C9.32384 9.32362 9.09967 8.8649 8.7634 8.49111L6.77086 6.2761C6.2778 5.72797 5.56927 5.39514 4.77586 5.33903L4.41793 5.31371C4.23467 5.30053 4.04846 5.3264 3.86974 5.38634V4.21542C3.86974 3.80527 3.69698 3.43487 3.42081 3.17242C3.70087 2.83675 3.86974 2.40516 3.86974 1.93484C3.86974 0.867945 3.00174 0 1.9349 0C0.868055 0 0 0.868 0 1.9349C0 2.40527 0.168875 2.8368 0.44893 3.17248C0.172758 3.43498 0 3.80532 0 4.21548V21.6712C0 21.9732 0.244836 22.2181 0.546875 22.2181H2.43441C2.71649 22.2181 2.9523 22.0036 2.97888 21.7227C3.04402 21.034 3.40818 19.1427 4.31041 18.2946H5.77478C6.07682 18.2946 6.32166 18.0497 6.32166 17.7477C6.32166 17.4457 6.07682 17.2008 5.77478 17.2008L1.0937 17.2008V12.3863L8.39316 12.3861V13.8112C8.39316 14.6544 9.07911 15.3404 9.92234 15.3404H26.4709C26.6177 15.3404 26.7655 15.3191 26.9062 15.2773V17.2008H23.8926C23.8921 17.2008 23.8917 17.2009 23.8912 17.2009H10.5867C10.2847 17.2009 10.0399 17.4457 10.0399 17.7477C10.0399 18.0497 10.2847 18.2946 10.5867 18.2946H23.6896C24.5883 19.1404 24.9548 21.0335 25.0212 21.7227C25.0478 22.0036 25.2835 22.2182 25.5656 22.2182H27.4531C27.7552 22.2182 28 21.9733 28 21.6713V12.6475ZM3.87105 7.17445C3.8792 6.94143 3.84727 6.70064 4.03927 6.5293C4.23243 6.35693 4.46414 6.41342 4.69864 6.43005C5.21533 6.46663 5.6507 6.6663 5.95766 7.0076L7.9502 9.22266C8.27318 9.58163 8.42811 10.082 8.38638 10.6315C8.37036 10.843 8.37419 11.0305 8.19591 11.1798C8.03299 11.3162 7.85619 11.2907 7.66008 11.2849C7.10927 11.2684 6.62807 11.0615 6.30509 10.7025L4.31255 8.4875C3.99027 8.12913 3.85443 7.65023 3.87105 7.17445ZM1.09375 11.2925V4.21548C1.09375 4.02484 1.24884 3.86974 1.43948 3.86974H2.43015C2.62079 3.86974 2.77588 4.02484 2.77588 4.21548V11.2924L1.09375 11.2925ZM3.86969 9.63047L5.36473 11.2925H3.86969V9.63047ZM1.93484 1.0938C2.39859 1.0938 2.77594 1.47109 2.77594 1.9349C2.77594 2.3987 2.39865 2.77599 1.93484 2.77599C1.47104 2.77599 1.09375 2.3987 1.09375 1.9349C1.09375 1.47109 1.47104 1.0938 1.93484 1.0938ZM1.95792 21.1244H1.09375V18.2947H2.92753C2.3357 19.2635 2.06806 20.4619 1.95792 21.1244ZM9.92239 14.2467C9.68237 14.2467 9.48708 14.0514 9.48708 13.8114L9.48686 10.9222H23.4756C24.5933 10.9222 25.503 11.0976 26.1793 11.4435C26.6277 11.6727 26.9062 12.1341 26.9062 12.6475V13.8093C26.9062 13.81 26.9061 13.8107 26.9061 13.8114C26.9061 14.0515 26.7108 14.2467 26.4708 14.2467L9.92239 14.2467ZM26.0421 21.1244C25.9319 20.4619 25.6643 19.2635 25.0725 18.2947H26.9062V21.1244H26.0421Z" fill="black"/>
<path d="M8.68597 17.5387C8.57282 17.2629 8.24628 17.1294 7.97175 17.2429C7.69623 17.3567 7.56186 17.6817 7.67588 17.9571C7.78985 18.2323 8.11486 18.367 8.39011 18.2529C8.66481 18.1391 8.80032 17.8134 8.68597 17.5387Z" fill="black"/>
</svg>
