<svg width="112" height="23" viewBox="0 0 112 23" fill="none" xmlns="http://www.w3.org/2000/svg">
<path d="M47.3281 7.12695H42.5293V16H41.21V6.04688H47.3281V7.12695ZM47.1299 12.2334C47.1299 11.5088 47.2712 10.8571 47.5537 10.2783C47.8408 9.69954 48.2373 9.25293 48.7432 8.93848C49.2536 8.62402 49.8346 8.4668 50.4863 8.4668C51.4935 8.4668 52.307 8.81543 52.9268 9.5127C53.5511 10.21 53.8633 11.1374 53.8633 12.2949V12.3838C53.8633 13.1038 53.7243 13.751 53.4463 14.3252C53.1729 14.8949 52.7786 15.3392 52.2637 15.6582C51.7533 15.9772 51.1654 16.1367 50.5 16.1367C49.4974 16.1367 48.6839 15.7881 48.0596 15.0908C47.4398 14.3936 47.1299 13.4707 47.1299 12.3223V12.2334ZM48.4014 12.3838C48.4014 13.2041 48.5905 13.8626 48.9688 14.3594C49.3516 14.8561 49.862 15.1045 50.5 15.1045C51.1426 15.1045 51.653 14.8538 52.0312 14.3525C52.4095 13.8467 52.5986 13.1403 52.5986 12.2334C52.5986 11.4222 52.4049 10.766 52.0176 10.2646C51.6348 9.75879 51.1243 9.50586 50.4863 9.50586C49.862 9.50586 49.3584 9.75423 48.9756 10.251C48.5928 10.7477 48.4014 11.4587 48.4014 12.3838ZM58.416 15.1045C58.8672 15.1045 59.2614 14.9678 59.5986 14.6943C59.9359 14.4209 60.1227 14.0791 60.1592 13.6689H61.3555C61.3327 14.0928 61.1868 14.4961 60.918 14.8789C60.6491 15.2617 60.2891 15.5671 59.8379 15.7949C59.3913 16.0228 58.9173 16.1367 58.416 16.1367C57.4089 16.1367 56.6068 15.8018 56.0098 15.1318C55.4173 14.4574 55.1211 13.5368 55.1211 12.3701V12.1582C55.1211 11.4382 55.2533 10.7979 55.5176 10.2373C55.7819 9.67676 56.1602 9.24154 56.6523 8.93164C57.1491 8.62174 57.7347 8.4668 58.4092 8.4668C59.2386 8.4668 59.9268 8.71517 60.4736 9.21191C61.0251 9.70866 61.319 10.3535 61.3555 11.1465H60.1592C60.1227 10.668 59.9404 10.276 59.6123 9.9707C59.2887 9.66081 58.8877 9.50586 58.4092 9.50586C57.7666 9.50586 57.2676 9.73828 56.9121 10.2031C56.5612 10.6634 56.3857 11.3311 56.3857 12.2061V12.4453C56.3857 13.2975 56.5612 13.9538 56.9121 14.4141C57.263 14.8743 57.7643 15.1045 58.416 15.1045ZM68.2734 9.62891H65.792V16H64.5273V9.62891H62.0938V8.60352H68.2734V9.62891ZM74.2891 8.60352H75.5537V16H74.2891V10.6064L70.8779 16H69.6133V8.60352H70.8779V14.0039L74.2891 8.60352ZM83.627 16H82.3623V12.8418H78.9648V16H77.6934V8.60352H78.9648V11.8096H82.3623V8.60352H83.627V16ZM91.707 16H90.4424V12.8418H87.0449V16H85.7734V8.60352H87.0449V11.8096H90.4424V8.60352H91.707V16ZM95.125 11.1533H97.0459C97.8844 11.1624 98.5475 11.3812 99.0352 11.8096C99.5228 12.238 99.7666 12.819 99.7666 13.5527C99.7666 14.291 99.516 14.8835 99.0146 15.3301C98.5133 15.7767 97.8389 16 96.9912 16H93.8604V8.60352H95.125V11.1533ZM102.405 16H101.134V8.60352H102.405V16ZM95.125 12.1855V14.9678H97.0049C97.4788 14.9678 97.8457 14.847 98.1055 14.6055C98.3652 14.3594 98.4951 14.0244 98.4951 13.6006C98.4951 13.1904 98.3675 12.8555 98.1123 12.5957C97.8617 12.3314 97.5085 12.1947 97.0527 12.1855H95.125ZM107.683 16.1367C106.68 16.1367 105.864 15.8086 105.235 15.1523C104.606 14.4915 104.292 13.6097 104.292 12.5068V12.2744C104.292 11.5407 104.431 10.8867 104.709 10.3125C104.992 9.73372 105.383 9.28255 105.885 8.95898C106.391 8.63086 106.938 8.4668 107.525 8.4668C108.487 8.4668 109.234 8.78353 109.768 9.41699C110.301 10.0505 110.567 10.9574 110.567 12.1377V12.6641H105.557C105.575 13.3932 105.787 13.9834 106.192 14.4346C106.603 14.8812 107.122 15.1045 107.751 15.1045C108.198 15.1045 108.576 15.0133 108.886 14.8311C109.196 14.6488 109.467 14.4072 109.699 14.1064L110.472 14.708C109.852 15.6605 108.922 16.1367 107.683 16.1367ZM107.525 9.50586C107.015 9.50586 106.587 9.69271 106.24 10.0664C105.894 10.4355 105.68 10.9551 105.598 11.625H109.303V11.5293C109.266 10.8867 109.093 10.39 108.783 10.0391C108.473 9.68359 108.054 9.50586 107.525 9.50586Z" fill="#414141"/>
<path d="M29.5312 15.9375H28.125V13.125H29.0625C29.3214 13.1249 29.5311 12.9149 29.531 12.656C29.531 12.6304 29.5289 12.6047 29.5247 12.5794L29.0559 9.76688C29.0184 9.54082 28.8229 9.37512 28.5938 9.375H26.7188C26.4896 9.37512 26.2941 9.54082 26.2566 9.76688L25.7878 12.5794C25.7453 12.8347 25.9179 13.0762 26.1734 13.1187C26.1987 13.1229 26.2243 13.125 26.25 13.125H27.1875V15.9375H25.3125C25.2967 15.9397 25.281 15.9428 25.2656 15.9469C25.0455 14.8525 24.0851 14.0644 22.9688 14.0625H22.0312V12.6562C22.0312 11.8796 21.4017 11.25 20.625 11.25H16.875C16.0983 11.25 15.4688 11.8796 15.4688 12.6562V14.0625H14.5312V12.6562C14.5312 11.8796 13.9017 11.25 13.125 11.25H9.375C8.59834 11.25 7.96875 11.8796 7.96875 12.6562V14.0625H7.03125C5.91492 14.0644 4.95445 14.8525 4.73438 15.9469C4.71897 15.9428 4.70332 15.9397 4.6875 15.9375H2.8125V13.125H3.75C4.00887 13.1249 4.21863 12.9149 4.21852 12.656C4.21852 12.6304 4.21641 12.6047 4.21219 12.5794L3.74344 9.76688C3.70588 9.54082 3.51041 9.37512 3.28125 9.375H1.40625C1.17709 9.37512 0.981621 9.54082 0.944062 9.76688L0.475313 12.5794C0.432832 12.8347 0.605449 13.0762 0.860859 13.1187C0.886172 13.1229 0.911836 13.125 0.9375 13.125H1.875V15.9375H0.46875C0.209883 15.9375 0 16.1474 0 16.4062V21.5625C0 21.8214 0.209883 22.0312 0.46875 22.0312H29.5312C29.7901 22.0312 30 21.8214 30 21.5625V16.4062C30 16.1474 29.7901 15.9375 29.5312 15.9375ZM1.49109 12.1875L1.80328 10.3125H2.88422L3.19641 12.1875H1.49109ZM4.21875 21.0938H0.9375V16.875H4.21875V21.0938ZM16.4062 12.6562C16.4062 12.3974 16.6161 12.1875 16.875 12.1875H20.625C20.8839 12.1875 21.0938 12.3974 21.0938 12.6562V14.0625H16.4062V12.6562ZM8.90625 12.6562C8.90625 12.3974 9.11613 12.1875 9.375 12.1875H13.125C13.3839 12.1875 13.5938 12.3974 13.5938 12.6562V14.0625H8.90625V12.6562ZM24.375 21.0938H5.625V19.6875H24.375V21.0938ZM24.375 18.75H5.625V16.4062C5.625 15.6296 6.25459 15 7.03125 15H22.9688C23.7454 15 24.375 15.6296 24.375 16.4062V18.75ZM26.8036 12.1875L27.1158 10.3125H28.1967L28.5089 12.1875H26.8036ZM29.0625 21.0938H25.7812V16.875H29.0625V21.0938Z" fill="black"/>
<path d="M9.375 8.4375H19.6875C19.9464 8.4375 20.1562 8.22762 20.1562 7.96875V0.46875C20.1562 0.209883 19.9464 0 19.6875 0H9.375C9.11613 0 8.90625 0.209883 8.90625 0.46875V7.96875C8.90625 8.22762 9.11613 8.4375 9.375 8.4375ZM9.84375 0.9375H19.2188V5.69438L18.1786 4.39453C18.0954 4.29029 17.9719 4.22637 17.8387 4.21875C17.7058 4.21289 17.5764 4.26223 17.4811 4.35516L15.9375 5.89969L12.9877 2.94984C12.8145 2.77693 12.5374 2.76633 12.3516 2.92547L9.84375 5.07516V0.9375ZM9.84375 6.30891L12.6314 3.91828L15.6061 6.8925C15.7891 7.07549 16.0859 7.07549 16.2689 6.8925L17.7736 5.38781L19.2188 7.19625V7.5H9.84375V6.30891Z" fill="black"/>
<path d="M16.4062 4.21875C17.1829 4.21875 17.8125 3.58916 17.8125 2.8125C17.8125 2.03584 17.1829 1.40625 16.4062 1.40625C15.6296 1.40625 15 2.03584 15 2.8125C15 3.58916 15.6296 4.21875 16.4062 4.21875ZM16.4062 2.34375C16.6651 2.34375 16.875 2.55363 16.875 2.8125C16.875 3.07137 16.6651 3.28125 16.4062 3.28125C16.1474 3.28125 15.9375 3.07137 15.9375 2.8125C15.9375 2.55363 16.1474 2.34375 16.4062 2.34375Z" fill="black"/>
</svg>
