<svg width="144" height="22" viewBox="0 0 144 22" fill="none" xmlns="http://www.w3.org/2000/svg">
<path d="M41.7686 11.3447C41.7686 12.32 41.6045 13.1722 41.2764 13.9014C40.9482 14.626 40.4834 15.1797 39.8818 15.5625C39.2803 15.9453 38.5785 16.1367 37.7764 16.1367C36.9925 16.1367 36.2975 15.9453 35.6914 15.5625C35.0853 15.1751 34.6136 14.626 34.2764 13.915C33.9437 13.1995 33.7728 12.3724 33.7637 11.4336V10.7158C33.7637 9.75879 33.93 8.91341 34.2627 8.17969C34.5954 7.44596 35.0648 6.88542 35.6709 6.49805C36.2816 6.10612 36.9788 5.91016 37.7627 5.91016C38.5602 5.91016 39.262 6.10384 39.8682 6.49121C40.4788 6.87402 40.9482 7.43229 41.2764 8.16602C41.6045 8.89518 41.7686 9.74512 41.7686 10.7158V11.3447ZM40.4629 10.7021C40.4629 9.52181 40.2259 8.61719 39.752 7.98828C39.278 7.35482 38.6149 7.03809 37.7627 7.03809C36.9333 7.03809 36.2793 7.35482 35.8008 7.98828C35.3268 8.61719 35.083 9.49219 35.0693 10.6133V11.3447C35.0693 12.4886 35.3086 13.3887 35.7871 14.0449C36.2702 14.6966 36.9333 15.0225 37.7764 15.0225C38.624 15.0225 39.2803 14.7148 39.7451 14.0996C40.21 13.4798 40.4492 12.5934 40.4629 11.4404V10.7021ZM43.2656 12.4385C43.2656 11.2035 43.5049 10.2327 43.9834 9.52637C44.4619 8.81999 45.1182 8.4668 45.9521 8.4668C46.3395 8.4668 46.679 8.53288 46.9707 8.66504V5.5H48.2354V8.70605C48.5544 8.54655 48.9281 8.4668 49.3564 8.4668C50.195 8.4668 50.8535 8.81999 51.332 9.52637C51.8105 10.2327 52.0498 11.2513 52.0498 12.582C52.0498 13.6712 51.8105 14.5371 51.332 15.1797C50.8581 15.8223 50.2041 16.1436 49.3701 16.1436C48.9281 16.1436 48.5498 16.0706 48.2354 15.9248V18.8438H46.9707V15.9453C46.6699 16.0775 46.3258 16.1436 45.9385 16.1436C45.109 16.1436 44.4551 15.8223 43.9766 15.1797C43.5026 14.5371 43.2656 13.6576 43.2656 12.541V12.4385ZM50.7852 12.4385C50.7852 11.5088 50.6257 10.7887 50.3066 10.2783C49.9876 9.76335 49.5479 9.50586 48.9873 9.50586C48.7002 9.50586 48.4495 9.55143 48.2354 9.64258V14.9951C48.4404 15.0726 48.6956 15.1113 49.001 15.1113C49.5661 15.1113 50.0036 14.8926 50.3135 14.4551C50.6279 14.0176 50.7852 13.3454 50.7852 12.4385ZM44.5303 12.582C44.5303 13.4115 44.6784 14.0404 44.9746 14.4688C45.2708 14.8971 45.6969 15.1113 46.2529 15.1113C46.5173 15.1113 46.7565 15.0703 46.9707 14.9883V9.62207C46.7793 9.5446 46.5446 9.50586 46.2666 9.50586C45.7106 9.50586 45.2822 9.75423 44.9814 10.251C44.6807 10.7477 44.5303 11.5247 44.5303 12.582ZM58.4824 8.60352H59.7471V16H58.4824V10.6064L55.0713 16H53.8066V8.60352H55.0713V14.0039L58.4824 8.60352ZM64.7441 15.1045C65.1953 15.1045 65.5895 14.9678 65.9268 14.6943C66.264 14.4209 66.4508 14.0791 66.4873 13.6689H67.6836C67.6608 14.0928 67.515 14.4961 67.2461 14.8789C66.9772 15.2617 66.6172 15.5671 66.166 15.7949C65.7194 16.0228 65.2454 16.1367 64.7441 16.1367C63.737 16.1367 62.9349 15.8018 62.3379 15.1318C61.7454 14.4574 61.4492 13.5368 61.4492 12.3701V12.1582C61.4492 11.4382 61.5814 10.7979 61.8457 10.2373C62.11 9.67676 62.4883 9.24154 62.9805 8.93164C63.4772 8.62174 64.0628 8.4668 64.7373 8.4668C65.5667 8.4668 66.2549 8.71517 66.8018 9.21191C67.3532 9.70866 67.6471 10.3535 67.6836 11.1465H66.4873C66.4508 10.668 66.2686 10.276 65.9404 9.9707C65.6169 9.66081 65.2158 9.50586 64.7373 9.50586C64.0947 9.50586 63.5957 9.73828 63.2402 10.2031C62.8893 10.6634 62.7139 11.3311 62.7139 12.2061V12.4453C62.7139 13.2975 62.8893 13.9538 63.2402 14.4141C63.5911 14.8743 64.0924 15.1045 64.7441 15.1045ZM75.1484 16H73.8838V12.8418H70.4863V16H69.2148V8.60352H70.4863V11.8096H73.8838V8.60352H75.1484V16ZM81.752 16C81.679 15.8542 81.6198 15.5944 81.5742 15.2207C80.9863 15.8314 80.2845 16.1367 79.4688 16.1367C78.7396 16.1367 78.1403 15.9316 77.6709 15.5215C77.2061 15.1068 76.9736 14.5827 76.9736 13.9492C76.9736 13.179 77.2653 12.582 77.8486 12.1582C78.4365 11.7298 79.2614 11.5156 80.3232 11.5156H81.5537V10.9346C81.5537 10.4925 81.4215 10.1416 81.1572 9.88184C80.8929 9.61751 80.5033 9.48535 79.9883 9.48535C79.5371 9.48535 79.1589 9.59928 78.8535 9.82715C78.5482 10.055 78.3955 10.3307 78.3955 10.6543H77.124C77.124 10.2852 77.2539 9.92969 77.5137 9.58789C77.778 9.24154 78.1335 8.9681 78.5801 8.76758C79.0312 8.56706 79.5257 8.4668 80.0635 8.4668C80.9157 8.4668 81.5833 8.68099 82.0664 9.10938C82.5495 9.5332 82.8001 10.1188 82.8184 10.8662V14.2705C82.8184 14.9495 82.9049 15.4896 83.0781 15.8906V16H81.752ZM79.6533 15.0361C80.0498 15.0361 80.4258 14.9336 80.7812 14.7285C81.1367 14.5234 81.3942 14.2568 81.5537 13.9287V12.4111H80.5625C79.013 12.4111 78.2383 12.8646 78.2383 13.7715C78.2383 14.168 78.3704 14.4779 78.6348 14.7012C78.8991 14.9245 79.2386 15.0361 79.6533 15.0361ZM90.4541 8.60352V16H89.1826V13.1221H87.2754L85.5322 16H84.165L86.0244 12.9307C85.5505 12.7575 85.1859 12.4909 84.9307 12.1309C84.68 11.7663 84.5547 11.3424 84.5547 10.8594C84.5547 10.1849 84.8076 9.64258 85.3135 9.23242C85.8193 8.81771 86.4961 8.60807 87.3438 8.60352H90.4541ZM85.8262 10.873C85.8262 11.2331 85.9492 11.5247 86.1953 11.748C86.4414 11.9668 86.7673 12.0785 87.1729 12.083H89.1826V9.62891H87.3643C86.8949 9.62891 86.5212 9.74512 86.2432 9.97754C85.9652 10.2054 85.8262 10.5039 85.8262 10.873ZM100.216 14.3252L102.731 8.60352H104.311V16H103.046V10.6201L100.653 16H99.7783L97.3379 10.5039V16H96.0732V8.60352H97.7139L100.216 14.3252ZM109.417 16.1367C108.414 16.1367 107.599 15.8086 106.97 15.1523C106.341 14.4915 106.026 13.6097 106.026 12.5068V12.2744C106.026 11.5407 106.165 10.8867 106.443 10.3125C106.726 9.73372 107.118 9.28255 107.619 8.95898C108.125 8.63086 108.672 8.4668 109.26 8.4668C110.221 8.4668 110.969 8.78353 111.502 9.41699C112.035 10.0505 112.302 10.9574 112.302 12.1377V12.6641H107.291C107.309 13.3932 107.521 13.9834 107.927 14.4346C108.337 14.8812 108.856 15.1045 109.485 15.1045C109.932 15.1045 110.31 15.0133 110.62 14.8311C110.93 14.6488 111.201 14.4072 111.434 14.1064L112.206 14.708C111.586 15.6605 110.657 16.1367 109.417 16.1367ZM109.26 9.50586C108.749 9.50586 108.321 9.69271 107.975 10.0664C107.628 10.4355 107.414 10.9551 107.332 11.625H111.037V11.5293C111.001 10.8867 110.827 10.39 110.518 10.0391C110.208 9.68359 109.788 9.50586 109.26 9.50586ZM117.019 9.02734C117.948 9.02734 118.691 9.33952 119.247 9.96387C119.808 10.5837 120.088 11.4017 120.088 12.418V12.5342C120.088 13.2314 119.953 13.8558 119.685 14.4072C119.416 14.9541 119.028 15.3802 118.522 15.6855C118.021 15.9863 117.442 16.1367 116.786 16.1367C115.793 16.1367 114.993 15.8063 114.387 15.1455C113.781 14.4801 113.478 13.5892 113.478 12.4727V11.8574C113.478 10.3034 113.765 9.06836 114.339 8.15234C114.918 7.23633 115.77 6.67806 116.896 6.47754C117.534 6.36361 117.964 6.22461 118.188 6.06055C118.411 5.89648 118.522 5.6709 118.522 5.38379H119.562C119.562 5.95345 119.432 6.39779 119.172 6.7168C118.917 7.03581 118.507 7.26139 117.941 7.39355L116.998 7.60547C116.246 7.7832 115.681 8.08398 115.303 8.50781C114.929 8.92708 114.685 9.48763 114.571 10.1895C115.241 9.41471 116.057 9.02734 117.019 9.02734ZM116.772 10.0664C116.153 10.0664 115.66 10.276 115.296 10.6953C114.931 11.11 114.749 11.6865 114.749 12.4248V12.5342C114.749 13.3271 114.931 13.9561 115.296 14.4209C115.665 14.8812 116.162 15.1113 116.786 15.1113C117.415 15.1113 117.912 14.8789 118.276 14.4141C118.641 13.9492 118.823 13.2702 118.823 12.377C118.823 11.6797 118.639 11.1214 118.27 10.7021C117.905 10.2783 117.406 10.0664 116.772 10.0664ZM124.579 16.1367C123.576 16.1367 122.761 15.8086 122.132 15.1523C121.503 14.4915 121.188 13.6097 121.188 12.5068V12.2744C121.188 11.5407 121.327 10.8867 121.605 10.3125C121.888 9.73372 122.28 9.28255 122.781 8.95898C123.287 8.63086 123.834 8.4668 124.422 8.4668C125.383 8.4668 126.131 8.78353 126.664 9.41699C127.197 10.0505 127.464 10.9574 127.464 12.1377V12.6641H122.453C122.471 13.3932 122.683 13.9834 123.089 14.4346C123.499 14.8812 124.019 15.1045 124.647 15.1045C125.094 15.1045 125.472 15.0133 125.782 14.8311C126.092 14.6488 126.363 14.4072 126.596 14.1064L127.368 14.708C126.748 15.6605 125.819 16.1367 124.579 16.1367ZM124.422 9.50586C123.911 9.50586 123.483 9.69271 123.137 10.0664C122.79 10.4355 122.576 10.9551 122.494 11.625H126.199V11.5293C126.163 10.8867 125.99 10.39 125.68 10.0391C125.37 9.68359 124.951 9.50586 124.422 9.50586ZM134.997 8.60352V16H133.726V9.64941H131.21L131.06 12.418C130.978 13.6895 130.763 14.5986 130.417 15.1455C130.075 15.6924 129.531 15.9772 128.783 16H128.277V14.8857L128.64 14.8584C129.05 14.8128 129.344 14.5758 129.521 14.1475C129.699 13.7191 129.813 12.9261 129.863 11.7686L130 8.60352H134.997ZM138.408 11.1533H140.329C141.168 11.1624 141.831 11.3812 142.318 11.8096C142.806 12.238 143.05 12.819 143.05 13.5527C143.05 14.291 142.799 14.8835 142.298 15.3301C141.797 15.7767 141.122 16 140.274 16H137.144V8.60352H138.408V11.1533ZM138.408 12.1855V14.9678H140.288C140.762 14.9678 141.129 14.847 141.389 14.6055C141.648 14.3594 141.778 14.0244 141.778 13.6006C141.778 13.1904 141.651 12.8555 141.396 12.5957C141.145 12.3314 140.792 12.1947 140.336 12.1855H138.408Z" fill="#414141"/>
<path d="M22.3125 10.3984H21.3211C21.5413 10.0189 21.668 9.57881 21.668 9.10938V7.17578C21.668 6.81983 21.3794 6.53125 21.0234 6.53125H19.8029C20.1742 4.80137 21.9349 3.85352 21.9653 3.8375C22.2804 3.67366 22.4037 3.28552 22.2405 2.96978C22.0771 2.65353 21.6883 2.52961 21.372 2.69302C21.3088 2.72577 20.4899 3.15842 19.7344 3.99536V1.97656C19.7344 1.62061 19.4458 1.33203 19.0898 1.33203C18.7339 1.33203 18.4453 1.62061 18.4453 1.97656V3.99536C17.6898 3.15842 16.8709 2.72577 16.8076 2.69302C16.4913 2.52953 16.1025 2.65358 15.9391 2.96978C15.7757 3.28604 15.8996 3.67486 16.2158 3.83823C16.2358 3.84854 18.0075 4.78427 18.3777 6.53125H17.1562C16.8003 6.53125 16.5117 6.81983 16.5117 7.17578V9.10938C16.5117 9.57881 16.6384 10.0189 16.8586 10.3984H11.0663L10.4218 9.10938H13.2891C13.645 9.10938 13.9336 8.8208 13.9336 8.46484V0.644531C13.9336 0.288578 13.645 0 13.2891 0H2.89062C2.53467 0 2.24609 0.288578 2.24609 0.644531V8.46484C2.24609 8.8208 2.53467 9.10938 2.89062 9.10938H5.75793L5.1134 10.3984H1.60156C1.24561 10.3984 0.957031 10.687 0.957031 11.043C0.957031 11.3989 1.24561 11.6875 1.60156 11.6875H2.24609V21.3555C2.24609 21.7114 2.53467 22 2.89062 22C3.24658 22 3.53516 21.7114 3.53516 21.3555V19.4219H12.6445V21.3555C12.6445 21.7114 12.9331 22 13.2891 22H21.0234C21.3794 22 21.668 21.7114 21.668 21.3555V11.6875H22.3125C22.6685 11.6875 22.957 11.3989 22.957 11.043C22.957 10.687 22.6685 10.3984 22.3125 10.3984ZM17.8008 9.10938V7.82031H20.3789V9.10938C20.3789 9.82016 19.8006 10.3984 19.0898 10.3984C18.3791 10.3984 17.8008 9.82016 17.8008 9.10938ZM3.53516 1.28906H12.6445V7.82031H3.53516V1.28906ZM7.1991 9.10938H8.98059L9.62512 10.3984H6.55457L7.1991 9.10938ZM3.53516 18.1328V11.6875H12.6445V18.1328H3.53516ZM13.9336 16.8438H20.3789V20.7109H13.9336V16.8438ZM20.3789 15.5547H13.9336V11.6875H20.3789V15.5547Z" fill="black"/>
<path d="M17.1562 14.2656C17.5122 14.2656 17.8008 13.9771 17.8008 13.6211C17.8008 13.2651 17.5122 12.9766 17.1562 12.9766C16.8003 12.9766 16.5117 13.2651 16.5117 13.6211C16.5117 13.9771 16.8003 14.2656 17.1562 14.2656Z" fill="black"/>
<path d="M17.1562 19.4219C17.5122 19.4219 17.8008 19.1333 17.8008 18.7773C17.8008 18.4214 17.5122 18.1328 17.1562 18.1328C16.8003 18.1328 16.5117 18.4214 16.5117 18.7773C16.5117 19.1333 16.8003 19.4219 17.1562 19.4219Z" fill="black"/>
</svg>
