<svg width="72" height="23" viewBox="0 0 72 23" fill="none" xmlns="http://www.w3.org/2000/svg">
<path d="M36.7393 11.5293H35.5293V16H34.2168V6.04688H35.5293V10.4355H36.5547L40.0342 6.04688H41.668L37.8672 10.873L41.9482 16H40.3418L36.7393 11.5293ZM45.0996 14.1475L46.8223 8.60352H48.1758L45.2021 17.1416C44.7419 18.3721 44.0104 18.9873 43.0078 18.9873L42.7686 18.9668L42.2969 18.8779V17.8525L42.6387 17.8799C43.0671 17.8799 43.3997 17.7933 43.6367 17.6201C43.8783 17.4469 44.0765 17.1302 44.2314 16.6699L44.5117 15.918L41.873 8.60352H43.2539L45.0996 14.1475ZM51.792 11.3037L53.4326 8.60352H54.9092L52.4893 12.2607L54.9844 16H53.5215L51.8125 13.2314L50.1035 16H48.6338L51.1289 12.2607L48.709 8.60352H50.1719L51.792 11.3037ZM62.2988 16H61.0342V12.8418H57.6367V16H56.3652V8.60352H57.6367V11.8096H61.0342V8.60352H62.2988V16ZM69.1211 8.60352H70.3857V16H69.1211V10.6064L65.71 16H64.4453V8.60352H65.71V14.0039L69.1211 8.60352Z" fill="#414141"/>
<path d="M11.5 0V12.9375H0V23H23V0H11.5ZM11.5 21.5625H1.4375V14.375H11.5V21.5625ZM21.5625 21.5625H12.9375V7.1875H21.5625V21.5625ZM21.5625 5.75H12.9375V1.4375H21.5625V5.75Z" fill="black"/>
<path d="M10.0625 4.73369L8.625 3.29619V0H7.1875V3.89131L8.625 5.32881V5.75H2.875V5.32881L4.3125 3.89131V0H2.875V3.29619L1.4375 4.73369V7.1875H10.0625V4.73369Z" fill="black"/>
<path d="M8.625 15.8125H4.3125V17.25H8.625V15.8125Z" fill="black"/>
<path d="M15.8125 2.875H14.375V4.3125H15.8125V2.875Z" fill="black"/>
<path d="M15.8125 10.0625H14.375V14.375H15.8125V10.0625Z" fill="black"/>
<path d="M2.875 8.625H1.4375V10.0625H2.875V8.625Z" fill="black"/>
<path d="M6.46875 8.625H5.03125V10.0625H6.46875V8.625Z" fill="black"/>
<path d="M10.0625 8.625H8.625V10.0625H10.0625V8.625Z" fill="black"/>
</svg>
