<svg width="99" height="22" viewBox="0 0 99 22" fill="none" xmlns="http://www.w3.org/2000/svg">
<path d="M40.7139 16H39.3945V7.12695H34.4863V16H33.1738V6.04688H40.7139V16ZM49.1562 12.3838C49.1562 13.5094 48.8988 14.4163 48.3838 15.1045C47.8688 15.7926 47.1715 16.1367 46.292 16.1367C45.3942 16.1367 44.6878 15.8519 44.1729 15.2822V18.8438H42.9082V8.60352H44.0635L44.125 9.42383C44.64 8.78581 45.3555 8.4668 46.2715 8.4668C47.1602 8.4668 47.862 8.80176 48.377 9.47168C48.8965 10.1416 49.1562 11.0736 49.1562 12.2676V12.3838ZM47.8916 12.2402C47.8916 11.4062 47.7139 10.7477 47.3584 10.2646C47.0029 9.78158 46.5153 9.54004 45.8955 9.54004C45.1299 9.54004 44.5557 9.87956 44.1729 10.5586V14.0928C44.5511 14.7673 45.1299 15.1045 45.9092 15.1045C46.5153 15.1045 46.9961 14.8652 47.3516 14.3867C47.7116 13.9036 47.8916 13.1882 47.8916 12.2402ZM55.5547 8.60352H56.8193V16H55.5547V10.6064L52.1436 16H50.8789V8.60352H52.1436V14.0039L55.5547 8.60352ZM61.3311 11.3037L62.9717 8.60352H64.4482L62.0283 12.2607L64.5234 16H63.0605L61.3516 13.2314L59.6426 16H58.1729L60.668 12.2607L58.248 8.60352H59.7109L61.3311 11.3037ZM65.3232 12.2334C65.3232 11.5088 65.4645 10.8571 65.7471 10.2783C66.0342 9.69954 66.4307 9.25293 66.9365 8.93848C67.4469 8.62402 68.028 8.4668 68.6797 8.4668C69.6868 8.4668 70.5003 8.81543 71.1201 9.5127C71.7445 10.21 72.0566 11.1374 72.0566 12.2949V12.3838C72.0566 13.1038 71.9176 13.751 71.6396 14.3252C71.3662 14.8949 70.972 15.3392 70.457 15.6582C69.9466 15.9772 69.3587 16.1367 68.6934 16.1367C67.6908 16.1367 66.8773 15.7881 66.2529 15.0908C65.6331 14.3936 65.3232 13.4707 65.3232 12.3223V12.2334ZM66.5947 12.3838C66.5947 13.2041 66.7839 13.8626 67.1621 14.3594C67.5449 14.8561 68.0553 15.1045 68.6934 15.1045C69.3359 15.1045 69.8464 14.8538 70.2246 14.3525C70.6029 13.8467 70.792 13.1403 70.792 12.2334C70.792 11.4222 70.5983 10.766 70.2109 10.2646C69.8281 9.75879 69.3177 9.50586 68.6797 9.50586C68.0553 9.50586 67.5518 9.75423 67.1689 10.251C66.7861 10.7477 66.5947 11.4587 66.5947 12.3838ZM79.3916 12.7871H78.5029V16H77.2383V12.7871H76.3496L74.2783 16H72.6787L75.3242 12.1719L72.9316 8.60352H74.4629L76.3701 11.666H77.2383V8.60352H78.5029V11.666H79.3643L81.2852 8.60352H82.8164L80.417 12.1787L83.0625 16H81.4629L79.3916 12.7871ZM88.9961 8.60352H90.2607V16H88.9961V10.6064L85.585 16H84.3203V8.60352H85.585V14.0039L88.9961 8.60352ZM95.3604 16.1367C94.3577 16.1367 93.542 15.8086 92.9131 15.1523C92.2842 14.4915 91.9697 13.6097 91.9697 12.5068V12.2744C91.9697 11.5407 92.1087 10.8867 92.3867 10.3125C92.6693 9.73372 93.0612 9.28255 93.5625 8.95898C94.0684 8.63086 94.6152 8.4668 95.2031 8.4668C96.1647 8.4668 96.9121 8.78353 97.4453 9.41699C97.9785 10.0505 98.2451 10.9574 98.2451 12.1377V12.6641H93.2344C93.2526 13.3932 93.4645 13.9834 93.8701 14.4346C94.2803 14.8812 94.7998 15.1045 95.4287 15.1045C95.8753 15.1045 96.2536 15.0133 96.5635 14.8311C96.8734 14.6488 97.1445 14.4072 97.377 14.1064L98.1494 14.708C97.5296 15.6605 96.5999 16.1367 95.3604 16.1367ZM95.2031 9.50586C94.6927 9.50586 94.2643 9.69271 93.918 10.0664C93.5716 10.4355 93.3574 10.9551 93.2754 11.625H96.9805V11.5293C96.944 10.8867 96.7708 10.39 96.4609 10.0391C96.151 9.68359 95.7318 9.50586 95.2031 9.50586Z" fill="#414141"/>
<path d="M21.2695 0H0.644531C0.288578 0 0 0.288578 0 0.644531C0 1.00048 0.288578 1.28906 0.644531 1.28906H0.6875V21.3555C0.6875 21.7114 0.976078 22 1.33203 22C1.68798 22 1.97656 21.7114 1.97656 21.3555V20.9688H19.9375V21.3555C19.9375 21.7114 20.2261 22 20.582 22C20.938 22 21.2266 21.7114 21.2266 21.3555V1.28906H21.2695C21.6255 1.28906 21.9141 1.00048 21.9141 0.644531C21.9141 0.288578 21.6255 0 21.2695 0ZM11.6016 13.3633H19.9375V15.8555H11.6016V13.3633ZM19.9375 12.0742H11.6016V9.58203H19.9375V12.0742ZM10.3125 19.6797H6.78906V1.28906H10.3125V19.6797ZM1.97656 1.28906H5.5V19.6797H1.97656V1.28906ZM11.6016 19.6797V17.1445H19.9375V19.6797H11.6016ZM19.9375 8.29297H11.6016V1.28906H19.9375V8.29297Z" fill="black"/>
<path d="M8.55078 11.6445C8.90675 11.6445 9.19531 11.356 9.19531 11C9.19531 10.644 8.90675 10.3555 8.55078 10.3555C8.19482 10.3555 7.90625 10.644 7.90625 11C7.90625 11.356 8.19482 11.6445 8.55078 11.6445Z" fill="black"/>
<path d="M3.73828 11.6446C4.09425 11.6446 4.38281 11.356 4.38281 11C4.38281 10.6441 4.09425 10.3555 3.73828 10.3555C3.38232 10.3555 3.09375 10.6441 3.09375 11C3.09375 11.356 3.38232 11.6446 3.73828 11.6446Z" fill="black"/>
</svg>
