<svg width="16" height="16" viewBox="0 0 16 16" fill="none" xmlns="http://www.w3.org/2000/svg">
<path d="M5.62091 6.47473H6.62091M9.62091 10.4747H10.6209M10.6209 5.97473L5.62091 10.9747M7.42236 1.76408L6.29334 2.8931C6.10808 3.07837 5.8568 3.18245 5.5948 3.18245H3.81652C3.27092 3.18245 2.82863 3.62474 2.82863 4.17034V5.94862C2.82863 6.21062 2.72454 6.4619 2.53928 6.64716L1.41026 7.77619C1.02446 8.16198 1.02446 8.78748 1.41026 9.17328L2.53928 10.3023C2.72454 10.4876 2.82863 10.7388 2.82863 11.0008V12.7791C2.82863 13.3247 3.27092 13.767 3.81652 13.767H5.5948C5.8568 13.767 6.10808 13.8711 6.29334 14.0564L7.42236 15.1854C7.80816 15.5712 8.43366 15.5712 8.81946 15.1854L9.94848 14.0564C10.1337 13.8711 10.385 13.767 10.647 13.767H12.4253C12.9709 13.767 13.4132 13.3247 13.4132 12.7791V11.0008C13.4132 10.7388 13.5173 10.4876 13.7025 10.3023L14.8316 9.17328C15.2174 8.78748 15.2174 8.16198 14.8316 7.77619L13.7025 6.64716C13.5173 6.4619 13.4132 6.21062 13.4132 5.94862V4.17034C13.4132 3.62474 12.9709 3.18245 12.4253 3.18245H10.647C10.385 3.18245 10.1337 3.07837 9.94848 2.8931L8.81946 1.76408C8.43366 1.37828 7.80816 1.37828 7.42236 1.76408Z" stroke="#E92D2D"/>
</svg>
