<svg width="140" height="465" viewBox="0 0 140 465" fill="none" xmlns="http://www.w3.org/2000/svg">
<path d="M40.4722 7.84863H39.3486V12H38.1299V2.75781H39.3486V6.83301H40.3008L43.5317 2.75781H45.0488L41.5195 7.23926L45.3091 12H43.8174L40.4722 7.84863ZM48.2354 10.2798L49.835 5.13184H51.0918L48.3306 13.0601C47.9032 14.2026 47.224 14.7739 46.293 14.7739L46.0708 14.7549L45.6328 14.6724V13.7202L45.9502 13.7456C46.348 13.7456 46.6569 13.6652 46.877 13.5044C47.1012 13.3436 47.2853 13.0495 47.4292 12.6221L47.6895 11.9238L45.2393 5.13184H46.5215L48.2354 10.2798ZM54.4497 7.63916L55.9731 5.13184H57.3442L55.0972 8.52783L57.4141 12H56.0557L54.4688 9.4292L52.8818 12H51.5171L53.834 8.52783L51.5869 5.13184H52.9453L54.4497 7.63916ZM64.2061 12H63.0317V9.06738H59.877V12H58.6963V5.13184H59.877V8.10889H63.0317V5.13184H64.2061V12ZM70.541 5.13184H71.7153V12H70.541V6.9917L67.3735 12H66.1992V5.13184H67.3735V10.1465L70.541 5.13184Z" fill="#686868"/>
<path d="M10 2V9.875H3V16H17V2H10ZM10 15.125H3.875V10.75H10V15.125ZM16.125 15.125H10.875V6.375H16.125V15.125ZM16.125 5.5H10.875V2.875H16.125V5.5Z" fill="#686868"/>
<path d="M9.125 4.88137L8.25 4.00637V2H7.375V4.36862L8.25 5.24362V5.5H4.75V5.24362L5.625 4.36862V2H4.75V4.00637L3.875 4.88137V6.375H9.125V4.88137Z" fill="#686868"/>
<path d="M8.25 11.625H5.625V12.5H8.25V11.625Z" fill="#686868"/>
<path d="M12.625 3.75H11.75V4.625H12.625V3.75Z" fill="#686868"/>
<path d="M12.625 8.125H11.75V10.75H12.625V8.125Z" fill="#686868"/>
<path d="M4.75 7.25H3.875V8.125H4.75V7.25Z" fill="#686868"/>
<path d="M6.9375 7.25H6.0625V8.125H6.9375V7.25Z" fill="#686868"/>
<path d="M9.125 7.25H8.25V8.125H9.125V7.25Z" fill="#686868"/>
<path d="M44.8711 55.0674C44.7568 56.0449 44.395 56.8003 43.7856 57.3335C43.1805 57.8625 42.3743 58.127 41.3672 58.127C40.2754 58.127 39.3994 57.7355 38.7393 56.9526C38.0833 56.1698 37.7554 55.1224 37.7554 53.8105V52.9219C37.7554 52.0628 37.9077 51.3075 38.2124 50.6558C38.5213 50.0041 38.9572 49.5047 39.52 49.1577C40.0828 48.8065 40.7345 48.6309 41.4751 48.6309C42.4569 48.6309 43.244 48.9059 43.8364 49.4561C44.4289 50.002 44.7738 50.7594 44.8711 51.7285H43.646C43.5402 50.9922 43.3096 50.459 42.9541 50.1289C42.6029 49.7988 42.1099 49.6338 41.4751 49.6338C40.6965 49.6338 40.085 49.9215 39.6406 50.4971C39.2005 51.0726 38.9805 51.8914 38.9805 52.9536V53.8486C38.9805 54.8516 39.1899 55.6493 39.6089 56.2417C40.0278 56.8341 40.6139 57.1304 41.3672 57.1304C42.0443 57.1304 42.5627 56.978 42.9224 56.6733C43.2863 56.3644 43.5275 55.8291 43.646 55.0674H44.8711ZM51.9741 58H50.7998V52.103H47.6387V58H46.458V51.1318H51.9741V58ZM58.0996 58C58.0319 57.8646 57.9769 57.6234 57.9346 57.2764C57.3887 57.8434 56.737 58.127 55.9795 58.127C55.3024 58.127 54.7459 57.9365 54.3101 57.5557C53.8784 57.1706 53.6626 56.6839 53.6626 56.0957C53.6626 55.3805 53.9334 54.8262 54.4751 54.4326C55.021 54.0348 55.7869 53.8359 56.7729 53.8359H57.9155V53.2964C57.9155 52.8859 57.7928 52.5601 57.5474 52.3188C57.3019 52.0734 56.9401 51.9507 56.4619 51.9507C56.043 51.9507 55.6917 52.0565 55.4082 52.2681C55.1247 52.4797 54.9829 52.7357 54.9829 53.0361H53.8022C53.8022 52.6934 53.9229 52.3633 54.1641 52.0459C54.4095 51.7243 54.7396 51.4704 55.1543 51.2842C55.5732 51.098 56.0324 51.0049 56.5317 51.0049C57.3231 51.0049 57.943 51.2038 58.3916 51.6016C58.8402 51.9951 59.0729 52.5389 59.0898 53.2329V56.394C59.0898 57.0246 59.1702 57.526 59.3311 57.8984V58H58.0996ZM56.1509 57.105C56.519 57.105 56.8682 57.0098 57.1982 56.8193C57.5283 56.6289 57.7674 56.3813 57.9155 56.0767V54.6675H56.9951C55.5563 54.6675 54.8369 55.0885 54.8369 55.9307C54.8369 56.2988 54.9596 56.5866 55.2051 56.7939C55.4505 57.0013 55.7658 57.105 56.1509 57.105ZM66.561 51.1318V58H65.3804V52.103H63.0444L62.9048 54.6738C62.8286 55.8545 62.6297 56.6987 62.3081 57.2065C61.9907 57.7144 61.485 57.9788 60.791 58H60.3213V56.9653L60.6577 56.9399C61.0386 56.8976 61.3115 56.6776 61.4766 56.2798C61.6416 55.882 61.7474 55.1457 61.7939 54.0708L61.9209 51.1318H66.561ZM69.7285 53.4995H71.5122C72.2909 53.508 72.9066 53.7111 73.3594 54.1089C73.8122 54.5067 74.0386 55.0462 74.0386 55.7275C74.0386 56.4131 73.8058 56.9632 73.3403 57.3779C72.8748 57.7926 72.2485 58 71.4614 58H68.5542V51.1318H69.7285V53.4995ZM69.7285 54.458V57.0415H71.4741C71.9142 57.0415 72.2549 56.9294 72.4961 56.7051C72.7373 56.4766 72.8579 56.1655 72.8579 55.772C72.8579 55.3911 72.7394 55.0801 72.5024 54.8389C72.2697 54.5934 71.9417 54.4665 71.5186 54.458H69.7285ZM81.1162 58H79.9419V55.0674H76.7871V58H75.6064V51.1318H76.7871V54.1089H79.9419V51.1318H81.1162V58ZM87.4512 51.1318H88.6255V58H87.4512V52.9917L84.2837 58H83.1094V51.1318H84.2837V56.1465L87.4512 51.1318Z" fill="#686868"/>
<path d="M18.6432 54.9694C18.6432 54.3858 18.3239 53.86 17.8098 53.5971C17.2856 53.329 16.6068 53.1931 15.7923 53.1931H6.93884C6.87509 52.875 6.73384 52.5859 6.52195 52.3504L5.26642 50.9547C4.95573 50.6093 4.50928 50.3996 4.00934 50.3642L3.7838 50.3482C3.66833 50.3399 3.551 50.3562 3.43838 50.394V49.6562C3.43838 49.3978 3.32953 49.1644 3.15551 48.999C3.33197 48.7875 3.43838 48.5155 3.43838 48.2192C3.43838 47.5469 2.89144 47 2.21921 47C1.54697 47 1 47.5469 1 48.2192C1 48.5156 1.10641 48.7875 1.28288 48.999C1.10886 49.1644 1 49.3978 1 49.6562V60.6554C1 60.8457 1.15427 61 1.34459 61H2.53396C2.7117 61 2.86029 60.8648 2.87704 60.6878C2.91808 60.2538 3.14755 59.0621 3.71606 58.5277H4.63878C4.8291 58.5277 4.98337 58.3734 4.98337 58.1831C4.98337 57.9928 4.8291 57.8385 4.63878 57.8385L1.68915 57.8385V54.8048L6.28866 54.8047V55.7027C6.28866 56.234 6.72088 56.6662 7.25221 56.6662H17.6797C17.7722 56.6662 17.8653 56.6528 17.954 56.6264V57.8385H16.0551C16.0548 57.8385 16.0545 57.8385 16.0542 57.8385H7.67086C7.48054 57.8385 7.32627 57.9928 7.32627 58.1831C7.32627 58.3734 7.48054 58.5277 7.67086 58.5277H15.9272C16.4934 59.0607 16.7244 60.2535 16.7662 60.6878C16.783 60.8648 16.9315 61 17.1093 61H18.2986C18.4889 61 18.6432 60.8457 18.6432 60.6554V54.9694ZM3.43921 51.5207C3.44434 51.3739 3.42422 51.2222 3.54521 51.1142C3.66692 51.0056 3.81292 51.0412 3.96068 51.0517C4.28626 51.0747 4.56059 51.2005 4.75401 51.4156L6.00954 52.8113C6.21306 53.0375 6.31068 53.3528 6.28439 53.699C6.27429 53.8323 6.2767 53.9505 6.16436 54.0445C6.06171 54.1305 5.9503 54.1145 5.82673 54.1108C5.47966 54.1004 5.17645 53.97 4.97293 53.7438L3.7174 52.3481C3.51433 52.1223 3.42873 51.8205 3.43921 51.5207ZM1.68919 54.1156V49.6562C1.68919 49.5361 1.78692 49.4384 1.90704 49.4384H2.53127C2.6514 49.4384 2.74913 49.5361 2.74913 49.6562V54.1155L1.68919 54.1156ZM3.43835 53.0683L4.3804 54.1156H3.43835V53.0683ZM2.21917 47.6892C2.51139 47.6892 2.74916 47.927 2.74916 48.2192C2.74916 48.5115 2.51142 48.7492 2.21917 48.7492C1.92692 48.7492 1.68919 48.5115 1.68919 48.2192C1.68919 47.927 1.92692 47.6892 2.21917 47.6892ZM2.23372 60.3108H1.68919V58.5277H2.84468C2.47176 59.1382 2.30312 59.8934 2.23372 60.3108ZM7.25225 55.9771C7.10101 55.9771 6.97795 55.854 6.97795 55.7028L6.97781 53.8823H15.7923C16.4966 53.8823 17.0698 53.9928 17.496 54.2107C17.7785 54.3552 17.954 54.6459 17.954 54.9694V55.7015C17.954 55.7019 17.954 55.7023 17.954 55.7028C17.954 55.854 17.8309 55.9771 17.6797 55.9771L7.25225 55.9771ZM17.4095 60.3108C17.3401 59.8934 17.1715 59.1382 16.7986 58.5277H17.954V60.3108H17.4095Z" fill="#686868"/>
<path d="M6.47316 58.0514C6.40186 57.8776 6.19611 57.7935 6.02312 57.865C5.84951 57.9367 5.76484 58.1415 5.83669 58.315C5.9085 58.4885 6.1133 58.5733 6.28673 58.5015C6.45983 58.4297 6.54522 58.2245 6.47316 58.0514Z" fill="#686868"/>
<path d="M43.8047 94.7607H39.3486V103H38.1235V93.7578H43.8047V94.7607ZM43.6206 99.5024C43.6206 98.8296 43.7518 98.2244 44.0142 97.687C44.2808 97.1496 44.6489 96.7349 45.1187 96.4429C45.5926 96.1509 46.1322 96.0049 46.7373 96.0049C47.6725 96.0049 48.4279 96.3286 49.0034 96.9761C49.5832 97.6235 49.873 98.4847 49.873 99.5596V99.6421C49.873 100.311 49.744 100.912 49.4858 101.445C49.2319 101.974 48.8659 102.386 48.3877 102.683C47.9137 102.979 47.3678 103.127 46.75 103.127C45.819 103.127 45.0636 102.803 44.4839 102.156C43.9084 101.508 43.6206 100.651 43.6206 99.585V99.5024ZM44.8013 99.6421C44.8013 100.404 44.9769 101.015 45.3281 101.477C45.6836 101.938 46.1576 102.168 46.75 102.168C47.3467 102.168 47.8206 101.936 48.1719 101.47C48.5231 101 48.6987 100.345 48.6987 99.5024C48.6987 98.7492 48.5189 98.1398 48.1592 97.6743C47.8037 97.2046 47.3298 96.9697 46.7373 96.9697C46.1576 96.9697 45.6899 97.2004 45.3345 97.6616C44.979 98.1229 44.8013 98.783 44.8013 99.6421ZM54.1006 102.168C54.5195 102.168 54.8856 102.042 55.1987 101.788C55.5119 101.534 55.6854 101.216 55.7192 100.835H56.8301C56.8089 101.229 56.6735 101.604 56.4238 101.959C56.1742 102.314 55.8398 102.598 55.4209 102.81C55.0062 103.021 54.5661 103.127 54.1006 103.127C53.1654 103.127 52.4206 102.816 51.8662 102.194C51.3161 101.568 51.041 100.713 51.041 99.6294V99.4326C51.041 98.764 51.1637 98.1694 51.4092 97.6489C51.6546 97.1284 52.0059 96.7243 52.4629 96.4365C52.9242 96.1488 53.4679 96.0049 54.0942 96.0049C54.8644 96.0049 55.5034 96.2355 56.0112 96.6968C56.5233 97.158 56.7962 97.7568 56.8301 98.4932H55.7192C55.6854 98.0488 55.5161 97.6849 55.2114 97.4014C54.911 97.1136 54.5386 96.9697 54.0942 96.9697C53.4976 96.9697 53.0342 97.1855 52.7041 97.6172C52.3783 98.0446 52.2153 98.6646 52.2153 99.4771V99.6992C52.2153 100.491 52.3783 101.1 52.7041 101.527C53.0299 101.955 53.4954 102.168 54.1006 102.168ZM63.2539 97.084H60.9497V103H59.7754V97.084H57.5156V96.1318H63.2539V97.084ZM68.8398 96.1318H70.0142V103H68.8398V97.9917L65.6724 103H64.498V96.1318H65.6724V101.146L68.8398 96.1318ZM77.5107 103H76.3364V100.067H73.1816V103H72.001V96.1318H73.1816V99.1089H76.3364V96.1318H77.5107V103ZM85.0137 103H83.8394V100.067H80.6846V103H79.5039V96.1318H80.6846V99.1089H83.8394V96.1318H85.0137V103ZM88.1875 98.4995H89.9712C90.7498 98.508 91.3656 98.7111 91.8184 99.1089C92.2712 99.5067 92.4976 100.046 92.4976 100.728C92.4976 101.413 92.2648 101.963 91.7993 102.378C91.3338 102.793 90.7075 103 89.9204 103H87.0132V96.1318H88.1875V98.4995ZM94.9478 103H93.7671V96.1318H94.9478V103ZM88.1875 99.458V102.042H89.9331C90.3732 102.042 90.7139 101.929 90.9551 101.705C91.1963 101.477 91.3169 101.166 91.3169 100.772C91.3169 100.391 91.1984 100.08 90.9614 99.8389C90.7287 99.5934 90.4007 99.4665 89.9775 99.458H88.1875ZM99.8481 103.127C98.9172 103.127 98.1597 102.822 97.5757 102.213C96.9917 101.599 96.6997 100.78 96.6997 99.7563V99.5405C96.6997 98.8592 96.8288 98.252 97.0869 97.7188C97.3493 97.1813 97.7132 96.7624 98.1787 96.4619C98.6484 96.1572 99.1562 96.0049 99.7021 96.0049C100.595 96.0049 101.289 96.299 101.784 96.8872C102.279 97.4754 102.527 98.3175 102.527 99.4136V99.9023H97.874C97.891 100.579 98.0877 101.127 98.4644 101.546C98.8452 101.961 99.3276 102.168 99.9116 102.168C100.326 102.168 100.678 102.084 100.965 101.915C101.253 101.745 101.505 101.521 101.721 101.242L102.438 101.8C101.862 102.685 100.999 103.127 99.8481 103.127ZM99.7021 96.9697C99.2282 96.9697 98.8304 97.1432 98.5088 97.4902C98.1872 97.833 97.9883 98.3154 97.9121 98.9375H101.353V98.8486C101.319 98.252 101.158 97.7907 100.87 97.4648C100.582 97.1348 100.193 96.9697 99.7021 96.9697Z" fill="#686868"/>
<path d="M19.766 103.128H18.8723V101.34H19.4681C19.6326 101.34 19.7659 101.207 19.7658 101.042C19.7658 101.026 19.7645 101.01 19.7618 100.994L19.4639 99.2065C19.44 99.0628 19.3158 98.9575 19.1702 98.9574H17.9787C17.8331 98.9575 17.7089 99.0628 17.685 99.2065L17.3871 100.994C17.3602 101.156 17.4698 101.309 17.6321 101.336C17.6482 101.339 17.6645 101.34 17.6809 101.34H18.2766V103.128H17.0851C17.0751 103.129 17.0651 103.131 17.0553 103.134C16.9155 102.438 16.3051 101.937 15.5957 101.936H15V101.043C15 100.549 14.5999 100.149 14.1064 100.149H11.7234C11.2299 100.149 10.8298 100.549 10.8298 101.043V101.936H10.234V101.043C10.234 100.549 9.83396 100.149 9.34043 100.149H6.95745C6.46391 100.149 6.06383 100.549 6.06383 101.043V101.936H5.46808C4.7587 101.937 4.14836 102.438 4.00851 103.134C3.99872 103.131 3.98878 103.129 3.97872 103.128H2.78723V101.34H3.38298C3.54748 101.34 3.68078 101.207 3.6807 101.042C3.6807 101.026 3.67936 101.01 3.67668 100.994L3.37881 99.2065C3.35494 99.0628 3.23073 98.9575 3.08511 98.9574H1.89362C1.74799 98.9575 1.62378 99.0628 1.59991 99.2065L1.30204 100.994C1.27505 101.156 1.38474 101.309 1.54704 101.336C1.56313 101.339 1.57944 101.34 1.59574 101.34H2.19149V103.128H1.29787C1.13337 103.128 1 103.261 1 103.426V106.702C1 106.867 1.13337 107 1.29787 107H19.766C19.9305 107 20.0638 106.867 20.0638 106.702V103.426C20.0638 103.261 19.9305 103.128 19.766 103.128ZM1.94753 100.745L2.14591 99.5532H2.83281L3.03119 100.745H1.94753ZM3.68085 106.404H1.59574V103.723H3.68085V106.404ZM11.4255 101.043C11.4255 100.878 11.5589 100.745 11.7234 100.745H14.1064C14.2709 100.745 14.4043 100.878 14.4043 101.043V101.936H11.4255V101.043ZM6.65957 101.043C6.65957 100.878 6.79295 100.745 6.95745 100.745H9.34043C9.50493 100.745 9.6383 100.878 9.6383 101.043V101.936H6.65957V101.043ZM16.4894 106.404H4.57447V105.511H16.4894V106.404ZM16.4894 104.915H4.57447V103.426C4.57447 102.932 4.97455 102.532 5.46808 102.532H15.5957C16.0893 102.532 16.4894 102.932 16.4894 103.426V104.915ZM18.0326 100.745L18.231 99.5532H18.9179L19.1163 100.745H18.0326ZM19.4681 106.404H17.383V103.723H19.4681V106.404Z" fill="#686868"/>
<path d="M6.95745 98.3617H13.5106C13.6751 98.3617 13.8085 98.2283 13.8085 98.0638V93.2979C13.8085 93.1334 13.6751 93 13.5106 93H6.95745C6.79295 93 6.65957 93.1334 6.65957 93.2979V98.0638C6.65957 98.2283 6.79295 98.3617 6.95745 98.3617ZM7.25532 93.5957H13.2128V96.6186L12.5518 95.7926C12.499 95.7263 12.4204 95.6857 12.3358 95.6809C12.2513 95.6771 12.1691 95.7085 12.1086 95.7675L11.1277 96.749L9.25315 94.8745C9.14312 94.7646 8.96704 94.7579 8.84894 94.859L7.25532 96.2251V93.5957ZM7.25532 97.0091L9.02677 95.4899L10.9171 97.3799C11.0334 97.4962 11.2219 97.4962 11.3383 97.3799L12.2944 96.4237L13.2128 97.5729V97.766H7.25532V97.0091Z" fill="#686868"/>
<path d="M11.4255 95.6809C11.9191 95.6809 12.3191 95.2808 12.3191 94.7872C12.3191 94.2937 11.9191 93.8936 11.4255 93.8936C10.932 93.8936 10.5319 94.2937 10.5319 94.7872C10.5319 95.2808 10.932 95.6809 11.4255 95.6809ZM11.4255 94.4894C11.59 94.4894 11.7234 94.6227 11.7234 94.7872C11.7234 94.9517 11.59 95.0851 11.4255 95.0851C11.261 95.0851 11.1277 94.9517 11.1277 94.7872C11.1277 94.6227 11.261 94.4894 11.4255 94.4894Z" fill="#686868"/>
<path d="M45.1313 149H43.9062V140.761H39.3486V149H38.1299V139.758H45.1313V149ZM52.9707 145.642C52.9707 146.687 52.7316 147.529 52.2534 148.168C51.7752 148.807 51.1278 149.127 50.311 149.127C49.4774 149.127 48.8215 148.862 48.3433 148.333V151.641H47.1689V142.132H48.2417L48.2988 142.894C48.777 142.301 49.4414 142.005 50.292 142.005C51.1172 142.005 51.7689 142.316 52.2471 142.938C52.7295 143.56 52.9707 144.425 52.9707 145.534V145.642ZM51.7964 145.509C51.7964 144.734 51.6313 144.123 51.3013 143.674C50.9712 143.226 50.5184 143.001 49.9429 143.001C49.2319 143.001 48.6987 143.317 48.3433 143.947V147.229C48.6945 147.855 49.2319 148.168 49.9556 148.168C50.5184 148.168 50.9648 147.946 51.2949 147.502C51.6292 147.053 51.7964 146.389 51.7964 145.509ZM58.9121 142.132H60.0864V149H58.9121V143.992L55.7446 149H54.5703V142.132H55.7446V147.146L58.9121 142.132ZM64.2759 144.639L65.7993 142.132H67.1704L64.9233 145.528L67.2402 149H65.8818L64.2949 146.429L62.708 149H61.3433L63.6602 145.528L61.4131 142.132H62.7715L64.2759 144.639ZM67.9829 145.502C67.9829 144.83 68.1141 144.224 68.3765 143.687C68.6431 143.15 69.0112 142.735 69.481 142.443C69.9549 142.151 70.4945 142.005 71.0996 142.005C72.0348 142.005 72.7902 142.329 73.3657 142.976C73.9455 143.624 74.2354 144.485 74.2354 145.56V145.642C74.2354 146.311 74.1063 146.912 73.8481 147.445C73.5942 147.974 73.2282 148.386 72.75 148.683C72.276 148.979 71.7301 149.127 71.1123 149.127C70.1813 149.127 69.4259 148.803 68.8462 148.156C68.2707 147.508 67.9829 146.651 67.9829 145.585V145.502ZM69.1636 145.642C69.1636 146.404 69.3392 147.015 69.6904 147.477C70.0459 147.938 70.5199 148.168 71.1123 148.168C71.709 148.168 72.1829 147.936 72.5342 147.47C72.8854 147 73.061 146.345 73.061 145.502C73.061 144.749 72.8812 144.14 72.5215 143.674C72.166 143.205 71.6921 142.97 71.0996 142.97C70.5199 142.97 70.0522 143.2 69.6968 143.662C69.3413 144.123 69.1636 144.783 69.1636 145.642ZM81.0464 146.017H80.2212V149H79.0469V146.017H78.2217L76.2983 149H74.813L77.2695 145.445L75.0479 142.132H76.4697L78.2407 144.976H79.0469V142.132H80.2212V144.976H81.021L82.8047 142.132H84.2266L81.9985 145.452L84.4551 149H82.9697L81.0464 146.017ZM89.9648 142.132H91.1392V149H89.9648V143.992L86.7974 149H85.623V142.132H86.7974V147.146L89.9648 142.132ZM95.8745 149.127C94.9435 149.127 94.186 148.822 93.6021 148.213C93.0181 147.599 92.7261 146.78 92.7261 145.756V145.541C92.7261 144.859 92.8551 144.252 93.1133 143.719C93.3757 143.181 93.7396 142.762 94.2051 142.462C94.6748 142.157 95.1826 142.005 95.7285 142.005C96.6214 142.005 97.3154 142.299 97.8105 142.887C98.3057 143.475 98.5532 144.318 98.5532 145.414V145.902H93.9004C93.9173 146.579 94.1141 147.127 94.4907 147.546C94.8716 147.961 95.354 148.168 95.938 148.168C96.3527 148.168 96.7039 148.084 96.9917 147.915C97.2795 147.745 97.5312 147.521 97.7471 147.242L98.4644 147.8C97.8888 148.685 97.0256 149.127 95.8745 149.127ZM95.7285 142.97C95.2546 142.97 94.8568 143.143 94.5352 143.49C94.2135 143.833 94.0146 144.315 93.9385 144.938H97.3789V144.849C97.3451 144.252 97.1842 143.791 96.8965 143.465C96.6087 143.135 96.2194 142.97 95.7285 142.97Z" fill="#686868"/>
<path d="M16.5352 139H3.41016C3.18364 139 3 139.184 3 139.41C3 139.637 3.18364 139.82 3.41016 139.82H3.4375V152.59C3.4375 152.816 3.62114 153 3.84766 153C4.07417 153 4.25781 152.816 4.25781 152.59V152.344H15.6875V152.59C15.6875 152.816 15.8711 153 16.0977 153C16.3242 153 16.5078 152.816 16.5078 152.59V139.82H16.5352C16.7617 139.82 16.9453 139.637 16.9453 139.41C16.9453 139.184 16.7617 139 16.5352 139ZM10.3828 147.504H15.6875V149.09H10.3828V147.504ZM15.6875 146.684H10.3828V145.098H15.6875V146.684ZM9.5625 151.523H7.32031V139.82H9.5625V151.523ZM4.25781 139.82H6.5V151.523H4.25781V139.82ZM10.3828 151.523V149.91H15.6875V151.523H10.3828ZM15.6875 144.277H10.3828V139.82H15.6875V144.277Z" fill="#686868"/>
<path d="M8.44141 146.41C8.66793 146.41 8.85156 146.227 8.85156 146C8.85156 145.773 8.66793 145.59 8.44141 145.59C8.21488 145.59 8.03125 145.773 8.03125 146C8.03125 146.227 8.21488 146.41 8.44141 146.41Z" fill="#686868"/>
<path d="M5.37891 146.41C5.60543 146.41 5.78906 146.227 5.78906 146C5.78906 145.774 5.60543 145.59 5.37891 145.59C5.15238 145.59 4.96875 145.774 4.96875 146C4.96875 146.227 5.15238 146.41 5.37891 146.41Z" fill="#686868"/>
<path d="M45.1821 190.677C45.1821 191.583 45.0298 192.374 44.7251 193.051C44.4204 193.724 43.9888 194.238 43.4302 194.594C42.8716 194.949 42.2199 195.127 41.4751 195.127C40.7472 195.127 40.1019 194.949 39.5391 194.594C38.9762 194.234 38.5382 193.724 38.2251 193.064C37.9162 192.4 37.7575 191.632 37.749 190.76V190.093C37.749 189.205 37.9035 188.42 38.2124 187.738C38.5213 187.057 38.9572 186.536 39.52 186.177C40.0871 185.813 40.7345 185.631 41.4624 185.631C42.203 185.631 42.8547 185.811 43.4175 186.17C43.9845 186.526 44.4204 187.044 44.7251 187.726C45.0298 188.403 45.1821 189.192 45.1821 190.093V190.677ZM43.9697 190.081C43.9697 188.985 43.7497 188.145 43.3096 187.561C42.8695 186.972 42.2537 186.678 41.4624 186.678C40.6922 186.678 40.085 186.972 39.6406 187.561C39.2005 188.145 38.9741 188.957 38.9614 189.998V190.677C38.9614 191.739 39.1836 192.575 39.6279 193.185C40.0765 193.79 40.6922 194.092 41.4751 194.092C42.2622 194.092 42.8716 193.807 43.3032 193.235C43.7349 192.66 43.957 191.837 43.9697 190.766V190.081ZM46.5723 191.693C46.5723 190.546 46.7944 189.645 47.2388 188.989C47.6831 188.333 48.2925 188.005 49.0669 188.005C49.4266 188.005 49.7419 188.066 50.0127 188.189V185.25H51.187V188.227C51.4832 188.079 51.8302 188.005 52.228 188.005C53.0067 188.005 53.6182 188.333 54.0625 188.989C54.5068 189.645 54.729 190.59 54.729 191.826C54.729 192.838 54.5068 193.642 54.0625 194.238C53.6224 194.835 53.0151 195.133 52.2407 195.133C51.8302 195.133 51.479 195.066 51.187 194.93V197.641H50.0127V194.949C49.7334 195.072 49.4139 195.133 49.0542 195.133C48.284 195.133 47.6768 194.835 47.2324 194.238C46.7923 193.642 46.5723 192.825 46.5723 191.788V191.693ZM53.5547 191.693C53.5547 190.83 53.4066 190.161 53.1104 189.687C52.8141 189.209 52.4058 188.97 51.8853 188.97C51.6187 188.97 51.3859 189.012 51.187 189.097V194.067C51.3774 194.139 51.6144 194.175 51.8979 194.175C52.4227 194.175 52.8289 193.972 53.1167 193.565C53.4087 193.159 53.5547 192.535 53.5547 191.693ZM47.7466 191.826C47.7466 192.596 47.8841 193.18 48.1592 193.578C48.4342 193.976 48.8299 194.175 49.3462 194.175C49.5916 194.175 49.8138 194.137 50.0127 194.061V189.078C49.835 189.006 49.617 188.97 49.3589 188.97C48.8426 188.97 48.4448 189.2 48.1655 189.662C47.8862 190.123 47.7466 190.844 47.7466 191.826ZM60.7021 188.132H61.8765V195H60.7021V189.992L57.5347 195H56.3604V188.132H57.5347V193.146L60.7021 188.132ZM66.5166 194.168C66.9355 194.168 67.3016 194.042 67.6147 193.788C67.9279 193.534 68.1014 193.216 68.1353 192.835H69.2461C69.2249 193.229 69.0895 193.604 68.8398 193.959C68.5902 194.314 68.2559 194.598 67.8369 194.81C67.4222 195.021 66.9821 195.127 66.5166 195.127C65.5814 195.127 64.8366 194.816 64.2822 194.194C63.7321 193.568 63.457 192.713 63.457 191.629V191.433C63.457 190.764 63.5798 190.169 63.8252 189.649C64.0706 189.128 64.4219 188.724 64.8789 188.437C65.3402 188.149 65.884 188.005 66.5103 188.005C67.2804 188.005 67.9194 188.236 68.4272 188.697C68.9393 189.158 69.2122 189.757 69.2461 190.493H68.1353C68.1014 190.049 67.9321 189.685 67.6274 189.401C67.327 189.114 66.9546 188.97 66.5103 188.97C65.9136 188.97 65.4502 189.186 65.1201 189.617C64.7943 190.045 64.6313 190.665 64.6313 191.477V191.699C64.6313 192.491 64.7943 193.1 65.1201 193.527C65.446 193.955 65.9115 194.168 66.5166 194.168ZM76.1777 195H75.0034V192.067H71.8486V195H70.668V188.132H71.8486V191.109H75.0034V188.132H76.1777V195ZM82.3096 195C82.2419 194.865 82.1868 194.623 82.1445 194.276C81.5986 194.843 80.9469 195.127 80.1895 195.127C79.5124 195.127 78.9559 194.937 78.52 194.556C78.0884 194.171 77.8726 193.684 77.8726 193.096C77.8726 192.381 78.1434 191.826 78.6851 191.433C79.231 191.035 79.9969 190.836 80.9829 190.836H82.1255V190.296C82.1255 189.886 82.0028 189.56 81.7573 189.319C81.5119 189.073 81.1501 188.951 80.6719 188.951C80.2529 188.951 79.9017 189.056 79.6182 189.268C79.3346 189.48 79.1929 189.736 79.1929 190.036H78.0122C78.0122 189.693 78.1328 189.363 78.374 189.046C78.6195 188.724 78.9495 188.47 79.3643 188.284C79.7832 188.098 80.2424 188.005 80.7417 188.005C81.533 188.005 82.153 188.204 82.6016 188.602C83.0501 188.995 83.2829 189.539 83.2998 190.233V193.394C83.2998 194.025 83.3802 194.526 83.541 194.898V195H82.3096ZM80.3608 194.105C80.729 194.105 81.0781 194.01 81.4082 193.819C81.7383 193.629 81.9774 193.381 82.1255 193.077V191.667H81.2051C79.7663 191.667 79.0469 192.089 79.0469 192.931C79.0469 193.299 79.1696 193.587 79.415 193.794C79.6605 194.001 79.9757 194.105 80.3608 194.105ZM90.3901 188.132V195H89.2095V192.328H87.4385L85.8198 195H84.5503L86.2769 192.15C85.8368 191.989 85.4982 191.742 85.2612 191.407C85.0285 191.069 84.9121 190.675 84.9121 190.227C84.9121 189.6 85.147 189.097 85.6167 188.716C86.0864 188.331 86.7148 188.136 87.502 188.132H90.3901ZM86.0928 190.239C86.0928 190.574 86.207 190.844 86.4355 191.052C86.6641 191.255 86.9666 191.359 87.3433 191.363H89.2095V189.084H87.521C87.0851 189.084 86.7381 189.192 86.48 189.408C86.2218 189.619 86.0928 189.896 86.0928 190.239ZM99.4546 193.445L101.791 188.132H103.257V195H102.083V190.004L99.8608 195H99.0483L96.7822 189.896V195H95.6079V188.132H97.1313L99.4546 193.445ZM107.999 195.127C107.068 195.127 106.31 194.822 105.726 194.213C105.142 193.599 104.85 192.78 104.85 191.756V191.541C104.85 190.859 104.979 190.252 105.237 189.719C105.5 189.181 105.864 188.762 106.329 188.462C106.799 188.157 107.307 188.005 107.853 188.005C108.745 188.005 109.439 188.299 109.935 188.887C110.43 189.475 110.677 190.318 110.677 191.414V191.902H106.024C106.041 192.579 106.238 193.127 106.615 193.546C106.996 193.961 107.478 194.168 108.062 194.168C108.477 194.168 108.828 194.084 109.116 193.915C109.403 193.745 109.655 193.521 109.871 193.242L110.588 193.8C110.013 194.685 109.15 195.127 107.999 195.127ZM107.853 188.97C107.379 188.97 106.981 189.143 106.659 189.49C106.338 189.833 106.139 190.315 106.062 190.938H109.503V190.849C109.469 190.252 109.308 189.791 109.021 189.465C108.733 189.135 108.343 188.97 107.853 188.97ZM115.057 188.525C115.92 188.525 116.61 188.815 117.126 189.395C117.647 189.971 117.907 190.73 117.907 191.674V191.782C117.907 192.429 117.782 193.009 117.533 193.521C117.283 194.029 116.923 194.424 116.454 194.708C115.988 194.987 115.451 195.127 114.841 195.127C113.919 195.127 113.176 194.82 112.613 194.207C112.05 193.589 111.769 192.761 111.769 191.725V191.153C111.769 189.71 112.036 188.563 112.569 187.713C113.106 186.862 113.898 186.344 114.943 186.158C115.535 186.052 115.935 185.923 116.143 185.771C116.35 185.618 116.454 185.409 116.454 185.142H117.418C117.418 185.671 117.298 186.084 117.057 186.38C116.82 186.676 116.439 186.886 115.914 187.008L115.038 187.205C114.34 187.37 113.815 187.649 113.464 188.043C113.117 188.432 112.89 188.953 112.785 189.604C113.407 188.885 114.164 188.525 115.057 188.525ZM114.829 189.49C114.253 189.49 113.796 189.685 113.458 190.074C113.119 190.459 112.95 190.995 112.95 191.68V191.782C112.95 192.518 113.119 193.102 113.458 193.534C113.8 193.961 114.262 194.175 114.841 194.175C115.425 194.175 115.887 193.959 116.225 193.527C116.564 193.096 116.733 192.465 116.733 191.636C116.733 190.988 116.562 190.47 116.219 190.081C115.88 189.687 115.417 189.49 114.829 189.49ZM122.078 195.127C121.147 195.127 120.389 194.822 119.805 194.213C119.221 193.599 118.929 192.78 118.929 191.756V191.541C118.929 190.859 119.058 190.252 119.316 189.719C119.579 189.181 119.943 188.762 120.408 188.462C120.878 188.157 121.386 188.005 121.932 188.005C122.825 188.005 123.519 188.299 124.014 188.887C124.509 189.475 124.756 190.318 124.756 191.414V191.902H120.104C120.12 192.579 120.317 193.127 120.694 193.546C121.075 193.961 121.557 194.168 122.141 194.168C122.556 194.168 122.907 194.084 123.195 193.915C123.483 193.745 123.734 193.521 123.95 193.242L124.667 193.8C124.092 194.685 123.229 195.127 122.078 195.127ZM121.932 188.97C121.458 188.97 121.06 189.143 120.738 189.49C120.417 189.833 120.218 190.315 120.142 190.938H123.582V190.849C123.548 190.252 123.387 189.791 123.1 189.465C122.812 189.135 122.423 188.97 121.932 188.97ZM131.751 188.132V195H130.571V189.103H128.235L128.095 191.674C128.019 192.854 127.82 193.699 127.499 194.207C127.181 194.714 126.675 194.979 125.981 195H125.512V193.965L125.848 193.94C126.229 193.898 126.502 193.678 126.667 193.28C126.832 192.882 126.938 192.146 126.984 191.071L127.111 188.132H131.751ZM134.919 190.5H136.703C137.481 190.508 138.097 190.711 138.55 191.109C139.003 191.507 139.229 192.046 139.229 192.728C139.229 193.413 138.996 193.963 138.531 194.378C138.065 194.793 137.439 195 136.652 195H133.745V188.132H134.919V190.5ZM134.919 191.458V194.042H136.665C137.105 194.042 137.445 193.929 137.687 193.705C137.928 193.477 138.048 193.166 138.048 192.772C138.048 192.391 137.93 192.08 137.693 191.839C137.46 191.593 137.132 191.466 136.709 191.458H134.919Z" fill="#686868"/>
<path d="M16.5898 191.617H15.959C16.0991 191.376 16.1797 191.096 16.1797 190.797V189.566C16.1797 189.34 15.996 189.156 15.7695 189.156H14.9928C15.2291 188.055 16.3496 187.452 16.3689 187.442C16.5694 187.338 16.6479 187.091 16.544 186.89C16.4401 186.689 16.1926 186.61 15.9914 186.714C15.9511 186.735 15.43 187.01 14.9492 187.543V186.258C14.9492 186.031 14.7656 185.848 14.5391 185.848C14.3125 185.848 14.1289 186.031 14.1289 186.258V187.543C13.6481 187.01 13.127 186.735 13.0867 186.714C12.8854 186.61 12.638 186.689 12.5341 186.89C12.4301 187.091 12.5089 187.339 12.7101 187.443C12.7229 187.449 13.8503 188.045 14.0859 189.156H13.3086C13.0821 189.156 12.8984 189.34 12.8984 189.566V190.797C12.8984 191.096 12.9791 191.376 13.1192 191.617H9.43316L9.02301 190.797H10.8477C11.0742 190.797 11.2578 190.613 11.2578 190.387V185.41C11.2578 185.184 11.0742 185 10.8477 185H4.23047C4.00395 185 3.82031 185.184 3.82031 185.41V190.387C3.82031 190.613 4.00395 190.797 4.23047 190.797H6.05512L5.64496 191.617H3.41016C3.18364 191.617 3 191.801 3 192.027C3 192.254 3.18364 192.438 3.41016 192.438H3.82031V198.59C3.82031 198.816 4.00395 199 4.23047 199C4.45698 199 4.64062 198.816 4.64062 198.59V197.359H10.4375V198.59C10.4375 198.816 10.6211 199 10.8477 199H15.7695C15.996 199 16.1797 198.816 16.1797 198.59V192.438H16.5898C16.8164 192.438 17 192.254 17 192.027C17 191.801 16.8164 191.617 16.5898 191.617ZM13.7188 190.797V189.977H15.3594V190.797C15.3594 191.249 14.9914 191.617 14.5391 191.617C14.0867 191.617 13.7188 191.249 13.7188 190.797ZM4.64062 185.82H10.4375V189.977H4.64062V185.82ZM6.97223 190.797H8.1059L8.51605 191.617H6.56207L6.97223 190.797ZM4.64062 196.539V192.438H10.4375V196.539H4.64062ZM11.2578 195.719H15.3594V198.18H11.2578V195.719ZM15.3594 194.898H11.2578V192.438H15.3594V194.898Z" fill="#686868"/>
<path d="M13.3086 194.078C13.5351 194.078 13.7188 193.894 13.7188 193.668C13.7188 193.441 13.5351 193.258 13.3086 193.258C13.0821 193.258 12.8984 193.441 12.8984 193.668C12.8984 193.894 13.0821 194.078 13.3086 194.078Z" fill="#686868"/>
<path d="M13.3086 197.359C13.5351 197.359 13.7188 197.176 13.7188 196.949C13.7188 196.723 13.5351 196.539 13.3086 196.539C13.0821 196.539 12.8984 196.723 12.8984 196.949C12.8984 197.176 13.0821 197.359 13.3086 197.359Z" fill="#686868"/>
<path d="M46.3882 243.266H45.1758V241H38.5425V243.272H37.3237L37.3174 240.003H38.0728C38.4705 239.555 38.7858 238.954 39.0186 238.201C39.2555 237.443 39.4036 236.614 39.4629 235.712L39.666 231.758H45.1948V240.003H46.4009L46.3882 243.266ZM39.4629 240.003H43.9697V232.761H40.8403L40.707 235.478C40.652 236.54 40.5103 237.445 40.2817 238.194C40.0575 238.943 39.7845 239.546 39.4629 240.003ZM50.5142 241.127C49.5832 241.127 48.8257 240.822 48.2417 240.213C47.6577 239.599 47.3657 238.78 47.3657 237.756V237.541C47.3657 236.859 47.4948 236.252 47.7529 235.719C48.0153 235.181 48.3792 234.762 48.8447 234.462C49.3145 234.157 49.8223 234.005 50.3682 234.005C51.2611 234.005 51.9551 234.299 52.4502 234.887C52.9453 235.475 53.1929 236.318 53.1929 237.414V237.902H48.54C48.557 238.579 48.7537 239.127 49.1304 239.546C49.5112 239.961 49.9937 240.168 50.5776 240.168C50.9924 240.168 51.3436 240.084 51.6313 239.915C51.9191 239.745 52.1709 239.521 52.3867 239.242L53.104 239.8C52.5285 240.685 51.6652 241.127 50.5142 241.127ZM50.3682 234.97C49.8942 234.97 49.4964 235.143 49.1748 235.49C48.8532 235.833 48.6543 236.315 48.5781 236.938H52.0186V236.849C51.9847 236.252 51.8239 235.791 51.5361 235.465C51.2484 235.135 50.859 234.97 50.3682 234.97ZM59.585 235.084H57.2808V241H56.1064V235.084H53.8467V234.132H59.585V235.084ZM62.9746 240.168C63.3936 240.168 63.7596 240.042 64.0728 239.788C64.3859 239.534 64.5594 239.216 64.5933 238.835H65.7041C65.6829 239.229 65.5475 239.604 65.2979 239.959C65.0482 240.314 64.7139 240.598 64.2949 240.81C63.8802 241.021 63.4401 241.127 62.9746 241.127C62.0394 241.127 61.2946 240.816 60.7402 240.194C60.1901 239.568 59.915 238.713 59.915 237.629V237.433C59.915 236.764 60.0378 236.169 60.2832 235.649C60.5286 235.128 60.8799 234.724 61.3369 234.437C61.7982 234.149 62.342 234.005 62.9683 234.005C63.7384 234.005 64.3774 234.236 64.8853 234.697C65.3973 235.158 65.6702 235.757 65.7041 236.493H64.5933C64.5594 236.049 64.3901 235.685 64.0854 235.401C63.785 235.114 63.4126 234.97 62.9683 234.97C62.3716 234.97 61.9082 235.186 61.5781 235.617C61.2523 236.045 61.0894 236.665 61.0894 237.477V237.699C61.0894 238.491 61.2523 239.1 61.5781 239.527C61.904 239.955 62.3695 240.168 62.9746 240.168ZM69.1636 238.074H68.3066V241H67.126V234.132H68.3066V237.039H69.0747L71.3853 234.132H72.8071L70.0903 237.433L73.0356 241H71.5439L69.1636 238.074ZM78.2852 241C78.2174 240.865 78.1624 240.623 78.1201 240.276C77.5742 240.843 76.9225 241.127 76.165 241.127C75.488 241.127 74.9315 240.937 74.4956 240.556C74.064 240.171 73.8481 239.684 73.8481 239.096C73.8481 238.381 74.119 237.826 74.6606 237.433C75.2065 237.035 75.9725 236.836 76.9585 236.836H78.1011V236.296C78.1011 235.886 77.9784 235.56 77.7329 235.319C77.4875 235.073 77.1257 234.951 76.6475 234.951C76.2285 234.951 75.8773 235.056 75.5938 235.268C75.3102 235.48 75.1685 235.736 75.1685 236.036H73.9878C73.9878 235.693 74.1084 235.363 74.3496 235.046C74.5951 234.724 74.9251 234.47 75.3398 234.284C75.7588 234.098 76.2179 234.005 76.7173 234.005C77.5086 234.005 78.1286 234.204 78.5771 234.602C79.0257 234.995 79.2585 235.539 79.2754 236.233V239.394C79.2754 240.025 79.3558 240.526 79.5166 240.898V241H78.2852ZM76.3364 240.105C76.7046 240.105 77.0537 240.01 77.3838 239.819C77.7139 239.629 77.953 239.381 78.1011 239.077V237.667H77.1807C75.7419 237.667 75.0225 238.089 75.0225 238.931C75.0225 239.299 75.1452 239.587 75.3906 239.794C75.6361 240.001 75.9513 240.105 76.3364 240.105ZM86.3657 234.132V241H85.1851V238.328H83.4141L81.7954 241H80.5259L82.2524 238.15C81.8123 237.989 81.4738 237.742 81.2368 237.407C81.0041 237.069 80.8877 236.675 80.8877 236.227C80.8877 235.6 81.1226 235.097 81.5923 234.716C82.062 234.331 82.6904 234.136 83.4775 234.132H86.3657ZM82.0684 236.239C82.0684 236.574 82.1826 236.844 82.4111 237.052C82.6396 237.255 82.9422 237.359 83.3188 237.363H85.1851V235.084H83.4966C83.0607 235.084 82.7137 235.192 82.4556 235.408C82.1974 235.619 82.0684 235.896 82.0684 236.239Z" fill="#686868"/>
<path d="M16.8821 241.662C16.724 241.501 16.4662 241.498 16.3045 241.655C16.3045 241.655 16.304 241.655 16.3032 241.656L16.302 241.655L16.3044 241.652C16.303 241.654 16.2545 241.699 16.1521 241.773V235.385C16.1521 235.158 15.9685 234.974 15.742 234.974C15.5155 234.974 15.3318 235.158 15.3318 235.385V235.79C13.8676 235.757 13.1135 235.546 12.3828 235.342C11.7082 235.153 11.071 234.974 9.99988 234.974C8.92873 234.974 8.29152 235.153 7.61693 235.342C6.88626 235.546 6.13221 235.757 4.66792 235.79V233.744C4.66792 232.272 5.33876 231.27 6.55688 230.922C7.68816 230.599 8.88156 231.068 9.49709 232.045C9.34788 232.118 9.22133 232.198 9.11781 232.282L8.64931 231.813C8.48916 231.653 8.22945 231.653 8.06927 231.813C7.90909 231.974 7.90909 232.233 8.06927 232.393L8.59957 232.924L8.06927 233.454C7.90909 233.614 7.90909 233.874 8.06927 234.034C8.22942 234.194 8.48913 234.194 8.64931 234.034L9.11786 233.565C9.25953 233.681 9.44407 233.787 9.67121 233.882C10.059 234.045 10.5207 234.154 10.8202 234.154C11.4987 234.154 12.0507 233.602 12.0507 232.924C12.0507 232.245 11.4987 231.693 10.8202 231.693C10.6723 231.693 10.4847 231.72 10.2861 231.767C9.51106 230.376 7.87691 229.692 6.33157 230.133C4.75301 230.584 3.84765 231.9 3.84765 233.744V241.773C3.74533 241.699 3.69676 241.654 3.6954 241.652L3.69775 241.655L3.69663 241.656C3.69641 241.655 3.69542 241.655 3.69542 241.655C3.53377 241.498 3.27581 241.501 3.11774 241.662C2.9589 241.823 2.96104 242.083 3.12255 242.242C3.15821 242.277 3.62348 242.72 4.7079 243.151C5.79225 243.582 7.49364 244 9.99991 244C12.5062 244 14.2076 243.582 15.2919 243.151C16.3763 242.72 16.8416 242.277 16.8773 242.242C17.0388 242.083 17.0409 241.823 16.8821 241.662ZM10.0962 232.679C10.3892 232.57 10.6822 232.514 10.8202 232.514C11.0464 232.514 11.2304 232.698 11.2304 232.924C11.2304 233.15 11.0464 233.334 10.8202 233.334C10.6822 233.334 10.3892 233.277 10.0962 233.168C9.84197 233.073 9.69875 232.982 9.62959 232.924C9.69875 232.866 9.84197 232.774 10.0962 232.679ZM4.66795 236.61C6.25012 236.576 7.09043 236.341 7.83803 236.131C8.48374 235.951 9.04138 235.795 9.99991 235.795C10.9584 235.795 11.5161 235.951 12.1618 236.131C12.9094 236.341 13.7497 236.576 15.3319 236.61V240.717H4.66795V236.61ZM4.66795 241.537H15.3319V242.24C13.772 242.956 11.7306 243.177 9.99991 243.177C8.26934 243.177 6.22783 242.956 4.66795 242.24V241.537Z" fill="#686868"/>
<path d="M6.71839 239.896C6.9449 239.896 7.12854 239.713 7.12854 239.486V237.845C7.12854 237.619 6.9449 237.435 6.71839 237.435C6.49188 237.435 6.30824 237.619 6.30824 237.845V239.486C6.30824 239.713 6.49188 239.896 6.71839 239.896Z" fill="#686868"/>
<path d="M8.35898 239.896C8.58549 239.896 8.76913 239.713 8.76913 239.486V237.845C8.76913 237.619 8.58549 237.435 8.35898 237.435C8.13247 237.435 7.94883 237.619 7.94883 237.845V239.486C7.94883 239.713 8.13247 239.896 8.35898 239.896Z" fill="#686868"/>
<path d="M9.99959 239.896C10.2261 239.896 10.4097 239.713 10.4097 239.486V237.845C10.4097 237.619 10.2261 237.435 9.99959 237.435C9.77308 237.435 9.58944 237.619 9.58944 237.845V239.486C9.58944 239.713 9.77308 239.896 9.99959 239.896Z" fill="#686868"/>
<path d="M11.6402 239.896C11.8667 239.896 12.0504 239.713 12.0504 239.486V237.845C12.0504 237.619 11.8667 237.435 11.6402 237.435C11.4137 237.435 11.23 237.619 11.23 237.845V239.486C11.23 239.713 11.4137 239.896 11.6402 239.896Z" fill="#686868"/>
<path d="M13.2808 239.896C13.5073 239.896 13.6909 239.713 13.6909 239.486V237.845C13.6909 237.619 13.5073 237.435 13.2808 237.435C13.0543 237.435 12.8706 237.619 12.8706 237.845V239.486C12.8706 239.713 13.0543 239.896 13.2808 239.896Z" fill="#686868"/>
<path d="M7.5 280H8.5M11.5 284H12.5M12.5 279.5L7.5 284.5M9.30145 275.289L8.17243 276.418C7.98717 276.604 7.73589 276.708 7.47389 276.708H5.69561C5.15001 276.708 4.70772 277.15 4.70772 277.696V279.474C4.70772 279.736 4.60363 279.987 4.41837 280.172L3.28935 281.301C2.90355 281.687 2.90355 282.313 3.28935 282.699L4.41837 283.828C4.60363 284.013 4.70772 284.264 4.70772 284.526V286.304C4.70772 286.85 5.15001 287.292 5.69561 287.292H7.47389C7.73589 287.292 7.98717 287.396 8.17243 287.582L9.30145 288.711C9.68725 289.096 10.3127 289.096 10.6985 288.711L11.8276 287.582C12.0128 287.396 12.2641 287.292 12.5261 287.292H14.3044C14.85 287.292 15.2923 286.85 15.2923 286.304V284.526C15.2923 284.264 15.3964 284.013 15.5816 283.828L16.7107 282.699C17.0964 282.313 17.0964 281.687 16.7107 281.301L15.5816 280.172C15.3964 279.987 15.2923 279.736 15.2923 279.474V277.696C15.2923 277.15 14.85 276.708 14.3044 276.708H12.5261C12.2641 276.708 12.0128 276.604 11.8276 276.418L10.6985 275.289C10.3128 274.904 9.68725 274.904 9.30145 275.289Z" stroke="#E92D2D"/>
<path d="M43.1763 283.588H39.3042L38.4346 286H37.1777L40.707 276.758H41.7734L45.3091 286H44.0586L43.1763 283.588ZM39.6724 282.585H42.8145L41.2402 278.262L39.6724 282.585ZM48.5083 283.074H47.6514V286H46.4707V279.132H47.6514V282.039H48.4194L50.73 279.132H52.1519L49.4351 282.433L52.3804 286H50.8887L48.5083 283.074ZM53.4912 279.132H54.6719V285.042H57.833V279.132H59.0073V285.042H59.8262L59.7119 288.038H58.6582V286H53.4912V279.132ZM65.5391 279.132H66.7134V286H65.5391V280.992L62.3716 286H61.1973V279.132H62.3716V284.146L65.5391 279.132ZM73.8481 279.132V286H72.6675V283.328H70.8965L69.2778 286H68.0083L69.7349 283.15C69.2948 282.989 68.9562 282.742 68.7192 282.407C68.4865 282.069 68.3701 281.675 68.3701 281.227C68.3701 280.6 68.605 280.097 69.0747 279.716C69.5444 279.331 70.1729 279.136 70.96 279.132H73.8481ZM69.5508 281.239C69.5508 281.574 69.665 281.844 69.8936 282.052C70.1221 282.255 70.4246 282.359 70.8013 282.363H72.6675V280.084H70.979C70.5431 280.084 70.1961 280.192 69.938 280.408C69.6799 280.619 69.5508 280.896 69.5508 281.239Z" fill="#E92D2D"/>
<path fill-rule="evenodd" clip-rule="evenodd" d="M16.1947 324.958L16.2049 324.965C16.578 325.239 17.0012 325.552 17.0012 326C17.0012 326.449 16.5783 326.761 16.2058 327.035L16.2056 327.035C15.9901 327.192 15.7211 327.391 15.6858 327.522C15.698 327.775 15.7688 328.021 15.8927 328.242L15.8983 328.254C16.0859 328.687 16.2783 329.13 16.0607 329.505C15.841 329.883 15.3473 329.938 14.8701 329.992C14.6234 329.993 14.3802 330.051 14.1591 330.16C14.0495 330.382 13.9916 330.625 13.9899 330.872C13.9363 331.349 13.8742 331.846 13.4992 332.063C13.1243 332.279 12.6726 332.084 12.2368 331.894C12.0177 331.77 11.7732 331.699 11.5221 331.685C11.3949 331.717 11.2021 331.979 11.0443 332.193L11.0352 332.205L11.0346 332.206C10.7602 332.578 10.4493 333 10.0003 333C9.55132 333 9.24033 332.578 8.96591 332.206L8.96591 332.206L8.9655 332.205C8.80782 331.99 8.61 331.72 8.47852 331.685C8.22611 331.699 7.98012 331.77 7.75901 331.892L7.7482 331.897C7.31516 332.085 6.87081 332.279 6.49591 332.06C6.1179 331.84 6.06249 331.347 6.00893 330.87C6.00784 330.622 5.94995 330.378 5.8397 330.156C5.61853 330.046 5.37514 329.988 5.1281 329.986C4.65147 329.936 4.15595 329.875 3.93804 329.499C3.72013 329.124 3.91613 328.672 4.10605 328.236C4.22997 328.017 4.30165 327.773 4.31546 327.522C4.28311 327.395 4.01959 327.2 3.80584 327.043L3.80583 327.043L3.7956 327.035C3.42244 326.761 3 326.45 3 326C3 325.551 3.42244 325.239 3.79498 324.965C4.01046 324.808 4.27953 324.61 4.31483 324.478C4.30142 324.227 4.22974 323.981 4.10542 323.762C3.91308 323.326 3.72007 322.874 3.93981 322.496C4.15955 322.118 4.65324 322.062 5.13046 322.009C5.37642 322.008 5.61887 321.951 5.83961 321.842C5.94924 321.621 6.0071 321.377 6.00884 321.13C6.06243 320.651 6.12512 320.154 6.49948 319.937C6.87384 319.721 7.3255 319.913 7.76378 320.106C7.98317 320.229 8.22748 320.3 8.4784 320.315C8.6056 320.283 8.79844 320.021 8.95628 319.807L8.96538 319.795L8.96591 319.794C9.24033 319.422 9.55127 319 10.0002 319C10.4472 319 10.7574 319.418 11.0327 319.789L11.0369 319.795C11.1945 320.01 11.3924 320.28 11.5239 320.315C11.775 320.301 12.0196 320.229 12.2385 320.105C12.6743 319.913 13.1266 319.72 13.5046 319.94C13.8826 320.161 13.938 320.654 13.9916 321.131C13.9927 321.378 14.0506 321.623 14.1608 321.845C14.382 321.955 14.6254 322.013 14.8724 322.014C15.349 322.065 15.8446 322.126 16.0625 322.501C16.2804 322.877 16.0844 323.329 15.8945 323.764C15.7705 323.983 15.6989 324.228 15.6851 324.478C15.7174 324.606 15.9809 324.8 16.1947 324.958ZM7.93054 327.4C7.98801 327.477 8.07823 327.522 8.17402 327.522C8.20675 327.522 8.23922 327.517 8.27021 327.506C8.39444 327.465 8.47831 327.349 8.47839 327.218V324.783C8.47839 324.615 8.34211 324.478 8.17402 324.478C8.00593 324.478 7.86965 324.615 7.86965 324.783V326.305L6.59135 324.6C6.53388 324.524 6.44366 324.478 6.34787 324.478C6.17978 324.478 6.0435 324.615 6.0435 324.783V327.218C6.0435 327.386 6.17978 327.522 6.34787 327.522C6.51596 327.522 6.65224 327.386 6.65224 327.218V325.696L7.93054 327.4ZM10.609 327.522H9.39153C9.22344 327.522 9.08716 327.386 9.08716 327.218V326V324.783C9.08716 324.615 9.22344 324.478 9.39153 324.478H10.609C10.7771 324.478 10.9133 324.615 10.9133 324.783C10.9133 324.951 10.7771 325.087 10.609 325.087H9.6959V325.696H10.609C10.7771 325.696 10.9133 325.832 10.9133 326C10.9133 326.168 10.7771 326.305 10.609 326.305H9.6959V326.913H10.609C10.7771 326.913 10.9133 327.05 10.9133 327.218C10.9133 327.386 10.7771 327.522 10.609 327.522ZM13.3634 327.314C13.4048 327.438 13.5214 327.522 13.6525 327.522L13.6647 327.522C13.7999 327.516 13.9155 327.423 13.9484 327.291L14.5571 324.857C14.5978 324.693 14.4984 324.528 14.3352 324.487C14.172 324.447 14.0067 324.546 13.966 324.709L13.6112 326.13L13.333 325.295C13.3012 325.225 13.2451 325.169 13.1751 325.138C13.0156 325.065 12.8276 325.136 12.7553 325.295L12.4771 326.13L12.1222 324.709C12.0816 324.546 11.9163 324.447 11.753 324.487C11.5898 324.528 11.4905 324.693 11.5312 324.857L12.1399 327.291C12.1728 327.423 12.2883 327.516 12.4235 327.522C12.5601 327.532 12.6854 327.445 12.7242 327.314L13.0438 326.354L13.3634 327.314Z" fill="#FFC107"/>
<path d="M45.3569 330H44.1318V325.728H39.4727V330H38.2539V320.758H39.4727V324.731H44.1318V320.758H45.3569V330ZM47.0264 326.502C47.0264 325.83 47.1576 325.224 47.4199 324.687C47.6865 324.15 48.0547 323.735 48.5244 323.443C48.9984 323.151 49.5379 323.005 50.1431 323.005C51.0783 323.005 51.8337 323.329 52.4092 323.976C52.9889 324.624 53.2788 325.485 53.2788 326.56V326.642C53.2788 327.311 53.1497 327.912 52.8916 328.445C52.6377 328.974 52.2716 329.386 51.7935 329.683C51.3195 329.979 50.7736 330.127 50.1558 330.127C49.2248 330.127 48.4694 329.803 47.8896 329.156C47.3141 328.508 47.0264 327.651 47.0264 326.585V326.502ZM48.207 326.642C48.207 327.404 48.3826 328.015 48.7339 328.477C49.0894 328.938 49.5633 329.168 50.1558 329.168C50.7524 329.168 51.2264 328.936 51.5776 328.47C51.9289 328 52.1045 327.345 52.1045 326.502C52.1045 325.749 51.9246 325.14 51.5649 324.674C51.2095 324.205 50.7355 323.97 50.1431 323.97C49.5633 323.97 49.0957 324.2 48.7402 324.662C48.3848 325.123 48.207 325.783 48.207 326.642ZM54.8594 330V323.132H57.5381C58.4521 323.132 59.1525 323.293 59.6392 323.614C60.13 323.932 60.3755 324.399 60.3755 325.017C60.3755 325.334 60.2803 325.622 60.0898 325.88C59.8994 326.134 59.618 326.329 59.2456 326.464C59.6603 326.562 59.9925 326.752 60.2422 327.036C60.4961 327.319 60.623 327.658 60.623 328.051C60.623 328.682 60.3903 329.164 59.9248 329.499C59.4635 329.833 58.8097 330 57.9634 330H54.8594ZM56.0337 326.985V329.054H57.9761C58.467 329.054 58.833 328.963 59.0742 328.781C59.3197 328.599 59.4424 328.343 59.4424 328.013C59.4424 327.328 58.9388 326.985 57.9316 326.985H56.0337ZM56.0337 326.045H57.5508C58.651 326.045 59.2012 325.724 59.2012 325.081C59.2012 324.437 58.6807 324.105 57.6396 324.084H56.0337V326.045ZM66.6216 323.132H67.7959V330H66.6216V324.992L63.4541 330H62.2798V323.132H63.4541V328.146L66.6216 323.132ZM75.2925 330H74.1182V327.067H70.9634V330H69.7827V323.132H70.9634V326.109H74.1182V323.132H75.2925V330ZM79.3232 327.074H78.4663V330H77.2856V323.132H78.4663V326.039H79.2344L81.5449 323.132H82.9668L80.25 326.433L83.1953 330H81.7036L79.3232 327.074ZM88.6479 323.132H89.8223V330H88.6479V324.992L85.4805 330H84.3062V323.132H85.4805V328.146L88.6479 323.132Z" fill="#686868"/>
<path d="M39.4146 452.758V461.003H42.5947V452.758H43.8071V461.003H46.9683V452.758H48.187V462H38.1895V452.758H39.4146ZM52.3384 459.074H51.4814V462H50.3008V455.132H51.4814V458.039H52.2495L54.5601 455.132H55.9819L53.2651 458.433L56.2104 462H54.7188L52.3384 459.074ZM61.46 462C61.3923 461.865 61.3372 461.623 61.2949 461.276C60.749 461.843 60.0973 462.127 59.3398 462.127C58.6628 462.127 58.1063 461.937 57.6704 461.556C57.2388 461.171 57.0229 460.684 57.0229 460.096C57.0229 459.381 57.2938 458.826 57.8354 458.433C58.3813 458.035 59.1473 457.836 60.1333 457.836H61.2759V457.296C61.2759 456.886 61.1532 456.56 60.9077 456.319C60.6623 456.073 60.3005 455.951 59.8223 455.951C59.4033 455.951 59.0521 456.056 58.7686 456.268C58.485 456.48 58.3433 456.736 58.3433 457.036H57.1626C57.1626 456.693 57.2832 456.363 57.5244 456.046C57.7699 455.724 58.0999 455.47 58.5146 455.284C58.9336 455.098 59.3927 455.005 59.8921 455.005C60.6834 455.005 61.3034 455.204 61.752 455.602C62.2005 455.995 62.4333 456.539 62.4502 457.233V460.394C62.4502 461.025 62.5306 461.526 62.6914 461.898V462H61.46ZM59.5112 461.105C59.8794 461.105 60.2285 461.01 60.5586 460.819C60.8887 460.629 61.1278 460.381 61.2759 460.077V458.667H60.3555C58.9167 458.667 58.1973 459.089 58.1973 459.931C58.1973 460.299 58.32 460.587 58.5654 460.794C58.8109 461.001 59.1261 461.105 59.5112 461.105ZM64.0371 458.693C64.0371 457.546 64.2593 456.645 64.7036 455.989C65.1479 455.333 65.7573 455.005 66.5317 455.005C66.8914 455.005 67.2067 455.066 67.4775 455.189V452.25H68.6519V455.227C68.9481 455.079 69.2951 455.005 69.6929 455.005C70.4715 455.005 71.083 455.333 71.5273 455.989C71.9717 456.645 72.1938 457.59 72.1938 458.826C72.1938 459.838 71.9717 460.642 71.5273 461.238C71.0872 461.835 70.48 462.133 69.7056 462.133C69.2951 462.133 68.9438 462.066 68.6519 461.93V464.641H67.4775V461.949C67.1982 462.072 66.8787 462.133 66.519 462.133C65.7489 462.133 65.1416 461.835 64.6973 461.238C64.2572 460.642 64.0371 459.825 64.0371 458.788V458.693ZM71.0195 458.693C71.0195 457.83 70.8714 457.161 70.5752 456.687C70.279 456.209 69.8706 455.97 69.3501 455.97C69.0835 455.97 68.8507 456.012 68.6519 456.097V461.067C68.8423 461.139 69.0793 461.175 69.3628 461.175C69.8875 461.175 70.2938 460.972 70.5815 460.565C70.8735 460.159 71.0195 459.535 71.0195 458.693ZM65.2114 458.826C65.2114 459.596 65.349 460.18 65.624 460.578C65.8991 460.976 66.2948 461.175 66.811 461.175C67.0565 461.175 67.2786 461.137 67.4775 461.061V456.078C67.2998 456.006 67.0819 455.97 66.8237 455.97C66.3075 455.97 65.9097 456.2 65.6304 456.662C65.3511 457.123 65.2114 457.844 65.2114 458.826ZM75.0059 457.5H76.7896C77.5682 457.508 78.1839 457.711 78.6367 458.109C79.0895 458.507 79.3159 459.046 79.3159 459.728C79.3159 460.413 79.0832 460.963 78.6177 461.378C78.1522 461.793 77.5259 462 76.7388 462H73.8315V455.132H75.0059V457.5ZM81.7661 462H80.5854V455.132H81.7661V462ZM75.0059 458.458V461.042H76.7515C77.1916 461.042 77.5322 460.929 77.7734 460.705C78.0146 460.477 78.1353 460.166 78.1353 459.772C78.1353 459.391 78.0168 459.08 77.7798 458.839C77.547 458.593 77.2191 458.466 76.7959 458.458H75.0059Z" fill="#686868"/>
<path d="M14.5273 464.098H5.23047C4.55199 464.098 4 463.546 4 462.867V452.23C4 451.552 4.55199 451 5.23047 451H14.5273C15.2058 451 15.7578 451.552 15.7578 452.23V462.867C15.7578 463.546 15.2058 464.098 14.5273 464.098ZM5.23047 451.82C5.00431 451.82 4.82031 452.004 4.82031 452.23V462.867C4.82031 463.093 5.00431 463.277 5.23047 463.277H14.5273C14.7535 463.277 14.9375 463.093 14.9375 462.867V452.23C14.9375 452.004 14.7535 451.82 14.5273 451.82H5.23047Z" fill="#686868"/>
<path d="M6.37891 465C6.15239 465 5.96875 464.816 5.96875 464.59V463.688C5.96875 463.461 6.15239 463.277 6.37891 463.277C6.60542 463.277 6.78906 463.461 6.78906 463.688V464.59C6.78906 464.816 6.60542 465 6.37891 465Z" fill="#686868"/>
<path d="M13.3789 465C13.1524 465 12.9688 464.816 12.9688 464.59V463.688C12.9688 463.461 13.1524 463.277 13.3789 463.277C13.6054 463.277 13.7891 463.461 13.7891 463.688V464.59C13.7891 464.816 13.6054 465 13.3789 465Z" fill="#686868"/>
<path d="M9.87891 464.098C9.65239 464.098 9.46875 463.914 9.46875 463.688V451.41C9.46875 451.184 9.65239 451 9.87891 451C10.1054 451 10.2891 451.184 10.2891 451.41V463.688C10.2891 463.914 10.1054 464.098 9.87891 464.098Z" fill="#686868"/>
<path d="M15.3477 460.598H9.87891C9.65239 460.598 9.46875 460.414 9.46875 460.188C9.46875 459.961 9.65239 459.777 9.87891 459.777H15.3477C15.5742 459.777 15.7578 459.961 15.7578 460.188C15.7578 460.414 15.5742 460.598 15.3477 460.598Z" fill="#686868"/>
<path d="M12.9414 462.375H12.2852C12.0586 462.375 11.875 462.191 11.875 461.965C11.875 461.738 12.0586 461.555 12.2852 461.555H12.9414C13.1679 461.555 13.3516 461.738 13.3516 461.965C13.3516 462.191 13.1679 462.375 12.9414 462.375Z" fill="#686868"/>
<path d="M8.12891 457.973C7.90239 457.973 7.71875 457.789 7.71875 457.562V456.906C7.71875 456.68 7.90239 456.496 8.12891 456.496C8.35542 456.496 8.53906 456.68 8.53906 456.906V457.562C8.53906 457.789 8.35542 457.973 8.12891 457.973Z" fill="#686868"/>
<path d="M11.6289 457.973C11.4024 457.973 11.2188 457.789 11.2188 457.562V456.906C11.2188 456.68 11.4024 456.496 11.6289 456.496C11.8554 456.496 12.0391 456.68 12.0391 456.906V457.562C12.0391 457.789 11.8554 457.973 11.6289 457.973Z" fill="#686868"/>
<path d="M17.5 363H1.59091C1.16912 363 0.764745 363.168 0.466496 363.466C0.168246 363.765 0.000479178 364.169 0 364.591V375.409C0.000479178 375.831 0.168246 376.235 0.466496 376.534C0.764745 376.832 1.16912 377 1.59091 377H17.5C17.9218 377 18.3262 376.832 18.6244 376.534C18.9227 376.235 19.0904 375.831 19.0909 375.409V364.591C19.0904 364.169 18.9227 363.765 18.6244 363.466C18.3262 363.168 17.9218 363 17.5 363ZM17.5 376.364H1.59091C1.33784 376.363 1.09521 376.263 0.916263 376.084C0.737314 375.905 0.636653 375.662 0.636364 375.409V375.09C0.911349 375.297 1.24649 375.409 1.59091 375.409H2.86364V374.773H1.59091C1.33784 374.772 1.09521 374.672 0.91626 374.493C0.73731 374.314 0.63665 374.071 0.636364 373.818V373.499C0.911349 373.707 1.24649 373.819 1.59091 373.818H17.5C17.8444 373.819 18.1796 373.707 18.4545 373.499V373.818C18.4543 374.071 18.3536 374.314 18.1746 374.493C17.9957 374.672 17.7531 374.772 17.5 374.773H12.4091V375.409H17.5C17.8444 375.409 18.1796 375.297 18.4545 375.09V375.409C18.4543 375.662 18.3536 375.905 18.1746 376.084C17.9957 376.263 17.7531 376.363 17.5 376.364ZM18.4545 372.227C18.4543 372.48 18.3536 372.723 18.1746 372.902C17.9957 373.081 17.7531 373.182 17.5 373.182H1.59091C1.33784 373.182 1.09521 373.081 0.916263 372.902C0.737314 372.723 0.636653 372.48 0.636364 372.227V364.591C0.636653 364.338 0.737314 364.095 0.916263 363.916C1.09521 363.737 1.33784 363.637 1.59091 363.636H17.5C17.7531 363.637 17.9957 363.737 18.1746 363.916C18.3536 364.095 18.4543 364.338 18.4545 364.591V372.227Z" fill="#686868"/>
<path d="M3.5 374.773H4.13636V375.409H3.5V374.773Z" fill="#686868"/>
<path d="M11.1364 374.773H11.7727V375.409H11.1364V374.773Z" fill="#686868"/>
<path d="M3.5 365.227V364.591H2.86364V365.227C2.86354 365.312 2.82999 365.393 2.77034 365.452C2.71069 365.512 2.62981 365.545 2.54545 365.545H1.90909V366.182H2.54545C2.62981 366.182 2.71069 366.215 2.77034 366.275C2.82999 366.335 2.86354 366.416 2.86364 366.5V367.773C2.86354 367.857 2.82999 367.938 2.77034 367.998C2.71069 368.057 2.62981 368.091 2.54545 368.091H1.90909V368.727H2.54545C2.62981 368.727 2.71069 368.761 2.77034 368.821C2.82999 368.88 2.86354 368.961 2.86364 369.045V370.318C2.86354 370.403 2.82999 370.483 2.77034 370.543C2.71069 370.603 2.62981 370.636 2.54545 370.636H1.90909V371.273H2.54545C2.62981 371.273 2.71069 371.306 2.77034 371.366C2.82999 371.426 2.86354 371.507 2.86364 371.591V372.227H3.5V371.591C3.5001 371.507 3.53365 371.426 3.5933 371.366C3.65295 371.306 3.73382 371.273 3.81818 371.273H4.45455V370.636H3.81818C3.73382 370.636 3.65295 370.603 3.5933 370.543C3.53365 370.483 3.5001 370.403 3.5 370.318V369.045C3.5001 368.961 3.53365 368.88 3.5933 368.821C3.65295 368.761 3.73382 368.727 3.81818 368.727H4.45455V368.091H3.81818C3.73382 368.091 3.65295 368.057 3.5933 367.998C3.53365 367.938 3.5001 367.857 3.5 367.773V366.5C3.5001 366.416 3.53365 366.335 3.5933 366.275C3.65295 366.215 3.73382 366.182 3.81818 366.182H4.45455V365.545H3.81818C3.73382 365.545 3.65295 365.512 3.5933 365.452C3.53365 365.393 3.5001 365.312 3.5 365.227Z" fill="#686868"/>
<path d="M6.68182 365.227V364.591H6.04545V365.227C6.04536 365.312 6.01181 365.393 5.95216 365.452C5.89251 365.512 5.81163 365.545 5.72727 365.545H5.09091V366.182H5.72727C5.81163 366.182 5.89251 366.215 5.95216 366.275C6.01181 366.335 6.04536 366.416 6.04545 366.5V367.773C6.04536 367.857 6.01181 367.938 5.95216 367.998C5.89251 368.057 5.81163 368.091 5.72727 368.091H5.09091V368.727H5.72727C5.81163 368.727 5.89251 368.761 5.95216 368.821C6.01181 368.88 6.04536 368.961 6.04545 369.045V370.318C6.04536 370.403 6.01181 370.483 5.95216 370.543C5.89251 370.603 5.81163 370.636 5.72727 370.636H5.09091V371.273H5.72727C5.81163 371.273 5.89251 371.306 5.95216 371.366C6.01181 371.426 6.04536 371.507 6.04545 371.591V372.227H6.68182V371.591C6.68192 371.507 6.71547 371.426 6.77512 371.366C6.83477 371.306 6.91564 371.273 7 371.273H7.63636V370.636H7C6.91564 370.636 6.83477 370.603 6.77512 370.543C6.71547 370.483 6.68192 370.403 6.68182 370.318V369.045C6.68192 368.961 6.71547 368.88 6.77512 368.821C6.83477 368.761 6.91564 368.727 7 368.727H7.63636V368.091H7C6.91564 368.091 6.83477 368.057 6.77512 367.998C6.71547 367.938 6.68192 367.857 6.68182 367.773V366.5C6.68192 366.416 6.71547 366.335 6.77512 366.275C6.83477 366.215 6.91564 366.182 7 366.182H7.63636V365.545H7C6.91564 365.545 6.83477 365.512 6.77512 365.452C6.71547 365.393 6.68192 365.312 6.68182 365.227Z" fill="#686868"/>
<path d="M9.86364 365.227V364.591H9.22727V365.227C9.22718 365.312 9.19362 365.393 9.13397 365.452C9.07432 365.512 8.99345 365.545 8.90909 365.545H8.27273V366.182H8.90909C8.99345 366.182 9.07432 366.215 9.13397 366.275C9.19362 366.335 9.22718 366.416 9.22727 366.5V367.773C9.22718 367.857 9.19362 367.938 9.13397 367.998C9.07432 368.057 8.99345 368.091 8.90909 368.091H8.27273V368.727H8.90909C8.99345 368.727 9.07432 368.761 9.13397 368.821C9.19362 368.88 9.22718 368.961 9.22727 369.045V370.318C9.22718 370.403 9.19362 370.483 9.13397 370.543C9.07432 370.603 8.99345 370.636 8.90909 370.636H8.27273V371.273H8.90909C8.99345 371.273 9.07432 371.306 9.13397 371.366C9.19362 371.426 9.22718 371.507 9.22727 371.591V372.227H9.86364V371.591C9.86373 371.507 9.89729 371.426 9.95694 371.366C10.0166 371.306 10.0975 371.273 10.1818 371.273H10.8182V370.636H10.1818C10.0975 370.636 10.0166 370.603 9.95694 370.543C9.89729 370.483 9.86373 370.403 9.86364 370.318V369.045C9.86373 368.961 9.89729 368.88 9.95694 368.821C10.0166 368.761 10.0975 368.727 10.1818 368.727H10.8182V368.091H10.1818C10.0975 368.091 10.0166 368.057 9.95694 367.998C9.89729 367.938 9.86373 367.857 9.86364 367.773V366.5C9.86373 366.416 9.89729 366.335 9.95694 366.275C10.0166 366.215 10.0975 366.182 10.1818 366.182H10.8182V365.545H10.1818C10.0975 365.545 10.0166 365.512 9.95694 365.452C9.89729 365.393 9.86373 365.312 9.86364 365.227Z" fill="#686868"/>
<path d="M13.0455 365.227V364.591H12.4091V365.227C12.409 365.312 12.3754 365.393 12.3158 365.452C12.2561 365.512 12.1753 365.545 12.0909 365.545H11.4545V366.182H12.0909C12.1753 366.182 12.2561 366.215 12.3158 366.275C12.3754 366.335 12.409 366.416 12.4091 366.5V367.773C12.409 367.857 12.3754 367.938 12.3158 367.998C12.2561 368.057 12.1753 368.091 12.0909 368.091H11.4545V368.727H12.0909C12.1753 368.727 12.2561 368.761 12.3158 368.821C12.3754 368.88 12.409 368.961 12.4091 369.045V370.318C12.409 370.403 12.3754 370.483 12.3158 370.543C12.2561 370.603 12.1753 370.636 12.0909 370.636H11.4545V371.273H12.0909C12.1753 371.273 12.2561 371.306 12.3158 371.366C12.3754 371.426 12.409 371.507 12.4091 371.591V372.227H13.0455V371.591C13.0456 371.507 13.0791 371.426 13.1388 371.366C13.1984 371.306 13.2793 371.273 13.3636 371.273H14V370.636H13.3636C13.2793 370.636 13.1984 370.603 13.1388 370.543C13.0791 370.483 13.0456 370.403 13.0455 370.318V369.045C13.0456 368.961 13.0791 368.88 13.1388 368.821C13.1984 368.761 13.2793 368.727 13.3636 368.727H14V368.091H13.3636C13.2793 368.091 13.1984 368.057 13.1388 367.998C13.0791 367.938 13.0456 367.857 13.0455 367.773V366.5C13.0456 366.416 13.0791 366.335 13.1388 366.275C13.1984 366.215 13.2793 366.182 13.3636 366.182H14V365.545H13.3636C13.2793 365.545 13.1984 365.512 13.1388 365.452C13.0791 365.393 13.0456 365.312 13.0455 365.227Z" fill="#686868"/>
<path d="M16.2273 365.227V364.591H15.5909V365.227C15.5908 365.312 15.5573 365.393 15.4976 365.452C15.438 365.512 15.3571 365.545 15.2727 365.545H14.6364V366.182H15.2727C15.3571 366.182 15.438 366.215 15.4976 366.275C15.5573 366.335 15.5908 366.416 15.5909 366.5V367.773C15.5908 367.857 15.5573 367.938 15.4976 367.998C15.438 368.057 15.3571 368.091 15.2727 368.091H14.6364V368.727H15.2727C15.3571 368.727 15.438 368.761 15.4976 368.821C15.5573 368.88 15.5908 368.961 15.5909 369.045V370.318C15.5908 370.403 15.5573 370.483 15.4976 370.543C15.438 370.603 15.3571 370.636 15.2727 370.636H14.6364V371.273H15.2727C15.3571 371.273 15.438 371.306 15.4976 371.366C15.5573 371.426 15.5908 371.507 15.5909 371.591V372.227H16.2273V371.591C16.2274 371.507 16.2609 371.426 16.3206 371.366C16.3802 371.306 16.4611 371.273 16.5455 371.273H17.1818V370.636H16.5455C16.4611 370.636 16.3802 370.603 16.3206 370.543C16.2609 370.483 16.2274 370.403 16.2273 370.318V369.045C16.2274 368.961 16.2609 368.88 16.3206 368.821C16.3802 368.761 16.4611 368.727 16.5455 368.727H17.1818V368.091H16.5455C16.4611 368.091 16.3802 368.057 16.3206 367.998C16.2609 367.938 16.2274 367.857 16.2273 367.773V366.5C16.2274 366.416 16.2609 366.335 16.3206 366.275C16.3802 366.215 16.4611 366.182 16.5455 366.182H17.1818V365.545H16.5455C16.4611 365.545 16.3802 365.512 16.3206 365.452C16.2609 365.393 16.2274 365.312 16.2273 365.227Z" fill="#686868"/>
<path d="M39.73 364.758L42.7515 372.299L45.7729 364.758H47.3535V374H46.1348V370.401L46.249 366.516L43.2148 374H42.2817L39.2539 366.535L39.3745 370.401V374H38.1558V364.758H39.73ZM53.5615 374C53.4938 373.865 53.4388 373.623 53.3965 373.276C52.8506 373.843 52.1989 374.127 51.4414 374.127C50.7643 374.127 50.2078 373.937 49.772 373.556C49.3403 373.171 49.1245 372.684 49.1245 372.096C49.1245 371.381 49.3953 370.826 49.937 370.433C50.4829 370.035 51.2489 369.836 52.2349 369.836H53.3774V369.296C53.3774 368.886 53.2547 368.56 53.0093 368.319C52.7638 368.073 52.402 367.951 51.9238 367.951C51.5049 367.951 51.1536 368.056 50.8701 368.268C50.5866 368.48 50.4448 368.736 50.4448 369.036H49.2642C49.2642 368.693 49.3848 368.363 49.626 368.046C49.8714 367.724 50.2015 367.47 50.6162 367.284C51.0352 367.098 51.4943 367.005 51.9937 367.005C52.785 367.005 53.4049 367.204 53.8535 367.602C54.3021 367.995 54.5348 368.539 54.5518 369.233V372.394C54.5518 373.025 54.6322 373.526 54.793 373.898V374H53.5615ZM51.6128 373.105C51.981 373.105 52.3301 373.01 52.6602 372.819C52.9902 372.629 53.2293 372.381 53.3774 372.077V370.667H52.457C51.0182 370.667 50.2988 371.089 50.2988 371.931C50.2988 372.299 50.4215 372.587 50.667 372.794C50.9124 373.001 51.2277 373.105 51.6128 373.105ZM61.3945 368.084H59.0903V374H57.916V368.084H55.6562V367.132H61.3945V368.084ZM68.3389 370.642C68.3389 371.687 68.0998 372.529 67.6216 373.168C67.1434 373.807 66.4959 374.127 65.6792 374.127C64.8455 374.127 64.1896 373.862 63.7114 373.333V376.641H62.5371V367.132H63.6099L63.667 367.894C64.1452 367.301 64.8096 367.005 65.6602 367.005C66.4854 367.005 67.137 367.316 67.6152 367.938C68.0977 368.56 68.3389 369.425 68.3389 370.534V370.642ZM67.1646 370.509C67.1646 369.734 66.9995 369.123 66.6694 368.674C66.3394 368.226 65.8866 368.001 65.311 368.001C64.6001 368.001 64.0669 368.317 63.7114 368.947V372.229C64.0627 372.855 64.6001 373.168 65.3237 373.168C65.8866 373.168 66.333 372.946 66.6631 372.502C66.9974 372.053 67.1646 371.389 67.1646 370.509ZM74.0771 374C74.0094 373.865 73.9544 373.623 73.9121 373.276C73.3662 373.843 72.7145 374.127 71.957 374.127C71.2799 374.127 70.7235 373.937 70.2876 373.556C69.856 373.171 69.6401 372.684 69.6401 372.096C69.6401 371.381 69.911 370.826 70.4526 370.433C70.9985 370.035 71.7645 369.836 72.7505 369.836H73.8931V369.296C73.8931 368.886 73.7703 368.56 73.5249 368.319C73.2795 368.073 72.9176 367.951 72.4395 367.951C72.0205 367.951 71.6693 368.056 71.3857 368.268C71.1022 368.48 70.9604 368.736 70.9604 369.036H69.7798C69.7798 368.693 69.9004 368.363 70.1416 368.046C70.387 367.724 70.7171 367.47 71.1318 367.284C71.5508 367.098 72.0099 367.005 72.5093 367.005C73.3006 367.005 73.9206 367.204 74.3691 367.602C74.8177 367.995 75.0505 368.539 75.0674 369.233V372.394C75.0674 373.025 75.1478 373.526 75.3086 373.898V374H74.0771ZM72.1284 373.105C72.4966 373.105 72.8457 373.01 73.1758 372.819C73.5059 372.629 73.745 372.381 73.8931 372.077V370.667H72.9727C71.5339 370.667 70.8145 371.089 70.8145 371.931C70.8145 372.299 70.9372 372.587 71.1826 372.794C71.4281 373.001 71.7433 373.105 72.1284 373.105ZM79.6631 373.168C80.082 373.168 80.4481 373.042 80.7612 372.788C81.0744 372.534 81.2479 372.216 81.2817 371.835H82.3926C82.3714 372.229 82.236 372.604 81.9863 372.959C81.7367 373.314 81.4023 373.598 80.9834 373.81C80.5687 374.021 80.1286 374.127 79.6631 374.127C78.7279 374.127 77.9831 373.816 77.4287 373.194C76.8786 372.568 76.6035 371.713 76.6035 370.629V370.433C76.6035 369.764 76.7262 369.169 76.9717 368.649C77.2171 368.128 77.5684 367.724 78.0254 367.437C78.4867 367.149 79.0304 367.005 79.6567 367.005C80.4269 367.005 81.0659 367.236 81.5737 367.697C82.0858 368.158 82.3587 368.757 82.3926 369.493H81.2817C81.2479 369.049 81.0786 368.685 80.7739 368.401C80.4735 368.114 80.1011 367.97 79.6567 367.97C79.0601 367.97 78.5967 368.186 78.2666 368.617C77.9408 369.045 77.7778 369.665 77.7778 370.477V370.699C77.7778 371.491 77.9408 372.1 78.2666 372.527C78.5924 372.955 79.0579 373.168 79.6631 373.168ZM84.9951 369.5H86.7788C87.5575 369.508 88.1732 369.711 88.626 370.109C89.0788 370.507 89.3052 371.046 89.3052 371.728C89.3052 372.413 89.0724 372.963 88.6069 373.378C88.1414 373.793 87.5151 374 86.728 374H83.8208V367.132H84.9951V369.5ZM91.7554 374H90.5747V367.132H91.7554V374ZM84.9951 370.458V373.042H86.7407C87.1808 373.042 87.5215 372.929 87.7627 372.705C88.0039 372.477 88.1245 372.166 88.1245 371.772C88.1245 371.391 88.006 371.08 87.769 370.839C87.5363 370.593 87.2083 370.466 86.7852 370.458H84.9951Z" fill="#686868"/>
<path d="M16.9423 412.351C16.771 411.651 16.1804 411.081 15.4728 410.933C15.4144 410.92 15.3562 410.922 15.2977 410.915C14.7713 408.633 12.7647 407 10.3895 407H9.61165C7.23686 407 5.22997 408.633 4.7033 410.916C4.33113 410.963 3.97555 411.105 3.6852 411.352C3.24992 411.722 3 412.262 3 412.833C3 413.441 3.2932 414.016 3.77784 414.381V417.889C3.77784 418.462 4.09295 418.958 4.55568 419.228V419.833C4.55568 420.477 5.07904 421 5.72245 421C6.36587 421 6.88923 420.477 6.88923 419.833V419.444H13.112V419.833C13.112 420.477 13.6353 421 14.2787 421C14.9222 421 15.4455 420.477 15.4455 419.833V419.228C15.9083 418.958 16.2234 418.462 16.2234 417.889V414.381C16.8451 413.915 17.1318 413.127 16.9423 412.351ZM9.6111 407.778H10.3889C12.3582 407.778 14.0258 409.106 14.5118 410.976C14.2666 411.047 14.0332 411.159 13.8304 411.323C13.3731 411.695 13.1111 412.245 13.1111 412.833V414.778H6.8889V412.916C6.8889 412.008 6.2993 411.215 5.48861 410.974C5.97496 409.105 7.64264 407.778 9.6111 407.778ZM13.8889 415.944C13.8889 416.159 13.7146 416.333 13.5 416.333H6.5C6.28544 416.333 6.1111 416.159 6.1111 415.944C6.1111 415.73 6.28541 415.556 6.5 415.556H13.5C13.7146 415.556 13.8889 415.73 13.8889 415.944ZM6.1111 419.833C6.1111 420.048 5.93679 420.222 5.7222 420.222C5.50764 420.222 5.33333 420.048 5.33333 419.833V419.444H6.1111V419.833ZM14.6667 419.833C14.6667 420.048 14.4924 420.222 14.2778 420.222C14.0632 420.222 13.8889 420.048 13.8889 419.833V419.444H14.6667V419.833ZM15.6377 413.837C15.5181 413.907 15.4444 414.035 15.4444 414.173V417.889C15.4444 418.318 15.0954 418.667 14.6667 418.667H5.33333C4.90458 418.667 4.55557 418.318 4.55557 417.889V414.173C4.55557 414.035 4.48189 413.907 4.36227 413.837C3.99615 413.624 3.77777 413.249 3.77777 412.833C3.77777 412.491 3.92779 412.166 4.18905 411.944C4.45414 411.719 4.79404 411.626 5.14306 411.683C5.69485 411.773 6.1111 412.303 6.1111 412.916V414.849C5.65942 415.01 5.33333 415.438 5.33333 415.944C5.33333 416.588 5.85666 417.111 6.5 417.111H13.5C14.1433 417.111 14.6667 416.588 14.6667 415.944C14.6667 415.438 14.3406 415.01 13.8889 414.849V412.833C13.8889 412.48 14.0461 412.15 14.3207 411.927C14.5991 411.701 14.9512 411.618 15.3123 411.694C15.7331 411.782 16.084 412.12 16.1854 412.535C16.3134 413.058 16.0984 413.569 15.6377 413.837Z" fill="#686868"/>
<path d="M39.8521 408.758L42.8735 416.299L45.895 408.758H47.4756V418H46.2568V414.401L46.3711 410.516L43.3369 418H42.4038L39.376 410.535L39.4966 414.401V418H38.2778V408.758H39.8521ZM54.6929 411.132V418H53.5122V415.328H51.7412L50.1226 418H48.853L50.5796 415.15C50.1395 414.989 49.8009 414.742 49.564 414.407C49.3312 414.069 49.2148 413.675 49.2148 413.227C49.2148 412.6 49.4497 412.097 49.9194 411.716C50.3892 411.331 51.0176 411.136 51.8047 411.132H54.6929ZM50.3955 413.239C50.3955 413.574 50.5098 413.844 50.7383 414.052C50.9668 414.255 51.2694 414.359 51.646 414.363H53.5122V412.084H51.8237C51.3879 412.084 51.0409 412.192 50.7827 412.408C50.5246 412.619 50.3955 412.896 50.3955 413.239ZM61.0151 412.103H57.8477V418H56.667V411.132H61.0151V412.103ZM64.1763 415.074H63.3193V418H62.1387V411.132H63.3193V414.039H64.0874L66.3979 411.132H67.8198L65.103 414.433L68.0483 418H66.5566L64.1763 415.074ZM73.2979 418C73.2301 417.865 73.1751 417.623 73.1328 417.276C72.5869 417.843 71.9352 418.127 71.1777 418.127C70.5007 418.127 69.9442 417.937 69.5083 417.556C69.0767 417.171 68.8608 416.684 68.8608 416.096C68.8608 415.381 69.1317 414.826 69.6733 414.433C70.2192 414.035 70.9852 413.836 71.9712 413.836H73.1138V413.296C73.1138 412.886 72.991 412.56 72.7456 412.319C72.5002 412.073 72.1383 411.951 71.6602 411.951C71.2412 411.951 70.89 412.056 70.6064 412.268C70.3229 412.48 70.1812 412.736 70.1812 413.036H69.0005C69.0005 412.693 69.1211 412.363 69.3623 412.046C69.6077 411.724 69.9378 411.47 70.3525 411.284C70.7715 411.098 71.2306 411.005 71.73 411.005C72.5213 411.005 73.1413 411.204 73.5898 411.602C74.0384 411.995 74.2712 412.539 74.2881 413.233V416.394C74.2881 417.025 74.3685 417.526 74.5293 417.898V418H73.2979ZM71.3491 417.105C71.7173 417.105 72.0664 417.01 72.3965 416.819C72.7266 416.629 72.9657 416.381 73.1138 416.077V414.667H72.1934C70.7546 414.667 70.0352 415.089 70.0352 415.931C70.0352 416.299 70.1579 416.587 70.4033 416.794C70.6488 417.001 70.964 417.105 71.3491 417.105ZM81.3784 411.132V418H80.1978V415.328H78.4268L76.8081 418H75.5386L77.2651 415.15C76.825 414.989 76.4865 414.742 76.2495 414.407C76.0168 414.069 75.9004 413.675 75.9004 413.227C75.9004 412.6 76.1353 412.097 76.605 411.716C77.0747 411.331 77.7031 411.136 78.4902 411.132H81.3784ZM77.0811 413.239C77.0811 413.574 77.1953 413.844 77.4238 414.052C77.6523 414.255 77.9549 414.359 78.3315 414.363H80.1978V412.084H78.5093C78.0734 412.084 77.7264 412.192 77.4683 412.408C77.2101 412.619 77.0811 412.896 77.0811 413.239ZM90.4429 416.445L92.7788 411.132H94.2451V418H93.0708V413.004L90.8491 418H90.0366L87.7705 412.896V418H86.5962V411.132H88.1196L90.4429 416.445ZM98.9868 418.127C98.0558 418.127 97.2983 417.822 96.7144 417.213C96.1304 416.599 95.8384 415.78 95.8384 414.756V414.541C95.8384 413.859 95.9674 413.252 96.2256 412.719C96.488 412.181 96.8519 411.762 97.3174 411.462C97.7871 411.157 98.2949 411.005 98.8408 411.005C99.7337 411.005 100.428 411.299 100.923 411.887C101.418 412.475 101.666 413.318 101.666 414.414V414.902H97.0127C97.0296 415.579 97.2264 416.127 97.603 416.546C97.9839 416.961 98.4663 417.168 99.0503 417.168C99.465 417.168 99.8162 417.084 100.104 416.915C100.392 416.745 100.644 416.521 100.859 416.242L101.577 416.8C101.001 417.685 100.138 418.127 98.9868 418.127ZM98.8408 411.97C98.3669 411.97 97.9691 412.143 97.6475 412.49C97.3258 412.833 97.127 413.315 97.0508 413.938H100.491V413.849C100.457 413.252 100.297 412.791 100.009 412.465C99.721 412.135 99.3317 411.97 98.8408 411.97ZM106.045 411.525C106.909 411.525 107.598 411.815 108.115 412.395C108.635 412.971 108.896 413.73 108.896 414.674V414.782C108.896 415.429 108.771 416.009 108.521 416.521C108.271 417.029 107.912 417.424 107.442 417.708C106.976 417.987 106.439 418.127 105.83 418.127C104.907 418.127 104.164 417.82 103.602 417.207C103.039 416.589 102.757 415.761 102.757 414.725V414.153C102.757 412.71 103.024 411.563 103.557 410.713C104.095 409.862 104.886 409.344 105.931 409.158C106.524 409.052 106.924 408.923 107.131 408.771C107.338 408.618 107.442 408.409 107.442 408.142H108.407C108.407 408.671 108.286 409.084 108.045 409.38C107.808 409.676 107.427 409.886 106.902 410.008L106.026 410.205C105.328 410.37 104.803 410.649 104.452 411.043C104.105 411.432 103.879 411.953 103.773 412.604C104.395 411.885 105.153 411.525 106.045 411.525ZM105.817 412.49C105.241 412.49 104.784 412.685 104.446 413.074C104.107 413.459 103.938 413.995 103.938 414.68V414.782C103.938 415.518 104.107 416.102 104.446 416.534C104.789 416.961 105.25 417.175 105.83 417.175C106.414 417.175 106.875 416.959 107.213 416.527C107.552 416.096 107.721 415.465 107.721 414.636C107.721 413.988 107.55 413.47 107.207 413.081C106.868 412.687 106.405 412.49 105.817 412.49ZM113.066 418.127C112.135 418.127 111.377 417.822 110.793 417.213C110.209 416.599 109.917 415.78 109.917 414.756V414.541C109.917 413.859 110.047 413.252 110.305 412.719C110.567 412.181 110.931 411.762 111.396 411.462C111.866 411.157 112.374 411.005 112.92 411.005C113.813 411.005 114.507 411.299 115.002 411.887C115.497 412.475 115.745 413.318 115.745 414.414V414.902H111.092C111.109 415.579 111.306 416.127 111.682 416.546C112.063 416.961 112.545 417.168 113.129 417.168C113.544 417.168 113.895 417.084 114.183 416.915C114.471 416.745 114.723 416.521 114.938 416.242L115.656 416.8C115.08 417.685 114.217 418.127 113.066 418.127ZM112.92 411.97C112.446 411.97 112.048 412.143 111.727 412.49C111.405 412.833 111.206 413.315 111.13 413.938H114.57V413.849C114.536 413.252 114.376 412.791 114.088 412.465C113.8 412.135 113.411 411.97 112.92 411.97ZM122.74 411.132V418H121.559V412.103H119.223L119.083 414.674C119.007 415.854 118.808 416.699 118.487 417.207C118.169 417.714 117.664 417.979 116.97 418H116.5V416.965L116.836 416.94C117.217 416.898 117.49 416.678 117.655 416.28C117.82 415.882 117.926 415.146 117.973 414.071L118.1 411.132H122.74ZM125.907 413.5H127.691C128.47 413.508 129.085 413.711 129.538 414.109C129.991 414.507 130.217 415.046 130.217 415.728C130.217 416.413 129.985 416.963 129.519 417.378C129.054 417.793 128.427 418 127.64 418H124.733V411.132H125.907V413.5ZM125.907 414.458V417.042H127.653C128.093 417.042 128.434 416.929 128.675 416.705C128.916 416.477 129.037 416.166 129.037 415.772C129.037 415.391 128.918 415.08 128.681 414.839C128.448 414.593 128.12 414.466 127.697 414.458H125.907Z" fill="#686868"/>
</svg>
