<svg width="58" height="68" viewBox="0 0 58 68" fill="none" xmlns="http://www.w3.org/2000/svg">
<g filter="url(#filter0_d_156_3651)">
<rect x="4" y="2" width="50" height="50" fill="white"/>
</g>
<path d="M25.4643 25.0714H26.6786M30.3214 29.9286H31.5357M31.5357 24.4643L25.4643 30.5357M27.6518 19.3513L26.2808 20.7223C26.0558 20.9473 25.7507 21.0737 25.4326 21.0737H23.2732C22.6107 21.0737 22.0737 21.6107 22.0737 22.2732V24.4326C22.0737 24.7507 21.9473 25.0558 21.7223 25.2808L20.3514 26.6518C19.8829 27.1202 19.8829 27.8798 20.3513 28.3482L21.7223 29.7192C21.9473 29.9442 22.0737 30.2493 22.0737 30.5674V32.7268C22.0737 33.3893 22.6107 33.9263 23.2732 33.9263H25.4326C25.7507 33.9263 26.0558 34.0527 26.2808 34.2777L27.6518 35.6486C28.1202 36.1171 28.8798 36.1171 29.3482 35.6486L30.7192 34.2777C30.9442 34.0527 31.2493 33.9263 31.5674 33.9263H33.7268C34.3893 33.9263 34.9263 33.3893 34.9263 32.7268V30.5674C34.9263 30.2493 35.0527 29.9442 35.2777 29.7192L36.6486 28.3482C37.1171 27.8798 37.1171 27.1202 36.6486 26.6518L35.2777 25.2808C35.0527 25.0558 34.9263 24.7507 34.9263 24.4326V22.2732C34.9263 21.6107 34.3893 21.0737 33.7268 21.0737H31.5674C31.2493 21.0737 30.9442 20.9473 30.7192 20.7223L29.3482 19.3514C28.8798 18.8829 28.1202 18.8829 27.6518 19.3513Z" stroke="#E92D2D"/>
<path d="M20.2759 64.3301H17.5952L16.9932 66H16.123L18.5664 59.6016H19.3047L21.7524 66H20.8867L20.2759 64.3301ZM17.8501 63.6357H20.0254L18.9355 60.6431L17.8501 63.6357ZM23.9673 63.9741H23.374V66H22.5566V61.2451H23.374V63.2578H23.9058L25.5054 61.2451H26.4897L24.6089 63.5303L26.6479 66H25.6152L23.9673 63.9741ZM27.417 61.2451H28.2344V65.3364H30.4229V61.2451H31.2358V65.3364H31.8027L31.7236 67.4106H30.9941V66H27.417V61.2451ZM35.7578 61.2451H36.5708V66H35.7578V62.5327L33.5649 66H32.752V61.2451H33.5649V64.7168L35.7578 61.2451ZM41.5103 61.2451V66H40.6929V64.1499H39.4668L38.3462 66H37.4673L38.6626 64.0269C38.3579 63.9155 38.1235 63.7441 37.9595 63.5127C37.7983 63.2783 37.7178 63.0059 37.7178 62.6953C37.7178 62.2617 37.8804 61.9131 38.2056 61.6494C38.5308 61.3828 38.9658 61.248 39.5107 61.2451H41.5103ZM38.5352 62.7041C38.5352 62.9355 38.6143 63.123 38.7725 63.2666C38.9307 63.4072 39.1401 63.479 39.4009 63.4819H40.6929V61.9043H39.5239C39.2222 61.9043 38.9819 61.979 38.8032 62.1284C38.6245 62.2749 38.5352 62.4668 38.5352 62.7041Z" fill="#E92D2D"/>
<defs>
<filter id="filter0_d_156_3651" x="0" y="0" width="58" height="58" filterUnits="userSpaceOnUse" color-interpolation-filters="sRGB">
<feFlood flood-opacity="0" result="BackgroundImageFix"/>
<feColorMatrix in="SourceAlpha" type="matrix" values="0 0 0 0 0 0 0 0 0 0 0 0 0 0 0 0 0 0 127 0" result="hardAlpha"/>
<feOffset dy="2"/>
<feGaussianBlur stdDeviation="2"/>
<feColorMatrix type="matrix" values="0 0 0 0 0 0 0 0 0 0 0 0 0 0 0 0 0 0 0.07 0"/>
<feBlend mode="normal" in2="BackgroundImageFix" result="effect1_dropShadow_156_3651"/>
<feBlend mode="normal" in="SourceGraphic" in2="effect1_dropShadow_156_3651" result="shape"/>
</filter>
</defs>
</svg>
