<svg width="58" height="68" viewBox="0 0 58 68" fill="none" xmlns="http://www.w3.org/2000/svg">
<g filter="url(#filter0_d_205_574)">
<rect x="4" y="2" width="50" height="50" fill="white"/>
</g>
<path d="M16.4492 63.9697C16.3701 64.6465 16.1196 65.1694 15.6978 65.5386C15.2788 65.9048 14.7207 66.0879 14.0234 66.0879C13.2676 66.0879 12.6611 65.8169 12.2041 65.2749C11.75 64.7329 11.5229 64.0078 11.5229 63.0996V62.4844C11.5229 61.8896 11.6284 61.3667 11.8394 60.9155C12.0532 60.4644 12.355 60.1187 12.7446 59.8784C13.1343 59.6353 13.5854 59.5137 14.0981 59.5137C14.7778 59.5137 15.3228 59.7041 15.7329 60.085C16.1431 60.4629 16.3818 60.9873 16.4492 61.6582H15.6011C15.5278 61.1484 15.3682 60.7793 15.1221 60.5508C14.8789 60.3223 14.5376 60.208 14.0981 60.208C13.5591 60.208 13.1357 60.4072 12.8281 60.8057C12.5234 61.2041 12.3711 61.771 12.3711 62.5063V63.126C12.3711 63.8203 12.5161 64.3726 12.8062 64.7827C13.0962 65.1929 13.502 65.3979 14.0234 65.3979C14.4922 65.3979 14.8511 65.2925 15.1001 65.0815C15.3521 64.8677 15.519 64.4971 15.6011 63.9697H16.4492ZM21.3667 66H20.5537V61.9175H18.3652V66H17.5479V61.2451H21.3667V66ZM25.6074 66C25.5605 65.9062 25.5225 65.7393 25.4932 65.499C25.1152 65.8916 24.6641 66.0879 24.1396 66.0879C23.6709 66.0879 23.2856 65.9561 22.9839 65.6924C22.6851 65.4258 22.5356 65.0889 22.5356 64.6816C22.5356 64.1865 22.7231 63.8027 23.0981 63.5303C23.4761 63.2549 24.0063 63.1172 24.689 63.1172H25.48V62.7437C25.48 62.4595 25.395 62.2339 25.2251 62.0669C25.0552 61.897 24.8047 61.812 24.4736 61.812C24.1836 61.812 23.9404 61.8853 23.7441 62.0317C23.5479 62.1782 23.4497 62.3555 23.4497 62.5635H22.6323C22.6323 62.3262 22.7158 62.0977 22.8828 61.8779C23.0527 61.6553 23.2812 61.4795 23.5684 61.3506C23.8584 61.2217 24.1763 61.1572 24.522 61.1572C25.0698 61.1572 25.499 61.2949 25.8096 61.5703C26.1201 61.8428 26.2812 62.2192 26.293 62.6997V64.8882C26.293 65.3247 26.3486 65.6719 26.46 65.9297V66H25.6074ZM24.2583 65.3804C24.5132 65.3804 24.7549 65.3145 24.9834 65.1826C25.2119 65.0508 25.3774 64.8794 25.48 64.6685V63.6929H24.8428C23.8467 63.6929 23.3486 63.9844 23.3486 64.5674C23.3486 64.8223 23.4336 65.0215 23.6035 65.165C23.7734 65.3086 23.9917 65.3804 24.2583 65.3804ZM31.4653 61.2451V66H30.6479V61.9175H29.0308L28.9341 63.6973C28.8813 64.5146 28.7437 65.0991 28.521 65.4507C28.3013 65.8022 27.9512 65.9854 27.4707 66H27.1455V65.2837L27.3784 65.2661C27.6421 65.2368 27.8311 65.0845 27.9453 64.8091C28.0596 64.5337 28.1328 64.0239 28.165 63.2798L28.2529 61.2451H31.4653ZM33.6582 62.8843H34.8931C35.4321 62.8901 35.8584 63.0308 36.1719 63.3062C36.4854 63.5815 36.6421 63.9551 36.6421 64.4268C36.6421 64.9014 36.481 65.2822 36.1587 65.5693C35.8364 65.8564 35.4028 66 34.8579 66H32.8452V61.2451H33.6582V62.8843ZM33.6582 63.5479V65.3364H34.8667C35.1714 65.3364 35.4072 65.2588 35.5742 65.1035C35.7412 64.9453 35.8247 64.73 35.8247 64.4575C35.8247 64.1938 35.7427 63.9785 35.5786 63.8115C35.4175 63.6416 35.1904 63.5537 34.8975 63.5479H33.6582ZM41.542 66H40.729V63.9697H38.5449V66H37.7275V61.2451H38.5449V63.3062H40.729V61.2451H41.542V66ZM45.9277 61.2451H46.7407V66H45.9277V62.5327L43.7349 66H42.9219V61.2451H43.7349V64.7168L45.9277 61.2451Z" fill="#414141"/>
<path d="M43 28.6475C43 27.7213 42.4932 26.8869 41.6773 26.4697C40.8454 26.0442 39.7681 25.8285 38.4756 25.8285H24.425C24.3238 25.3236 24.0997 24.8649 23.7634 24.4911L21.7709 22.2761C21.2778 21.728 20.5693 21.3951 19.7759 21.339L19.4179 21.3137C19.2347 21.3005 19.0485 21.3264 18.8697 21.3863V20.2154C18.8697 19.8053 18.697 19.4349 18.4208 19.1724C18.7009 18.8367 18.8697 18.4052 18.8697 17.9348C18.8697 16.8679 18.0017 16 16.9349 16C15.8681 16 15 16.868 15 17.9349C15 18.4053 15.1689 18.8368 15.4489 19.1725C15.1728 19.435 15 19.8053 15 20.2155V37.6712C15 37.9732 15.2448 38.2181 15.5469 38.2181H17.4344C17.7165 38.2181 17.9523 38.0036 17.9789 37.7227C18.044 37.034 18.4082 35.1427 19.3104 34.2946H20.7748C21.0768 34.2946 21.3217 34.0497 21.3217 33.7477C21.3217 33.4457 21.0768 33.2008 20.7748 33.2008L16.0937 33.2008V28.3863L23.3932 28.3861V29.8112C23.3932 30.6544 24.0791 31.3404 24.9223 31.3404H41.4709C41.6177 31.3404 41.7655 31.3191 41.9062 31.2773V33.2008H38.8926C38.8921 33.2008 38.8917 33.2009 38.8912 33.2009H25.5867C25.2847 33.2009 25.0399 33.4457 25.0399 33.7477C25.0399 34.0497 25.2847 34.2946 25.5867 34.2946H38.6896C39.5883 35.1404 39.9548 37.0335 40.0212 37.7227C40.0478 38.0036 40.2835 38.2182 40.5656 38.2182H42.4531C42.7552 38.2182 43 37.9733 43 37.6713V28.6475ZM18.8711 23.1745C18.8792 22.9414 18.8473 22.7006 19.0393 22.5293C19.2324 22.3569 19.4641 22.4134 19.6986 22.43C20.2153 22.4666 20.6507 22.6663 20.9577 23.0076L22.9502 25.2227C23.2732 25.5816 23.4281 26.082 23.3864 26.6315C23.3704 26.843 23.3742 27.0305 23.1959 27.1798C23.033 27.3162 22.8562 27.2907 22.6601 27.2849C22.1093 27.2684 21.6281 27.0615 21.3051 26.7025L19.3125 24.4875C18.9903 24.1291 18.8544 23.6502 18.8711 23.1745ZM16.0938 27.2925V20.2155C16.0938 20.0248 16.2488 19.8697 16.4395 19.8697H17.4301C17.6208 19.8697 17.7759 20.0248 17.7759 20.2155V27.2924L16.0938 27.2925ZM18.8697 25.6305L20.3647 27.2925H18.8697V25.6305ZM16.9348 17.0938C17.3986 17.0938 17.7759 17.4711 17.7759 17.9349C17.7759 18.3987 17.3986 18.776 16.9348 18.776C16.471 18.776 16.0938 18.3987 16.0938 17.9349C16.0938 17.4711 16.471 17.0938 16.9348 17.0938ZM16.9579 37.1244H16.0938V34.2947H17.9275C17.3357 35.2635 17.0681 36.4619 16.9579 37.1244ZM24.9224 30.2467C24.6824 30.2467 24.4871 30.0514 24.4871 29.8114L24.4869 26.9222H38.4756C39.5933 26.9222 40.503 27.0976 41.1793 27.4435C41.6277 27.6727 41.9062 28.1341 41.9062 28.6475V29.8093C41.9062 29.81 41.9061 29.8107 41.9061 29.8114C41.9061 30.0515 41.7108 30.2467 41.4708 30.2467L24.9224 30.2467ZM41.0421 37.1244C40.9319 36.4619 40.6643 35.2635 40.0725 34.2947H41.9062V37.1244H41.0421Z" fill="black"/>
<path d="M23.686 33.5387C23.5728 33.2629 23.2463 33.1294 22.9717 33.2429C22.6962 33.3567 22.5619 33.6817 22.6759 33.9571C22.7899 34.2323 23.1149 34.367 23.3901 34.2529C23.6648 34.1391 23.8003 33.8134 23.686 33.5387Z" fill="black"/>
<defs>
<filter id="filter0_d_205_574" x="0" y="0" width="58" height="58" filterUnits="userSpaceOnUse" color-interpolation-filters="sRGB">
<feFlood flood-opacity="0" result="BackgroundImageFix"/>
<feColorMatrix in="SourceAlpha" type="matrix" values="0 0 0 0 0 0 0 0 0 0 0 0 0 0 0 0 0 0 127 0" result="hardAlpha"/>
<feOffset dy="2"/>
<feGaussianBlur stdDeviation="2"/>
<feColorMatrix type="matrix" values="0 0 0 0 0 0 0 0 0 0 0 0 0 0 0 0 0 0 0.07 0"/>
<feBlend mode="normal" in2="BackgroundImageFix" result="effect1_dropShadow_205_574"/>
<feBlend mode="normal" in="SourceGraphic" in2="effect1_dropShadow_205_574" result="shape"/>
</filter>
</defs>
</svg>
