<svg width="95" height="22" viewBox="0 0 95 22" fill="none" xmlns="http://www.w3.org/2000/svg">
<path d="M44.511 18.7891H43.0188V16H34.8547V18.7969H33.3547L33.3469 14.7734H34.2766C34.7662 14.2214 35.1542 13.4818 35.4407 12.5547C35.7323 11.6224 35.9146 10.6016 35.9875 9.49219L36.2375 4.625H43.0422V14.7734H44.5266L44.511 18.7891ZM35.9875 14.7734H41.5344V5.85938H37.6829L37.5188 9.20312C37.4511 10.5104 37.2766 11.625 36.9954 12.5469C36.7193 13.4688 36.3834 14.2109 35.9875 14.7734ZM49.5891 16.1562C48.4433 16.1562 47.511 15.7812 46.7922 15.0312C46.0735 14.276 45.7141 13.2682 45.7141 12.0078V11.7422C45.7141 10.9036 45.873 10.1562 46.1907 9.5C46.5136 8.83854 46.9615 8.32292 47.5344 7.95312C48.1125 7.57812 48.7375 7.39062 49.4094 7.39062C50.5084 7.39062 51.3625 7.7526 51.9719 8.47656C52.5813 9.20052 52.886 10.237 52.886 11.5859V12.1875H47.1594C47.1803 13.0208 47.4224 13.6953 47.886 14.2109C48.3547 14.7214 48.9485 14.9766 49.6672 14.9766C50.1777 14.9766 50.6099 14.8724 50.9641 14.6641C51.3183 14.4557 51.6282 14.1797 51.8938 13.8359L52.7766 14.5234C52.0683 15.612 51.0058 16.1562 49.5891 16.1562ZM49.4094 8.57812C48.8261 8.57812 48.3365 8.79167 47.9407 9.21875C47.5448 9.64062 47.3 10.2344 47.2063 11H51.4407V10.8906C51.399 10.1562 51.2011 9.58854 50.8469 9.1875C50.4928 8.78125 50.0136 8.57812 49.4094 8.57812ZM60.7532 8.71875H57.9172V16H56.4719V8.71875H53.6907V7.54688H60.7532V8.71875ZM64.925 14.9766C65.4407 14.9766 65.8912 14.8203 66.2766 14.5078C66.662 14.1953 66.8756 13.8047 66.9172 13.3359H68.2844C68.2584 13.8203 68.0917 14.2812 67.7844 14.7188C67.4771 15.1562 67.0657 15.5052 66.55 15.7656C66.0396 16.026 65.498 16.1562 64.925 16.1562C63.774 16.1562 62.8573 15.7734 62.175 15.0078C61.498 14.237 61.1594 13.1849 61.1594 11.8516V11.6094C61.1594 10.7865 61.3105 10.0547 61.6125 9.41406C61.9146 8.77344 62.3469 8.27604 62.9094 7.92188C63.4771 7.56771 64.1464 7.39062 64.9172 7.39062C65.8652 7.39062 66.6516 7.67448 67.2766 8.24219C67.9068 8.8099 68.2428 9.54688 68.2844 10.4531H66.9172C66.8756 9.90625 66.6672 9.45833 66.2922 9.10938C65.9224 8.75521 65.4641 8.57812 64.9172 8.57812C64.1829 8.57812 63.6125 8.84375 63.2063 9.375C62.8053 9.90104 62.6047 10.6641 62.6047 11.6641V11.9375C62.6047 12.9115 62.8053 13.6615 63.2063 14.1875C63.6073 14.7135 64.1803 14.9766 64.925 14.9766ZM72.5422 12.3984H71.4875V16H70.0344V7.54688H71.4875V11.125H72.4329L75.2766 7.54688H77.0266L73.6829 11.6094L77.3079 16H75.4719L72.5422 12.3984ZM83.7688 16C83.6855 15.8333 83.6178 15.5365 83.5657 15.1094C82.8938 15.8073 82.0917 16.1562 81.1594 16.1562C80.3261 16.1562 79.6412 15.9219 79.1047 15.4531C78.5735 14.9792 78.3079 14.3802 78.3079 13.6562C78.3079 12.776 78.6412 12.0938 79.3079 11.6094C79.9797 11.1198 80.9224 10.875 82.136 10.875H83.5422V10.2109C83.5422 9.70573 83.3912 9.30469 83.0891 9.00781C82.787 8.70573 82.3417 8.55469 81.7532 8.55469C81.2375 8.55469 80.8053 8.6849 80.4563 8.94531C80.1073 9.20573 79.9329 9.52083 79.9329 9.89062H78.4797C78.4797 9.46875 78.6282 9.0625 78.925 8.67188C79.2271 8.27604 79.6334 7.96354 80.1438 7.73438C80.6594 7.50521 81.2245 7.39062 81.8391 7.39062C82.8131 7.39062 83.5761 7.63542 84.1282 8.125C84.6803 8.60938 84.9667 9.27865 84.9875 10.1328V14.0234C84.9875 14.7995 85.0865 15.4167 85.2844 15.875V16H83.7688ZM81.3704 14.8984C81.8235 14.8984 82.2532 14.7812 82.6594 14.5469C83.0657 14.3125 83.3599 14.0078 83.5422 13.6328V11.8984H82.4094C80.6386 11.8984 79.7532 12.4167 79.7532 13.4531C79.7532 13.9062 79.9042 14.2604 80.2063 14.5156C80.5084 14.7708 80.8964 14.8984 81.3704 14.8984ZM93.7141 7.54688V16H92.261V12.7109H90.0813L88.0891 16H86.5266L88.6516 12.4922C88.1099 12.2943 87.6933 11.9896 87.4016 11.5781C87.1152 11.1615 86.9719 10.6771 86.9719 10.125C86.9719 9.35417 87.261 8.73438 87.8391 8.26562C88.4172 7.79167 89.1907 7.55208 90.1594 7.54688H93.7141ZM88.425 10.1406C88.425 10.5521 88.5657 10.8854 88.8469 11.1406C89.1282 11.3906 89.5006 11.5182 89.9641 11.5234H92.261V8.71875H90.1829C89.6464 8.71875 89.2193 8.85156 88.9016 9.11719C88.5839 9.3776 88.425 9.71875 88.425 10.1406Z" fill="#414141"/>
<path d="M22.7717 18.3255C22.5233 18.0729 22.1181 18.0685 21.8641 18.3145C21.8641 18.3145 21.8632 18.3149 21.862 18.3161L21.8602 18.3143L21.8639 18.3107C21.8617 18.3127 21.7854 18.3842 21.6246 18.501V8.46145C21.6246 8.1055 21.3361 7.81693 20.9801 7.81693C20.6242 7.81693 20.3356 8.1055 20.3356 8.46145V9.09862C18.0346 9.04633 16.8496 8.71517 15.7014 8.39386C14.6413 8.09717 13.64 7.81693 11.9568 7.81693C10.2736 7.81693 9.27226 8.09717 8.21219 8.39386C7.064 8.71522 5.87907 9.04637 3.57804 9.09862V5.88336C3.57804 3.57057 4.63222 1.99566 6.54641 1.44872C8.32412 0.940834 10.1995 1.67812 11.1667 3.2132C10.9322 3.32904 10.7334 3.45331 10.5707 3.58582L9.8345 2.84952C9.58283 2.59781 9.17472 2.59781 8.92301 2.84952C8.67131 3.10123 8.67131 3.50929 8.92301 3.761L9.75634 4.59432L8.92301 5.42765C8.67131 5.67935 8.67131 6.08742 8.92301 6.33913C9.17468 6.59079 9.58279 6.59083 9.8345 6.33913L10.5708 5.60287C10.7934 5.78419 11.0834 5.95022 11.4403 6.10014C12.0498 6.35601 12.7753 6.52797 13.2459 6.52797C14.3121 6.52797 15.1795 5.66057 15.1795 4.59441C15.1795 3.52824 14.3121 2.66085 13.2459 2.66085C13.0134 2.66085 12.7187 2.70291 12.4065 2.77626C11.1887 0.591332 8.62073 -0.484503 6.19235 0.20926C3.71176 0.918018 2.28904 2.98616 2.28904 5.88336V18.501C2.12826 18.3841 2.05194 18.3127 2.0498 18.3106L2.05349 18.3142L2.05173 18.316C2.05139 18.3157 2.04984 18.3142 2.04984 18.3142C1.79581 18.0683 1.39045 18.0728 1.14205 18.3254C0.892451 18.5792 0.895802 18.9872 1.14961 19.2369C1.20565 19.2926 1.93679 19.9887 3.64086 20.6654C5.34485 21.3427 8.01845 22.0002 11.9569 22C15.8953 22.0002 18.5689 21.3427 20.2729 20.6654C21.9769 19.9887 22.7081 19.2926 22.7641 19.2369C23.0179 18.9873 23.0213 18.5792 22.7717 18.3255ZM12.1081 4.21045C12.5686 4.03935 13.0291 3.9498 13.2459 3.9498C13.6013 3.9498 13.8904 4.23893 13.8904 4.59432C13.8904 4.94971 13.6013 5.23884 13.2459 5.23884C13.0291 5.23884 12.5686 5.1493 12.1081 4.9782C11.7087 4.82974 11.4836 4.68541 11.3749 4.59432C11.4836 4.50323 11.7087 4.3589 12.1081 4.21045ZM3.57809 10.3878C6.06435 10.333 7.38484 9.964 8.55963 9.63516C9.57432 9.35119 10.4506 9.10597 11.9569 9.10597C13.4631 9.10597 14.3394 9.35123 15.3541 9.63516C16.5289 9.96396 17.8494 10.333 20.3356 10.3878V16.8402H3.57809V10.3878ZM3.57809 18.1293H20.3356V19.2335C17.8845 20.3596 14.6765 20.7073 11.9569 20.7073C9.23741 20.7073 6.02933 20.3597 3.57809 19.2335V18.1293Z" fill="black"/>
<path d="M6.8002 15.5512C7.15615 15.5512 7.44473 15.2626 7.44473 14.9067V12.3286C7.44473 11.9726 7.15615 11.6841 6.8002 11.6841C6.44426 11.6841 6.15568 11.9726 6.15568 12.3286V14.9067C6.15568 15.2626 6.44426 15.5512 6.8002 15.5512Z" fill="black"/>
<path d="M9.37827 15.5512C9.73422 15.5512 10.0228 15.2626 10.0228 14.9067V12.3286C10.0228 11.9726 9.73422 11.6841 9.37827 11.6841C9.02232 11.6841 8.73375 11.9726 8.73375 12.3286V14.9067C8.73375 15.2626 9.02232 15.5512 9.37827 15.5512Z" fill="black"/>
<path d="M11.9564 15.5512C12.3123 15.5512 12.6009 15.2626 12.6009 14.9067V12.3286C12.6009 11.9726 12.3123 11.6841 11.9564 11.6841C11.6004 11.6841 11.3118 11.9726 11.3118 12.3286V14.9067C11.3118 15.2626 11.6004 15.5512 11.9564 15.5512Z" fill="black"/>
<path d="M14.5345 15.5512C14.8904 15.5512 15.179 15.2626 15.179 14.9067V12.3286C15.179 11.9726 14.8904 11.6841 14.5345 11.6841C14.1785 11.6841 13.8899 11.9726 13.8899 12.3286V14.9067C13.8899 15.2626 14.1785 15.5512 14.5345 15.5512Z" fill="black"/>
<path d="M17.1125 15.5512C17.4685 15.5512 17.757 15.2626 17.757 14.9067V12.3286C17.757 11.9726 17.4685 11.6841 17.1125 11.6841C16.7566 11.6841 16.468 11.9726 16.468 12.3286V14.9067C16.468 15.2626 16.7566 15.5512 17.1125 15.5512Z" fill="black"/>
</svg>
