<svg width="94" height="17" viewBox="0 0 94 17" fill="none" xmlns="http://www.w3.org/2000/svg">
<path d="M47.666 13.6334H46.5469V11.5416H40.4238V13.6393H39.2988L39.293 10.6217H39.9902C40.3574 10.2076 40.6484 9.65295 40.8633 8.95764C41.082 8.25842 41.2188 7.4928 41.2734 6.66077L41.4609 3.01038H46.5645V10.6217H47.6777L47.666 13.6334ZM41.2734 10.6217H45.4336V3.93616H42.5449L42.4219 6.44397C42.3711 7.42444 42.2402 8.26038 42.0293 8.95178C41.8223 9.64319 41.5703 10.1998 41.2734 10.6217ZM48.5566 8.31311C48.5566 7.69202 48.6777 7.13342 48.9199 6.63733C49.166 6.14124 49.5059 5.75842 49.9395 5.48889C50.377 5.21936 50.875 5.08459 51.4336 5.08459C52.2969 5.08459 52.9941 5.38342 53.5254 5.98108C54.0605 6.57874 54.3281 7.37366 54.3281 8.36584V8.44202C54.3281 9.0592 54.209 9.61389 53.9707 10.1061C53.7363 10.5944 53.3984 10.9752 52.957 11.2487C52.5195 11.5221 52.0156 11.6588 51.4453 11.6588C50.5859 11.6588 49.8887 11.36 49.3535 10.7623C48.8223 10.1647 48.5566 9.37366 48.5566 8.38928V8.31311ZM49.6465 8.44202C49.6465 9.14514 49.8086 9.70959 50.1328 10.1354C50.4609 10.5612 50.8984 10.774 51.4453 10.774C51.9961 10.774 52.4336 10.5592 52.7578 10.1295C53.082 9.69592 53.2441 9.09045 53.2441 8.31311C53.2441 7.6178 53.0781 7.0553 52.7461 6.62561C52.418 6.19202 51.9805 5.97522 51.4336 5.97522C50.8984 5.97522 50.4668 6.18811 50.1387 6.61389C49.8105 7.03967 49.6465 7.64905 49.6465 8.44202ZM58.2305 10.774C58.6172 10.774 58.9551 10.6569 59.2441 10.4225C59.5332 10.1881 59.6934 9.89514 59.7246 9.54358H60.75C60.7305 9.90686 60.6055 10.2526 60.375 10.5807C60.1445 10.9088 59.8359 11.1705 59.4492 11.3658C59.0664 11.5612 58.6602 11.6588 58.2305 11.6588C57.3672 11.6588 56.6797 11.3717 56.168 10.7975C55.6602 10.2194 55.4062 9.4303 55.4062 8.4303V8.24866C55.4062 7.63147 55.5195 7.08264 55.7461 6.60217C55.9727 6.1217 56.2969 5.74866 56.7188 5.48303C57.1445 5.21741 57.6465 5.08459 58.2246 5.08459C58.9355 5.08459 59.5254 5.29749 59.9941 5.72327C60.4668 6.14905 60.7188 6.70178 60.75 7.38147H59.7246C59.6934 6.97131 59.5371 6.63538 59.2559 6.37366C58.9785 6.10803 58.6348 5.97522 58.2246 5.97522C57.6738 5.97522 57.2461 6.17444 56.9414 6.57288C56.6406 6.96741 56.4902 7.53967 56.4902 8.28967V8.49475C56.4902 9.22522 56.6406 9.78772 56.9414 10.1823C57.2422 10.5768 57.6719 10.774 58.2305 10.774ZM66.6797 6.08069H64.5527V11.5416H63.4688V6.08069H61.3828V5.20178H66.6797V6.08069ZM71.5547 11.5416C71.4922 11.4166 71.4414 11.194 71.4023 10.8737C70.8984 11.3971 70.2969 11.6588 69.5977 11.6588C68.9727 11.6588 68.459 11.483 68.0566 11.1315C67.6582 10.776 67.459 10.3268 67.459 9.78381C67.459 9.12366 67.709 8.61194 68.209 8.24866C68.7129 7.88147 69.4199 7.69788 70.3301 7.69788H71.3848V7.19983C71.3848 6.82092 71.2715 6.52014 71.0449 6.29749C70.8184 6.07092 70.4844 5.95764 70.043 5.95764C69.6562 5.95764 69.332 6.0553 69.0703 6.25061C68.8086 6.44592 68.6777 6.68225 68.6777 6.95959H67.5879C67.5879 6.64319 67.6992 6.3385 67.9219 6.04553C68.1484 5.74866 68.4531 5.51428 68.8359 5.34241C69.2227 5.17053 69.6465 5.08459 70.1074 5.08459C70.8379 5.08459 71.4102 5.26819 71.8242 5.63538C72.2383 5.99866 72.4531 6.50061 72.4688 7.14124V10.0592C72.4688 10.6412 72.543 11.1041 72.6914 11.4479V11.5416H71.5547ZM69.7559 10.7155C70.0957 10.7155 70.418 10.6276 70.7227 10.4518C71.0273 10.276 71.248 10.0475 71.3848 9.76624V8.46545H70.5352C69.207 8.46545 68.543 8.85413 68.543 9.63147C68.543 9.97131 68.6562 10.2369 68.8828 10.4283C69.1094 10.6198 69.4004 10.7155 69.7559 10.7155ZM74.2676 11.5416V5.20178H76.7402C77.584 5.20178 78.2305 5.35022 78.6797 5.64709C79.1328 5.94006 79.3594 6.3717 79.3594 6.94202C79.3594 7.23499 79.2715 7.50061 79.0957 7.73889C78.9199 7.97327 78.6602 8.15295 78.3164 8.27795C78.6992 8.3678 79.0059 8.54358 79.2363 8.8053C79.4707 9.06702 79.5879 9.37952 79.5879 9.7428C79.5879 10.3248 79.373 10.7701 78.9434 11.0787C78.5176 11.3873 77.9141 11.5416 77.1328 11.5416H74.2676ZM75.3516 8.75842V10.6686H77.1445C77.5977 10.6686 77.9355 10.5846 78.1582 10.4166C78.3848 10.2487 78.498 10.0123 78.498 9.70764C78.498 9.07483 78.0332 8.75842 77.1035 8.75842H75.3516ZM75.3516 7.89124H76.752C77.7676 7.89124 78.2754 7.59436 78.2754 7.00061C78.2754 6.40686 77.7949 6.10022 76.834 6.08069H75.3516V7.89124ZM82.998 8.84045H82.207V11.5416H81.1172V5.20178H82.207V7.88538H82.916L85.0488 5.20178H86.3613L83.8535 8.24866L86.5723 11.5416H85.1953L82.998 8.84045ZM91.418 11.5416C91.3555 11.4166 91.3047 11.194 91.2656 10.8737C90.7617 11.3971 90.1602 11.6588 89.4609 11.6588C88.8359 11.6588 88.3223 11.483 87.9199 11.1315C87.5215 10.776 87.3223 10.3268 87.3223 9.78381C87.3223 9.12366 87.5723 8.61194 88.0723 8.24866C88.5762 7.88147 89.2832 7.69788 90.1934 7.69788H91.248V7.19983C91.248 6.82092 91.1348 6.52014 90.9082 6.29749C90.6816 6.07092 90.3477 5.95764 89.9062 5.95764C89.5195 5.95764 89.1953 6.0553 88.9336 6.25061C88.6719 6.44592 88.541 6.68225 88.541 6.95959H87.4512C87.4512 6.64319 87.5625 6.3385 87.7852 6.04553C88.0117 5.74866 88.3164 5.51428 88.6992 5.34241C89.0859 5.17053 89.5098 5.08459 89.9707 5.08459C90.7012 5.08459 91.2734 5.26819 91.6875 5.63538C92.1016 5.99866 92.3164 6.50061 92.332 7.14124V10.0592C92.332 10.6412 92.4062 11.1041 92.5547 11.4479V11.5416H91.418ZM89.6191 10.7155C89.959 10.7155 90.2812 10.6276 90.5859 10.4518C90.8906 10.276 91.1113 10.0475 91.248 9.76624V8.46545H90.3984C89.0703 8.46545 88.4062 8.85413 88.4062 9.63147C88.4062 9.97131 88.5195 10.2369 88.7461 10.4283C88.9727 10.6198 89.2637 10.7155 89.6191 10.7155Z" fill="#414141"/>
<path d="M7.85418 14.5H5.43751C5.10401 14.5 4.83334 14.2293 4.83334 13.8958C4.83334 13.5623 5.10401 13.2917 5.43751 13.2917H7.85418C8.18768 13.2917 8.45834 13.5623 8.45834 13.8958C8.45834 14.2293 8.18768 14.5 7.85418 14.5Z" fill="black"/>
<path d="M27.4896 14.5H25.9792C25.6457 14.5 25.375 14.2293 25.375 13.8958C25.375 13.5623 25.6457 13.2917 25.9792 13.2917H26.9881L27.8026 8.95133C27.7917 6.73042 25.8946 4.83333 23.5625 4.83333H19.5956L17.6731 13.2917H21.1459C21.4794 13.2917 21.75 13.5623 21.75 13.8958C21.75 14.2293 21.4794 14.5 21.1459 14.5H16.9167C16.733 14.5 16.559 14.4166 16.4442 14.2728C16.3294 14.1303 16.2859 13.9418 16.327 13.7629L18.5238 4.09625C18.5866 3.81954 18.8307 3.625 19.1134 3.625H23.5625C26.5604 3.625 29 6.06463 29 9.0625L28.0829 14.007C28.0297 14.2934 27.7808 14.5 27.4896 14.5Z" fill="black"/>
<path d="M23.5625 16.9167C21.8974 16.9167 20.5417 15.5621 20.5417 13.8958C20.5417 12.2295 21.8974 10.875 23.5625 10.875C25.2276 10.875 26.5833 12.2295 26.5833 13.8958C26.5833 15.5621 25.2276 16.9167 23.5625 16.9167ZM23.5625 12.0833C22.5632 12.0833 21.75 12.8965 21.75 13.8958C21.75 14.8951 22.5632 15.7083 23.5625 15.7083C24.5618 15.7083 25.375 14.8951 25.375 13.8958C25.375 12.8965 24.5618 12.0833 23.5625 12.0833Z" fill="black"/>
<path d="M10.2708 16.9167C8.60576 16.9167 7.25001 15.5621 7.25001 13.8958C7.25001 12.2295 8.60576 10.875 10.2708 10.875C11.9359 10.875 13.2917 12.2295 13.2917 13.8958C13.2917 15.5621 11.9359 16.9167 10.2708 16.9167ZM10.2708 12.0833C9.27155 12.0833 8.45834 12.8965 8.45834 13.8958C8.45834 14.8951 9.27155 15.7083 10.2708 15.7083C11.2701 15.7083 12.0833 14.8951 12.0833 13.8958C12.0833 12.8965 11.2701 12.0833 10.2708 12.0833Z" fill="black"/>
<path d="M7.85417 3.625H3.02084C2.68734 3.625 2.41667 3.35433 2.41667 3.02083C2.41667 2.68733 2.68734 2.41667 3.02084 2.41667H7.85417C8.18767 2.41667 8.45834 2.68733 8.45834 3.02083C8.45834 3.35433 8.18767 3.625 7.85417 3.625Z" fill="black"/>
<path d="M7.85418 7.25H1.81251C1.47901 7.25 1.20834 6.97933 1.20834 6.64583C1.20834 6.31233 1.47901 6.04167 1.81251 6.04167H7.85418C8.18768 6.04167 8.45834 6.31233 8.45834 6.64583C8.45834 6.97933 8.18768 7.25 7.85418 7.25Z" fill="black"/>
<path d="M7.85417 10.875H0.604167C0.270667 10.875 0 10.6043 0 10.2708C0 9.93733 0.270667 9.66667 0.604167 9.66667H7.85417C8.18767 9.66667 8.45833 9.93733 8.45833 10.2708C8.45833 10.6043 8.18767 10.875 7.85417 10.875Z" fill="black"/>
<path d="M16.9167 14.5L12.6875 14.5C12.354 14.5 12.0833 14.2293 12.0833 13.8958C12.0833 13.5623 12.354 13.2917 12.6875 13.2917H16.4346L19.1799 1.20833H5.43751C5.10401 1.20833 4.83334 0.937667 4.83334 0.604167C4.83334 0.270667 5.10401 0 5.43751 0H19.9375C20.1212 0 20.2952 0.0833752 20.41 0.227167C20.5248 0.36975 20.5683 0.55825 20.5272 0.737083L17.5063 14.0287C17.4435 14.3055 17.1982 14.5 16.9167 14.5Z" fill="black"/>
</svg>
