<svg width="103" height="18" viewBox="0 0 103 18" fill="none" xmlns="http://www.w3.org/2000/svg">
<path d="M49.1104 15.4404H47.8047V13H40.6611V15.4473H39.3486L39.3418 11.9268H40.1553C40.5837 11.4437 40.9232 10.7965 41.1738 9.98535C41.429 9.1696 41.5885 8.27637 41.6523 7.30566L41.8711 3.04688H47.8252V11.9268H49.124L49.1104 15.4404ZM41.6523 11.9268H46.5059V4.12695H43.1357L42.9922 7.05273C42.9329 8.19661 42.7803 9.17188 42.5342 9.97852C42.2926 10.7852 41.9987 11.4346 41.6523 11.9268ZM50.1494 9.2334C50.1494 8.50879 50.2907 7.8571 50.5732 7.27832C50.8604 6.69954 51.2568 6.25293 51.7627 5.93848C52.2731 5.62402 52.8542 5.4668 53.5059 5.4668C54.513 5.4668 55.3265 5.81543 55.9463 6.5127C56.5706 7.20996 56.8828 8.13737 56.8828 9.29492V9.38379C56.8828 10.1038 56.7438 10.751 56.4658 11.3252C56.1924 11.8949 55.7982 12.3392 55.2832 12.6582C54.7728 12.9772 54.1849 13.1367 53.5195 13.1367C52.5169 13.1367 51.7035 12.7881 51.0791 12.0908C50.4593 11.3936 50.1494 10.4707 50.1494 9.32227V9.2334ZM51.4209 9.38379C51.4209 10.2041 51.61 10.8626 51.9883 11.3594C52.3711 11.8561 52.8815 12.1045 53.5195 12.1045C54.1621 12.1045 54.6725 11.8538 55.0508 11.3525C55.429 10.8467 55.6182 10.1403 55.6182 9.2334C55.6182 8.4222 55.4245 7.76595 55.0371 7.26465C54.6543 6.75879 54.1439 6.50586 53.5059 6.50586C52.8815 6.50586 52.3779 6.75423 51.9951 7.25098C51.6123 7.74772 51.4209 8.45866 51.4209 9.38379ZM61.4355 12.1045C61.8867 12.1045 62.2809 11.9678 62.6182 11.6943C62.9554 11.4209 63.1423 11.0791 63.1787 10.6689H64.375C64.3522 11.0928 64.2064 11.4961 63.9375 11.8789C63.6686 12.2617 63.3086 12.5671 62.8574 12.7949C62.4108 13.0228 61.9368 13.1367 61.4355 13.1367C60.4284 13.1367 59.6263 12.8018 59.0293 12.1318C58.4368 11.4574 58.1406 10.5368 58.1406 9.37012V9.1582C58.1406 8.43815 58.2728 7.79785 58.5371 7.2373C58.8014 6.67676 59.1797 6.24154 59.6719 5.93164C60.1686 5.62174 60.7542 5.4668 61.4287 5.4668C62.2581 5.4668 62.9463 5.71517 63.4932 6.21191C64.0446 6.70866 64.3385 7.35352 64.375 8.14648H63.1787C63.1423 7.66797 62.96 7.27604 62.6318 6.9707C62.3083 6.66081 61.9072 6.50586 61.4287 6.50586C60.7861 6.50586 60.2871 6.73828 59.9316 7.20312C59.5807 7.66341 59.4053 8.33105 59.4053 9.20605V9.44531C59.4053 10.2975 59.5807 10.9538 59.9316 11.4141C60.2826 11.8743 60.7839 12.1045 61.4355 12.1045ZM71.293 6.62891H68.8115V13H67.5469V6.62891H65.1133V5.60352H71.293V6.62891ZM76.9805 13C76.9076 12.8542 76.8483 12.5944 76.8027 12.2207C76.2148 12.8314 75.513 13.1367 74.6973 13.1367C73.9681 13.1367 73.3688 12.9316 72.8994 12.5215C72.4346 12.1068 72.2021 11.5827 72.2021 10.9492C72.2021 10.179 72.4938 9.58203 73.0771 9.1582C73.665 8.72982 74.4899 8.51562 75.5518 8.51562H76.7822V7.93457C76.7822 7.49251 76.6501 7.1416 76.3857 6.88184C76.1214 6.61751 75.7318 6.48535 75.2168 6.48535C74.7656 6.48535 74.3874 6.59928 74.082 6.82715C73.7767 7.05501 73.624 7.33073 73.624 7.6543H72.3525C72.3525 7.28516 72.4824 6.92969 72.7422 6.58789C73.0065 6.24154 73.362 5.9681 73.8086 5.76758C74.2598 5.56706 74.7542 5.4668 75.292 5.4668C76.1442 5.4668 76.8118 5.68099 77.2949 6.10938C77.778 6.5332 78.0286 7.11882 78.0469 7.86621V11.2705C78.0469 11.9495 78.1335 12.4896 78.3066 12.8906V13H76.9805ZM74.8818 12.0361C75.2783 12.0361 75.6543 11.9336 76.0098 11.7285C76.3652 11.5234 76.6227 11.2568 76.7822 10.9287V9.41113H75.791C74.2415 9.41113 73.4668 9.86458 73.4668 10.7715C73.4668 11.168 73.599 11.4779 73.8633 11.7012C74.1276 11.9245 74.4671 12.0361 74.8818 12.0361ZM80.1455 13V5.60352H83.0303C84.0146 5.60352 84.7689 5.77669 85.293 6.12305C85.8216 6.46484 86.0859 6.96842 86.0859 7.63379C86.0859 7.97559 85.9834 8.28548 85.7783 8.56348C85.5732 8.83691 85.2702 9.04655 84.8691 9.19238C85.3158 9.2972 85.6735 9.50228 85.9424 9.80762C86.2158 10.113 86.3525 10.4775 86.3525 10.9014C86.3525 11.5804 86.1019 12.0999 85.6006 12.46C85.1038 12.82 84.3997 13 83.4883 13H80.1455ZM81.4102 9.75293V11.9814H83.502C84.0306 11.9814 84.4248 11.8835 84.6846 11.6875C84.9489 11.4915 85.0811 11.2158 85.0811 10.8604C85.0811 10.1221 84.5387 9.75293 83.4541 9.75293H81.4102ZM81.4102 8.74121H83.0439C84.2288 8.74121 84.8213 8.39486 84.8213 7.70215C84.8213 7.00944 84.2607 6.65169 83.1396 6.62891H81.4102V8.74121ZM90.3311 9.84863H89.4082V13H88.1367V5.60352H89.4082V8.73438H90.2354L92.7236 5.60352H94.2549L91.3291 9.1582L94.501 13H92.8945L90.3311 9.84863ZM100.154 13C100.081 12.8542 100.022 12.5944 99.9766 12.2207C99.3887 12.8314 98.6868 13.1367 97.8711 13.1367C97.1419 13.1367 96.5426 12.9316 96.0732 12.5215C95.6084 12.1068 95.376 11.5827 95.376 10.9492C95.376 10.179 95.6676 9.58203 96.251 9.1582C96.8389 8.72982 97.6637 8.51562 98.7256 8.51562H99.9561V7.93457C99.9561 7.49251 99.8239 7.1416 99.5596 6.88184C99.2952 6.61751 98.9056 6.48535 98.3906 6.48535C97.9395 6.48535 97.5612 6.59928 97.2559 6.82715C96.9505 7.05501 96.7979 7.33073 96.7979 7.6543H95.5264C95.5264 7.28516 95.6562 6.92969 95.916 6.58789C96.1803 6.24154 96.5358 5.9681 96.9824 5.76758C97.4336 5.56706 97.9281 5.4668 98.4658 5.4668C99.318 5.4668 99.9857 5.68099 100.469 6.10938C100.952 6.5332 101.202 7.11882 101.221 7.86621V11.2705C101.221 11.9495 101.307 12.4896 101.48 12.8906V13H100.154ZM98.0557 12.0361C98.4521 12.0361 98.8281 11.9336 99.1836 11.7285C99.5391 11.5234 99.7965 11.2568 99.9561 10.9287V9.41113H98.9648C97.4154 9.41113 96.6406 9.86458 96.6406 10.7715C96.6406 11.168 96.7728 11.4779 97.0371 11.7012C97.3014 11.9245 97.641 12.0361 98.0557 12.0361Z" fill="white"/>
<path d="M7.85418 14.9584H5.43751C5.10401 14.9584 4.83334 14.6877 4.83334 14.3542C4.83334 14.0207 5.10401 13.75 5.43751 13.75H7.85418C8.18768 13.75 8.45834 14.0207 8.45834 14.3542C8.45834 14.6877 8.18768 14.9584 7.85418 14.9584Z" fill="white"/>
<path d="M27.4896 14.9584H25.9792C25.6457 14.9584 25.375 14.6877 25.375 14.3542C25.375 14.0207 25.6457 13.75 25.9792 13.75H26.9881L27.8026 9.40971C27.7917 7.18879 25.8946 5.29171 23.5625 5.29171H19.5956L17.6731 13.75H21.1459C21.4794 13.75 21.75 14.0207 21.75 14.3542C21.75 14.6877 21.4794 14.9584 21.1459 14.9584H16.9167C16.733 14.9584 16.559 14.875 16.4442 14.7312C16.3294 14.5886 16.2859 14.4001 16.327 14.2213L18.5238 4.55462C18.5866 4.27792 18.8307 4.08337 19.1134 4.08337H23.5625C26.5604 4.08337 29 6.523 29 9.52087L28.0829 14.4654C28.0297 14.7517 27.7808 14.9584 27.4896 14.9584Z" fill="white"/>
<path d="M23.5625 17.375C21.8974 17.375 20.5417 16.0205 20.5417 14.3542C20.5417 12.6879 21.8974 11.3334 23.5625 11.3334C25.2276 11.3334 26.5833 12.6879 26.5833 14.3542C26.5833 16.0205 25.2276 17.375 23.5625 17.375ZM23.5625 12.5417C22.5632 12.5417 21.75 13.3549 21.75 14.3542C21.75 15.3535 22.5632 16.1667 23.5625 16.1667C24.5618 16.1667 25.375 15.3535 25.375 14.3542C25.375 13.3549 24.5618 12.5417 23.5625 12.5417Z" fill="white"/>
<path d="M10.2708 17.375C8.60576 17.375 7.25001 16.0205 7.25001 14.3542C7.25001 12.6879 8.60576 11.3334 10.2708 11.3334C11.9359 11.3334 13.2917 12.6879 13.2917 14.3542C13.2917 16.0205 11.9359 17.375 10.2708 17.375ZM10.2708 12.5417C9.27155 12.5417 8.45834 13.3549 8.45834 14.3542C8.45834 15.3535 9.27155 16.1667 10.2708 16.1667C11.2701 16.1667 12.0833 15.3535 12.0833 14.3542C12.0833 13.3549 11.2701 12.5417 10.2708 12.5417Z" fill="white"/>
<path d="M7.85417 4.08337H3.02084C2.68734 4.08337 2.41667 3.81271 2.41667 3.47921C2.41667 3.14571 2.68734 2.87504 3.02084 2.87504H7.85417C8.18767 2.87504 8.45834 3.14571 8.45834 3.47921C8.45834 3.81271 8.18767 4.08337 7.85417 4.08337Z" fill="white"/>
<path d="M7.85418 7.70837H1.81251C1.47901 7.70837 1.20834 7.43771 1.20834 7.10421C1.20834 6.77071 1.47901 6.50004 1.81251 6.50004H7.85418C8.18768 6.50004 8.45834 6.77071 8.45834 7.10421C8.45834 7.43771 8.18768 7.70837 7.85418 7.70837Z" fill="white"/>
<path d="M7.85417 11.3334H0.604167C0.270667 11.3334 0 11.0627 0 10.7292C0 10.3957 0.270667 10.125 0.604167 10.125H7.85417C8.18767 10.125 8.45833 10.3957 8.45833 10.7292C8.45833 11.0627 8.18767 11.3334 7.85417 11.3334Z" fill="white"/>
<path d="M16.9167 14.9584L12.6875 14.9584C12.354 14.9584 12.0833 14.6877 12.0833 14.3542C12.0833 14.0207 12.354 13.75 12.6875 13.75H16.4346L19.1799 1.66671H5.43751C5.10401 1.66671 4.83334 1.39604 4.83334 1.06254C4.83334 0.729041 5.10401 0.458374 5.43751 0.458374H19.9375C20.1212 0.458374 20.2952 0.541749 20.41 0.685541C20.5248 0.828124 20.5683 1.01662 20.5272 1.19546L17.5063 14.4871C17.4435 14.7638 17.1982 14.9584 16.9167 14.9584Z" fill="white"/>
</svg>
