<svg width="58" height="68" viewBox="0 0 58 68" fill="none" xmlns="http://www.w3.org/2000/svg">
<g filter="url(#filter0_d_205_578)">
<rect x="4" y="2" width="50" height="50" fill="white"/>
</g>
<path d="M10.7109 60.2959H7.62598V66H6.77783V59.6016H10.7109V60.2959ZM10.5835 63.5786C10.5835 63.1128 10.6743 62.6938 10.856 62.3218C11.0405 61.9497 11.2954 61.6626 11.6206 61.4604C11.9487 61.2583 12.3223 61.1572 12.7412 61.1572C13.3887 61.1572 13.9116 61.3813 14.3101 61.8296C14.7114 62.2778 14.9121 62.874 14.9121 63.6182V63.6753C14.9121 64.1382 14.8228 64.5542 14.644 64.9233C14.4683 65.2896 14.2148 65.5752 13.8838 65.7803C13.5557 65.9854 13.1777 66.0879 12.75 66.0879C12.1055 66.0879 11.5825 65.8638 11.1812 65.4155C10.7827 64.9673 10.5835 64.374 10.5835 63.6357V63.5786ZM11.4009 63.6753C11.4009 64.2026 11.5225 64.626 11.7656 64.9453C12.0117 65.2646 12.3398 65.4243 12.75 65.4243C13.1631 65.4243 13.4912 65.2632 13.7344 64.9409C13.9775 64.6157 14.0991 64.1616 14.0991 63.5786C14.0991 63.0571 13.9746 62.6353 13.7256 62.313C13.4795 61.9878 13.1514 61.8252 12.7412 61.8252C12.3398 61.8252 12.0161 61.9849 11.77 62.3042C11.5239 62.6235 11.4009 63.0806 11.4009 63.6753ZM17.8389 65.4243C18.1289 65.4243 18.3823 65.3364 18.5991 65.1606C18.8159 64.9849 18.936 64.7651 18.9595 64.5015H19.7285C19.7139 64.7739 19.6201 65.0332 19.4473 65.2793C19.2744 65.5254 19.043 65.7217 18.7529 65.8682C18.4658 66.0146 18.1611 66.0879 17.8389 66.0879C17.1914 66.0879 16.6758 65.8726 16.292 65.4419C15.9111 65.0083 15.7207 64.4165 15.7207 63.6665V63.5303C15.7207 63.0674 15.8057 62.6558 15.9756 62.2954C16.1455 61.9351 16.3887 61.6553 16.7051 61.4561C17.0244 61.2568 17.4009 61.1572 17.8345 61.1572C18.3677 61.1572 18.8101 61.3169 19.1616 61.6362C19.5161 61.9556 19.7051 62.3701 19.7285 62.8799H18.9595C18.936 62.5723 18.8188 62.3203 18.6079 62.124C18.3999 61.9248 18.1421 61.8252 17.8345 61.8252C17.4214 61.8252 17.1006 61.9746 16.8721 62.2734C16.6465 62.5693 16.5337 62.9985 16.5337 63.561V63.7148C16.5337 64.2627 16.6465 64.6846 16.8721 64.9805C17.0977 65.2764 17.4199 65.4243 17.8389 65.4243ZM24.1758 61.9043H22.5806V66H21.7676V61.9043H20.2031V61.2451H24.1758V61.9043ZM28.043 61.2451H28.856V66H28.043V62.5327L25.8501 66H25.0371V61.2451H25.8501V64.7168L28.043 61.2451ZM34.0459 66H33.2329V63.9697H31.0488V66H30.2314V61.2451H31.0488V63.3062H33.2329V61.2451H34.0459V66ZM39.2402 66H38.4272V63.9697H36.2432V66H35.4258V61.2451H36.2432V63.3062H38.4272V61.2451H39.2402V66ZM41.4375 62.8843H42.6724C43.2114 62.8901 43.6377 63.0308 43.9512 63.3062C44.2646 63.5815 44.4214 63.9551 44.4214 64.4268C44.4214 64.9014 44.2603 65.2822 43.938 65.5693C43.6157 65.8564 43.1821 66 42.6372 66H40.6245V61.2451H41.4375V62.8843ZM46.1177 66H45.3003V61.2451H46.1177V66ZM41.4375 63.5479V65.3364H42.646C42.9507 65.3364 43.1865 65.2588 43.3535 65.1035C43.5205 64.9453 43.604 64.73 43.604 64.4575C43.604 64.1938 43.522 63.9785 43.3579 63.8115C43.1968 63.6416 42.9697 63.5537 42.6768 63.5479H41.4375ZM49.5103 66.0879C48.8657 66.0879 48.3413 65.877 47.937 65.4551C47.5327 65.0303 47.3306 64.4634 47.3306 63.7544V63.605C47.3306 63.1333 47.4199 62.7129 47.5986 62.3438C47.7803 61.9717 48.0322 61.6816 48.3545 61.4736C48.6797 61.2627 49.0312 61.1572 49.4092 61.1572C50.0273 61.1572 50.5078 61.3608 50.8506 61.7681C51.1934 62.1753 51.3647 62.7583 51.3647 63.5171V63.8555H48.1436C48.1553 64.3242 48.2915 64.7036 48.5522 64.9937C48.8159 65.2808 49.1499 65.4243 49.5542 65.4243C49.8413 65.4243 50.0845 65.3657 50.2837 65.2485C50.4829 65.1313 50.6572 64.9761 50.8066 64.7827L51.3032 65.1694C50.9048 65.7817 50.3071 66.0879 49.5103 66.0879ZM49.4092 61.8252C49.0811 61.8252 48.8057 61.9453 48.583 62.1855C48.3604 62.4229 48.2227 62.7568 48.1699 63.1875H50.5518V63.126C50.5283 62.7129 50.417 62.3936 50.2178 62.168C50.0186 61.9395 49.749 61.8252 49.4092 61.8252Z" fill="#414141"/>
<path d="M43.5312 31.9375H42.125V29.125H43.0625C43.3214 29.1249 43.5311 28.9149 43.531 28.656C43.531 28.6304 43.5289 28.6047 43.5247 28.5794L43.0559 25.7669C43.0184 25.5408 42.8229 25.3751 42.5938 25.375H40.7188C40.4896 25.3751 40.2941 25.5408 40.2566 25.7669L39.7878 28.5794C39.7453 28.8347 39.9179 29.0762 40.1734 29.1187C40.1987 29.1229 40.2243 29.125 40.25 29.125H41.1875V31.9375H39.3125C39.2967 31.9397 39.281 31.9428 39.2656 31.9469C39.0455 30.8525 38.0851 30.0644 36.9688 30.0625H36.0312V28.6562C36.0312 27.8796 35.4017 27.25 34.625 27.25H30.875C30.0983 27.25 29.4688 27.8796 29.4688 28.6562V30.0625H28.5312V28.6562C28.5312 27.8796 27.9017 27.25 27.125 27.25H23.375C22.5983 27.25 21.9688 27.8796 21.9688 28.6562V30.0625H21.0312C19.9149 30.0644 18.9545 30.8525 18.7344 31.9469C18.719 31.9428 18.7033 31.9397 18.6875 31.9375H16.8125V29.125H17.75C18.0089 29.1249 18.2186 28.9149 18.2185 28.656C18.2185 28.6304 18.2164 28.6047 18.2122 28.5794L17.7434 25.7669C17.7059 25.5408 17.5104 25.3751 17.2812 25.375H15.4062C15.1771 25.3751 14.9816 25.5408 14.9441 25.7669L14.4753 28.5794C14.4328 28.8347 14.6054 29.0762 14.8609 29.1187C14.8862 29.1229 14.9118 29.125 14.9375 29.125H15.875V31.9375H14.4688C14.2099 31.9375 14 32.1474 14 32.4062V37.5625C14 37.8214 14.2099 38.0312 14.4688 38.0312H43.5312C43.7901 38.0312 44 37.8214 44 37.5625V32.4062C44 32.1474 43.7901 31.9375 43.5312 31.9375ZM15.4911 28.1875L15.8033 26.3125H16.8842L17.1964 28.1875H15.4911ZM18.2188 37.0938H14.9375V32.875H18.2188V37.0938ZM30.4062 28.6562C30.4062 28.3974 30.6161 28.1875 30.875 28.1875H34.625C34.8839 28.1875 35.0938 28.3974 35.0938 28.6562V30.0625H30.4062V28.6562ZM22.9062 28.6562C22.9062 28.3974 23.1161 28.1875 23.375 28.1875H27.125C27.3839 28.1875 27.5938 28.3974 27.5938 28.6562V30.0625H22.9062V28.6562ZM38.375 37.0938H19.625V35.6875H38.375V37.0938ZM38.375 34.75H19.625V32.4062C19.625 31.6296 20.2546 31 21.0312 31H36.9688C37.7454 31 38.375 31.6296 38.375 32.4062V34.75ZM40.8036 28.1875L41.1158 26.3125H42.1967L42.5089 28.1875H40.8036ZM43.0625 37.0938H39.7812V32.875H43.0625V37.0938Z" fill="black"/>
<path d="M23.375 24.4375H33.6875C33.9464 24.4375 34.1562 24.2276 34.1562 23.9688V16.4688C34.1562 16.2099 33.9464 16 33.6875 16H23.375C23.1161 16 22.9062 16.2099 22.9062 16.4688V23.9688C22.9062 24.2276 23.1161 24.4375 23.375 24.4375ZM23.8438 16.9375H33.2188V21.6944L32.1786 20.3945C32.0954 20.2903 31.9719 20.2264 31.8387 20.2188C31.7058 20.2129 31.5764 20.2622 31.4811 20.3552L29.9375 21.8997L26.9877 18.9498C26.8145 18.7769 26.5374 18.7663 26.3516 18.9255L23.8438 21.0752V16.9375ZM23.8438 22.3089L26.6314 19.9183L29.6061 22.8925C29.7891 23.0755 30.0859 23.0755 30.2689 22.8925L31.7736 21.3878L33.2188 23.1962V23.5H23.8438V22.3089Z" fill="black"/>
<path d="M30.4062 20.2188C31.1829 20.2188 31.8125 19.5892 31.8125 18.8125C31.8125 18.0358 31.1829 17.4062 30.4062 17.4062C29.6296 17.4062 29 18.0358 29 18.8125C29 19.5892 29.6296 20.2188 30.4062 20.2188ZM30.4062 18.3438C30.6651 18.3438 30.875 18.5536 30.875 18.8125C30.875 19.0714 30.6651 19.2812 30.4062 19.2812C30.1474 19.2812 29.9375 19.0714 29.9375 18.8125C29.9375 18.5536 30.1474 18.3438 30.4062 18.3438Z" fill="black"/>
<defs>
<filter id="filter0_d_205_578" x="0" y="0" width="58" height="58" filterUnits="userSpaceOnUse" color-interpolation-filters="sRGB">
<feFlood flood-opacity="0" result="BackgroundImageFix"/>
<feColorMatrix in="SourceAlpha" type="matrix" values="0 0 0 0 0 0 0 0 0 0 0 0 0 0 0 0 0 0 127 0" result="hardAlpha"/>
<feOffset dy="2"/>
<feGaussianBlur stdDeviation="2"/>
<feColorMatrix type="matrix" values="0 0 0 0 0 0 0 0 0 0 0 0 0 0 0 0 0 0 0.07 0"/>
<feBlend mode="normal" in2="BackgroundImageFix" result="effect1_dropShadow_205_578"/>
<feBlend mode="normal" in="SourceGraphic" in2="effect1_dropShadow_205_578" result="shape"/>
</filter>
</defs>
</svg>
