<svg width="58" height="68" viewBox="0 0 58 68" fill="none" xmlns="http://www.w3.org/2000/svg">
<g filter="url(#filter0_d_205_570)">
<rect x="4" y="2" width="50" height="50" fill="white"/>
</g>
<path d="M19.4038 63.126H18.626V66H17.7822V59.6016H18.626V62.4229H19.2852L21.522 59.6016H22.5723L20.1289 62.7041L22.7524 66H21.7197L19.4038 63.126ZM24.7783 64.8091L25.8857 61.2451H26.7559L24.8442 66.7339C24.5483 67.5249 24.0781 67.9204 23.4336 67.9204L23.2798 67.9072L22.9766 67.8501V67.1909L23.1963 67.2085C23.4717 67.2085 23.6855 67.1528 23.8379 67.0415C23.9932 66.9302 24.1206 66.7266 24.2202 66.4307L24.4004 65.9473L22.7041 61.2451H23.5918L24.7783 64.8091ZM29.0806 62.981L30.1353 61.2451H31.0845L29.5288 63.5962L31.1328 66H30.1924L29.0938 64.2202L27.9951 66H27.0503L28.6543 63.5962L27.0986 61.2451H28.0391L29.0806 62.981ZM35.835 66H35.022V63.9697H32.8379V66H32.0205V61.2451H32.8379V63.3062H35.022V61.2451H35.835V66ZM40.2207 61.2451H41.0337V66H40.2207V62.5327L38.0278 66H37.2148V61.2451H38.0278V64.7168L40.2207 61.2451Z" fill="#414141"/>
<path d="M29.5 15V27.9375H18V38H41V15H29.5ZM29.5 36.5625H19.4375V29.375H29.5V36.5625ZM39.5625 36.5625H30.9375V22.1875H39.5625V36.5625ZM39.5625 20.75H30.9375V16.4375H39.5625V20.75Z" fill="black"/>
<path d="M28.0625 19.7337L26.625 18.2962V15H25.1875V18.8913L26.625 20.3288V20.75H20.875V20.3288L22.3125 18.8913V15H20.875V18.2962L19.4375 19.7337V22.1875H28.0625V19.7337Z" fill="black"/>
<path d="M26.625 30.8125H22.3125V32.25H26.625V30.8125Z" fill="black"/>
<path d="M33.8125 17.875H32.375V19.3125H33.8125V17.875Z" fill="black"/>
<path d="M33.8125 25.0625H32.375V29.375H33.8125V25.0625Z" fill="black"/>
<path d="M20.875 23.625H19.4375V25.0625H20.875V23.625Z" fill="black"/>
<path d="M24.4688 23.625H23.0312V25.0625H24.4688V23.625Z" fill="black"/>
<path d="M28.0625 23.625H26.625V25.0625H28.0625V23.625Z" fill="black"/>
<defs>
<filter id="filter0_d_205_570" x="0" y="0" width="58" height="58" filterUnits="userSpaceOnUse" color-interpolation-filters="sRGB">
<feFlood flood-opacity="0" result="BackgroundImageFix"/>
<feColorMatrix in="SourceAlpha" type="matrix" values="0 0 0 0 0 0 0 0 0 0 0 0 0 0 0 0 0 0 127 0" result="hardAlpha"/>
<feOffset dy="2"/>
<feGaussianBlur stdDeviation="2"/>
<feColorMatrix type="matrix" values="0 0 0 0 0 0 0 0 0 0 0 0 0 0 0 0 0 0 0.07 0"/>
<feBlend mode="normal" in2="BackgroundImageFix" result="effect1_dropShadow_205_570"/>
<feBlend mode="normal" in="SourceGraphic" in2="effect1_dropShadow_205_570" result="shape"/>
</filter>
</defs>
</svg>
