<svg width="24" height="68" viewBox="0 0 24 68" fill="none" xmlns="http://www.w3.org/2000/svg">
<g filter="url(#filter0_d_205_582)">
<rect x="4" y="2" width="50" height="50" fill="white"/>
</g>
<path d="M13.6294 66H12.7812V60.2959H9.62598V66H8.78223V59.6016H13.6294V66ZM19.0566 63.6753C19.0566 64.3989 18.8911 64.9819 18.5601 65.4243C18.229 65.8667 17.7808 66.0879 17.2153 66.0879C16.6382 66.0879 16.1841 65.9048 15.853 65.5386V67.8281H15.04V61.2451H15.7827L15.8223 61.7725C16.1533 61.3623 16.6133 61.1572 17.2021 61.1572C17.7734 61.1572 18.2246 61.3726 18.5557 61.8032C18.8896 62.2339 19.0566 62.833 19.0566 63.6006V63.6753ZM18.2437 63.583C18.2437 63.0469 18.1294 62.6235 17.9009 62.313C17.6724 62.0024 17.3589 61.8472 16.9604 61.8472C16.4683 61.8472 16.0991 62.0654 15.853 62.502V64.7739C16.0962 65.2075 16.4683 65.4243 16.9692 65.4243C17.3589 65.4243 17.668 65.2705 17.8965 64.9629C18.1279 64.6523 18.2437 64.1924 18.2437 63.583ZM23.1699 61.2451H23.9829V66H23.1699V62.5327L20.9771 66H20.1641V61.2451H20.9771V64.7168L23.1699 61.2451ZM26.8833 62.981L27.938 61.2451H28.8872L27.3315 63.5962L28.9355 66H27.9951L26.8965 64.2202L25.7979 66H24.853L26.457 63.5962L24.9014 61.2451H25.8418L26.8833 62.981ZM29.4497 63.5786C29.4497 63.1128 29.5405 62.6938 29.7222 62.3218C29.9067 61.9497 30.1616 61.6626 30.4868 61.4604C30.8149 61.2583 31.1885 61.1572 31.6074 61.1572C32.2549 61.1572 32.7778 61.3813 33.1763 61.8296C33.5776 62.2778 33.7783 62.874 33.7783 63.6182V63.6753C33.7783 64.1382 33.689 64.5542 33.5103 64.9233C33.3345 65.2896 33.0811 65.5752 32.75 65.7803C32.4219 65.9854 32.0439 66.0879 31.6162 66.0879C30.9717 66.0879 30.4487 65.8638 30.0474 65.4155C29.6489 64.9673 29.4497 64.374 29.4497 63.6357V63.5786ZM30.2671 63.6753C30.2671 64.2026 30.3887 64.626 30.6318 64.9453C30.8779 65.2646 31.2061 65.4243 31.6162 65.4243C32.0293 65.4243 32.3574 65.2632 32.6006 64.9409C32.8438 64.6157 32.9653 64.1616 32.9653 63.5786C32.9653 63.0571 32.8408 62.6353 32.5918 62.313C32.3457 61.9878 32.0176 61.8252 31.6074 61.8252C31.2061 61.8252 30.8823 61.9849 30.6362 62.3042C30.3901 62.6235 30.2671 63.0806 30.2671 63.6753ZM38.4937 63.9346H37.9224V66H37.1094V63.9346H36.5381L35.2065 66H34.1782L35.8789 63.5391L34.3408 61.2451H35.3252L36.5513 63.2139H37.1094V61.2451H37.9224V63.2139H38.4761L39.7109 61.2451H40.6953L39.1528 63.5435L40.8535 66H39.8252L38.4937 63.9346ZM44.668 61.2451H45.481V66H44.668V62.5327L42.4751 66H41.6621V61.2451H42.4751V64.7168L44.668 61.2451ZM48.7593 66.0879C48.1147 66.0879 47.5903 65.877 47.186 65.4551C46.7817 65.0303 46.5796 64.4634 46.5796 63.7544V63.605C46.5796 63.1333 46.6689 62.7129 46.8477 62.3438C47.0293 61.9717 47.2812 61.6816 47.6035 61.4736C47.9287 61.2627 48.2803 61.1572 48.6582 61.1572C49.2764 61.1572 49.7568 61.3608 50.0996 61.7681C50.4424 62.1753 50.6138 62.7583 50.6138 63.5171V63.8555H47.3926C47.4043 64.3242 47.5405 64.7036 47.8013 64.9937C48.0649 65.2808 48.3989 65.4243 48.8032 65.4243C49.0903 65.4243 49.3335 65.3657 49.5327 65.2485C49.7319 65.1313 49.9062 64.9761 50.0557 64.7827L50.5522 65.1694C50.1538 65.7817 49.5562 66.0879 48.7593 66.0879ZM48.6582 61.8252C48.3301 61.8252 48.0547 61.9453 47.832 62.1855C47.6094 62.4229 47.4717 62.7568 47.4189 63.1875H49.8008V63.126C49.7773 62.7129 49.666 62.3936 49.4668 62.168C49.2676 61.9395 48.998 61.8252 48.6582 61.8252Z" fill="#414141"/>
<path d="M39.2695 16H18.6445C18.2886 16 18 16.2886 18 16.6445C18 17.0005 18.2886 17.2891 18.6445 17.2891H18.6875V37.3555C18.6875 37.7114 18.9761 38 19.332 38C19.688 38 19.9766 37.7114 19.9766 37.3555V36.9688H37.9375V37.3555C37.9375 37.7114 38.2261 38 38.582 38C38.938 38 39.2266 37.7114 39.2266 37.3555V17.2891H39.2695C39.6255 17.2891 39.9141 17.0005 39.9141 16.6445C39.9141 16.2886 39.6255 16 39.2695 16ZM29.6016 29.3633H37.9375V31.8555H29.6016V29.3633ZM37.9375 28.0742H29.6016V25.582H37.9375V28.0742ZM28.3125 35.6797H24.7891V17.2891H28.3125V35.6797ZM19.9766 17.2891H23.5V35.6797H19.9766V17.2891ZM29.6016 35.6797V33.1445H37.9375V35.6797H29.6016ZM37.9375 24.293H29.6016V17.2891H37.9375V24.293Z" fill="black"/>
<path d="M26.5508 27.6445C26.9067 27.6445 27.1953 27.356 27.1953 27C27.1953 26.644 26.9067 26.3555 26.5508 26.3555C26.1948 26.3555 25.9062 26.644 25.9062 27C25.9062 27.356 26.1948 27.6445 26.5508 27.6445Z" fill="black"/>
<path d="M21.7383 27.6446C22.0942 27.6446 22.3828 27.356 22.3828 27C22.3828 26.6441 22.0942 26.3555 21.7383 26.3555C21.3823 26.3555 21.0938 26.6441 21.0938 27C21.0938 27.356 21.3823 27.6446 21.7383 27.6446Z" fill="black"/>
<defs>
<filter id="filter0_d_205_582" x="0" y="0" width="58" height="58" filterUnits="userSpaceOnUse" color-interpolation-filters="sRGB">
<feFlood flood-opacity="0" result="BackgroundImageFix"/>
<feColorMatrix in="SourceAlpha" type="matrix" values="0 0 0 0 0 0 0 0 0 0 0 0 0 0 0 0 0 0 127 0" result="hardAlpha"/>
<feOffset dy="2"/>
<feGaussianBlur stdDeviation="2"/>
<feColorMatrix type="matrix" values="0 0 0 0 0 0 0 0 0 0 0 0 0 0 0 0 0 0 0.07 0"/>
<feBlend mode="normal" in2="BackgroundImageFix" result="effect1_dropShadow_205_582"/>
<feBlend mode="normal" in="SourceGraphic" in2="effect1_dropShadow_205_582" result="shape"/>
</filter>
</defs>
</svg>
