<svg width="140" height="19" viewBox="0 0 140 19" fill="none" xmlns="http://www.w3.org/2000/svg">
<path d="M35.8633 6.64453C35.8633 7.14128 35.7311 7.58333 35.4668 7.9707C35.207 8.35807 34.8538 8.66113 34.4072 8.87988C34.9268 9.10319 35.3369 9.42904 35.6377 9.85742C35.943 10.2858 36.0957 10.7712 36.0957 11.3135C36.0957 12.1748 35.804 12.8607 35.2207 13.3711C34.6419 13.8815 33.8786 14.1367 32.9307 14.1367C31.9736 14.1367 31.2057 13.8815 30.627 13.3711C30.0527 12.8561 29.7656 12.1702 29.7656 11.3135C29.7656 10.7757 29.9115 10.2904 30.2031 9.85742C30.4993 9.42448 30.9072 9.09635 31.4268 8.87305C30.9847 8.6543 30.6361 8.35124 30.3809 7.96387C30.1257 7.5765 29.998 7.13672 29.998 6.64453C29.998 5.80599 30.2669 5.14062 30.8047 4.64844C31.3424 4.15625 32.0511 3.91016 32.9307 3.91016C33.8057 3.91016 34.512 4.15625 35.0498 4.64844C35.5921 5.14062 35.8633 5.80599 35.8633 6.64453ZM34.8311 11.2861C34.8311 10.7301 34.6533 10.2767 34.2979 9.92578C33.9469 9.57487 33.4867 9.39941 32.917 9.39941C32.3473 9.39941 31.8893 9.57259 31.543 9.91895C31.2012 10.2653 31.0303 10.721 31.0303 11.2861C31.0303 11.8512 31.1966 12.2956 31.5293 12.6191C31.8665 12.9427 32.3337 13.1045 32.9307 13.1045C33.5231 13.1045 33.988 12.9427 34.3252 12.6191C34.6624 12.291 34.8311 11.8467 34.8311 11.2861ZM32.9307 4.94922C32.4339 4.94922 32.0306 5.10417 31.7207 5.41406C31.4154 5.7194 31.2627 6.13639 31.2627 6.66504C31.2627 7.1709 31.4131 7.58105 31.7139 7.89551C32.0192 8.2054 32.4248 8.36035 32.9307 8.36035C33.4365 8.36035 33.8398 8.2054 34.1406 7.89551C34.446 7.58105 34.5986 7.1709 34.5986 6.66504C34.5986 6.15918 34.4414 5.74674 34.127 5.42773C33.8125 5.10872 33.4137 4.94922 32.9307 4.94922ZM41.2432 9.95996C41.2432 8.93001 41.3799 7.94108 41.6533 6.99316C41.9313 6.04525 42.3438 5.18392 42.8906 4.40918C43.4375 3.63444 44.0049 3.08757 44.5928 2.76855L44.8525 3.60254C44.1872 4.11296 43.6403 4.89225 43.2119 5.94043C42.7881 6.98861 42.5557 8.16211 42.5146 9.46094L42.5078 10.042C42.5078 11.8011 42.8291 13.3278 43.4717 14.6221C43.859 15.3968 44.3193 16.0029 44.8525 16.4404L44.5928 17.2129C43.9867 16.8757 43.4079 16.3105 42.8564 15.5176C41.7809 13.9681 41.2432 12.1156 41.2432 9.95996ZM50.793 9.625C50.5286 9.93945 50.2119 10.1924 49.8428 10.3838C49.4782 10.5752 49.0771 10.6709 48.6396 10.6709C48.0654 10.6709 47.5641 10.5296 47.1357 10.2471C46.7119 9.96452 46.3838 9.56803 46.1514 9.05762C45.9189 8.54264 45.8027 7.97526 45.8027 7.35547C45.8027 6.6901 45.9281 6.09082 46.1787 5.55762C46.4339 5.02441 46.7939 4.61654 47.2588 4.33398C47.7236 4.05143 48.266 3.91016 48.8857 3.91016C49.8701 3.91016 50.6449 4.2793 51.21 5.01758C51.7796 5.7513 52.0645 6.75391 52.0645 8.02539V8.39453C52.0645 10.3314 51.6816 11.7464 50.916 12.6396C50.1504 13.5283 48.9951 13.984 47.4502 14.0068H47.2041V12.9404H47.4707C48.5143 12.9222 49.3164 12.651 49.877 12.127C50.4375 11.5983 50.7428 10.7643 50.793 9.625ZM48.8447 9.625C49.2686 9.625 49.6582 9.49512 50.0137 9.23535C50.3737 8.97559 50.6357 8.6543 50.7998 8.27148V7.76562C50.7998 6.9362 50.6198 6.26172 50.2598 5.74219C49.8997 5.22266 49.444 4.96289 48.8926 4.96289C48.3366 4.96289 47.89 5.17708 47.5527 5.60547C47.2155 6.0293 47.0469 6.58984 47.0469 7.28711C47.0469 7.96615 47.2087 8.52669 47.5322 8.96875C47.8604 9.40625 48.2979 9.625 48.8447 9.625ZM58.7705 4.04004V5.11328H58.5381C57.5537 5.13151 56.7699 5.42318 56.1865 5.98828C55.6032 6.55339 55.266 7.34863 55.1748 8.37402C55.6989 7.77246 56.4144 7.47168 57.3213 7.47168C58.1872 7.47168 58.8776 7.77702 59.3926 8.3877C59.9121 8.99837 60.1719 9.78678 60.1719 10.7529C60.1719 11.7783 59.8916 12.5986 59.3311 13.2139C58.7751 13.8291 58.0277 14.1367 57.0889 14.1367C56.1364 14.1367 55.3639 13.7721 54.7715 13.043C54.179 12.3092 53.8828 11.3659 53.8828 10.2129V9.72754C53.8828 7.89551 54.2725 6.49642 55.0518 5.53027C55.8356 4.55957 57 4.06283 58.5449 4.04004H58.7705ZM57.1094 8.52441C56.6764 8.52441 56.2777 8.6543 55.9131 8.91406C55.5485 9.17383 55.2956 9.49967 55.1543 9.8916V10.3564C55.1543 11.1768 55.3389 11.8376 55.708 12.3389C56.0771 12.8402 56.5374 13.0908 57.0889 13.0908C57.6585 13.0908 58.1051 12.8812 58.4287 12.4619C58.7568 12.0426 58.9209 11.4935 58.9209 10.8145C58.9209 10.1309 58.7546 9.57943 58.4219 9.16016C58.0938 8.73633 57.6562 8.52441 57.1094 8.52441ZM67.0078 10.6572H68.3887V11.6895H67.0078V14H65.7363V11.6895H61.2041V10.9443L65.6611 4.04688H67.0078V10.6572ZM62.6396 10.6572H65.7363V5.77637L65.5859 6.0498L62.6396 10.6572ZM72.5791 10.0283C72.5791 11.0446 72.4447 12.0199 72.1758 12.9541C71.9115 13.8838 71.5036 14.7428 70.9521 15.5312C70.4053 16.3197 69.8311 16.8802 69.2295 17.2129L68.9629 16.4404C69.6647 15.9027 70.2275 15.0687 70.6514 13.9385C71.0798 12.8037 71.2985 11.5459 71.3076 10.165V9.94629C71.3076 8.98926 71.2074 8.10059 71.0068 7.28027C70.8063 6.4554 70.526 5.71712 70.166 5.06543C69.8105 4.41374 69.4095 3.9056 68.9629 3.54102L69.2295 2.76855C69.8311 3.10124 70.403 3.65723 70.9453 4.43652C71.4922 5.21582 71.9001 6.07487 72.1689 7.01367C72.4424 7.95247 72.5791 8.95736 72.5791 10.0283ZM83.9062 6.64453C83.9062 7.14128 83.7741 7.58333 83.5098 7.9707C83.25 8.35807 82.8968 8.66113 82.4502 8.87988C82.9697 9.10319 83.3799 9.42904 83.6807 9.85742C83.986 10.2858 84.1387 10.7712 84.1387 11.3135C84.1387 12.1748 83.847 12.8607 83.2637 13.3711C82.6849 13.8815 81.9215 14.1367 80.9736 14.1367C80.0166 14.1367 79.2487 13.8815 78.6699 13.3711C78.0957 12.8561 77.8086 12.1702 77.8086 11.3135C77.8086 10.7757 77.9544 10.2904 78.2461 9.85742C78.5423 9.42448 78.9502 9.09635 79.4697 8.87305C79.0277 8.6543 78.679 8.35124 78.4238 7.96387C78.1686 7.5765 78.041 7.13672 78.041 6.64453C78.041 5.80599 78.3099 5.14062 78.8477 4.64844C79.3854 4.15625 80.0941 3.91016 80.9736 3.91016C81.8486 3.91016 82.555 4.15625 83.0928 4.64844C83.6351 5.14062 83.9062 5.80599 83.9062 6.64453ZM82.874 11.2861C82.874 10.7301 82.6963 10.2767 82.3408 9.92578C81.9899 9.57487 81.5296 9.39941 80.96 9.39941C80.3903 9.39941 79.9323 9.57259 79.5859 9.91895C79.2441 10.2653 79.0732 10.721 79.0732 11.2861C79.0732 11.8512 79.2396 12.2956 79.5723 12.6191C79.9095 12.9427 80.3766 13.1045 80.9736 13.1045C81.5661 13.1045 82.0309 12.9427 82.3682 12.6191C82.7054 12.291 82.874 11.8467 82.874 11.2861ZM80.9736 4.94922C80.4769 4.94922 80.0736 5.10417 79.7637 5.41406C79.4583 5.7194 79.3057 6.13639 79.3057 6.66504C79.3057 7.1709 79.4561 7.58105 79.7568 7.89551C80.0622 8.2054 80.4678 8.36035 80.9736 8.36035C81.4795 8.36035 81.8828 8.2054 82.1836 7.89551C82.4889 7.58105 82.6416 7.1709 82.6416 6.66504C82.6416 6.15918 82.4844 5.74674 82.1699 5.42773C81.8555 5.10872 81.4567 4.94922 80.9736 4.94922ZM90.5781 9.625C90.3138 9.93945 89.9971 10.1924 89.6279 10.3838C89.2633 10.5752 88.8623 10.6709 88.4248 10.6709C87.8506 10.6709 87.3493 10.5296 86.9209 10.2471C86.4971 9.96452 86.1689 9.56803 85.9365 9.05762C85.7041 8.54264 85.5879 7.97526 85.5879 7.35547C85.5879 6.6901 85.7132 6.09082 85.9639 5.55762C86.2191 5.02441 86.5791 4.61654 87.0439 4.33398C87.5088 4.05143 88.0511 3.91016 88.6709 3.91016C89.6553 3.91016 90.43 4.2793 90.9951 5.01758C91.5648 5.7513 91.8496 6.75391 91.8496 8.02539V8.39453C91.8496 10.3314 91.4668 11.7464 90.7012 12.6396C89.9355 13.5283 88.7803 13.984 87.2354 14.0068H86.9893V12.9404H87.2559C88.2995 12.9222 89.1016 12.651 89.6621 12.127C90.2227 11.5983 90.528 10.7643 90.5781 9.625ZM88.6299 9.625C89.0537 9.625 89.4434 9.49512 89.7988 9.23535C90.1589 8.97559 90.4209 8.6543 90.585 8.27148V7.76562C90.585 6.9362 90.4049 6.26172 90.0449 5.74219C89.6849 5.22266 89.2292 4.96289 88.6777 4.96289C88.1217 4.96289 87.6751 5.17708 87.3379 5.60547C87.0007 6.0293 86.832 6.58984 86.832 7.28711C86.832 7.96615 86.9938 8.52669 87.3174 8.96875C87.6455 9.40625 88.083 9.625 88.6299 9.625ZM101.912 9.625C101.648 9.93945 101.331 10.1924 100.962 10.3838C100.597 10.5752 100.196 10.6709 99.7588 10.6709C99.1846 10.6709 98.6833 10.5296 98.2549 10.2471C97.8311 9.96452 97.5029 9.56803 97.2705 9.05762C97.0381 8.54264 96.9219 7.97526 96.9219 7.35547C96.9219 6.6901 97.0472 6.09082 97.2979 5.55762C97.5531 5.02441 97.9131 4.61654 98.3779 4.33398C98.8428 4.05143 99.3851 3.91016 100.005 3.91016C100.989 3.91016 101.764 4.2793 102.329 5.01758C102.899 5.7513 103.184 6.75391 103.184 8.02539V8.39453C103.184 10.3314 102.801 11.7464 102.035 12.6396C101.27 13.5283 100.114 13.984 98.5693 14.0068H98.3232V12.9404H98.5898C99.6335 12.9222 100.436 12.651 100.996 12.127C101.557 11.5983 101.862 10.7643 101.912 9.625ZM99.9639 9.625C100.388 9.625 100.777 9.49512 101.133 9.23535C101.493 8.97559 101.755 8.6543 101.919 8.27148V7.76562C101.919 6.9362 101.739 6.26172 101.379 5.74219C101.019 5.22266 100.563 4.96289 100.012 4.96289C99.4557 4.96289 99.0091 5.17708 98.6719 5.60547C98.3346 6.0293 98.166 6.58984 98.166 7.28711C98.166 7.96615 98.3278 8.52669 98.6514 8.96875C98.9795 9.40625 99.417 9.625 99.9639 9.625ZM109.773 9.625C109.509 9.93945 109.192 10.1924 108.823 10.3838C108.459 10.5752 108.058 10.6709 107.62 10.6709C107.046 10.6709 106.545 10.5296 106.116 10.2471C105.692 9.96452 105.364 9.56803 105.132 9.05762C104.899 8.54264 104.783 7.97526 104.783 7.35547C104.783 6.6901 104.909 6.09082 105.159 5.55762C105.414 5.02441 105.774 4.61654 106.239 4.33398C106.704 4.05143 107.246 3.91016 107.866 3.91016C108.851 3.91016 109.625 4.2793 110.19 5.01758C110.76 5.7513 111.045 6.75391 111.045 8.02539V8.39453C111.045 10.3314 110.662 11.7464 109.896 12.6396C109.131 13.5283 107.976 13.984 106.431 14.0068H106.185V12.9404H106.451C107.495 12.9222 108.297 12.651 108.857 12.127C109.418 11.5983 109.723 10.7643 109.773 9.625ZM107.825 9.625C108.249 9.625 108.639 9.49512 108.994 9.23535C109.354 8.97559 109.616 8.6543 109.78 8.27148V7.76562C109.78 6.9362 109.6 6.26172 109.24 5.74219C108.88 5.22266 108.424 4.96289 107.873 4.96289C107.317 4.96289 106.87 5.17708 106.533 5.60547C106.196 6.0293 106.027 6.58984 106.027 7.28711C106.027 7.96615 106.189 8.52669 106.513 8.96875C106.841 9.40625 107.278 9.625 107.825 9.625ZM120.417 14H119.146V5.57129L116.596 6.50781V5.35938L120.219 3.99902H120.417V14ZM128.278 14H127.007V5.57129L124.457 6.50781V5.35938L128.08 3.99902H128.278V14ZM136.83 9.625C136.566 9.93945 136.249 10.1924 135.88 10.3838C135.515 10.5752 135.114 10.6709 134.677 10.6709C134.103 10.6709 133.601 10.5296 133.173 10.2471C132.749 9.96452 132.421 9.56803 132.188 9.05762C131.956 8.54264 131.84 7.97526 131.84 7.35547C131.84 6.6901 131.965 6.09082 132.216 5.55762C132.471 5.02441 132.831 4.61654 133.296 4.33398C133.761 4.05143 134.303 3.91016 134.923 3.91016C135.907 3.91016 136.682 4.2793 137.247 5.01758C137.817 5.7513 138.102 6.75391 138.102 8.02539V8.39453C138.102 10.3314 137.719 11.7464 136.953 12.6396C136.188 13.5283 135.032 13.984 133.487 14.0068H133.241V12.9404H133.508C134.551 12.9222 135.354 12.651 135.914 12.127C136.475 11.5983 136.78 10.7643 136.83 9.625ZM134.882 9.625C135.306 9.625 135.695 9.49512 136.051 9.23535C136.411 8.97559 136.673 8.6543 136.837 8.27148V7.76562C136.837 6.9362 136.657 6.26172 136.297 5.74219C135.937 5.22266 135.481 4.96289 134.93 4.96289C134.374 4.96289 133.927 5.17708 133.59 5.60547C133.253 6.0293 133.084 6.58984 133.084 7.28711C133.084 7.96615 133.246 8.52669 133.569 8.96875C133.897 9.40625 134.335 9.625 134.882 9.625Z" fill="white"/>
<path d="M6.12334 1H3.42857C2.08731 1 1 2.08731 1 3.42857V5.85714C1 12.5635 6.43654 18 13.1429 18H15.5714C16.9127 18 18 16.9127 18 15.5714V13.8933C18 13.4334 17.7401 13.0129 17.3288 12.8072L14.3951 11.3404C13.7342 11.01 12.9338 11.3415 12.7001 12.0425L12.3385 13.1272C12.1043 13.8299 11.3836 14.2481 10.6573 14.1029C7.75057 13.5215 5.47846 11.2494 4.89711 8.34268C4.75186 7.61643 5.17013 6.89567 5.87276 6.66146L7.21895 6.21273C7.8209 6.01208 8.16688 5.38181 8.01299 4.76625L7.30137 1.91978C7.16623 1.37922 6.68054 1 6.12334 1Z" stroke="white"/>
</svg>
